<?xml version="1.0" encoding="utf-8"?>
<!-- Generator: Adobe Illustrator 21.0.0, SVG Export Plug-In . SVG Version: 6.00 Build 0)  -->
<svg version="1.1" xmlns="http://www.w3.org/2000/svg" xmlns:xlink="http://www.w3.org/1999/xlink" x="0px" y="0px"
	 viewBox="0 0 360 360" style="enable-background:new 0 0 360 360;" xml:space="preserve">
<style type="text/css">
	.st0{fill:#919191;}
	.st1{fill:#BFE6EF;}
	.st2{fill:#FFFFFF;}
	.st3{fill:none;stroke:#FFFFFF;stroke-width:5.5255;stroke-miterlimit:10;}
	.st4{fill:none;stroke:#FFFFFF;stroke-width:6.4596;stroke-miterlimit:10;}
</style>
<g id="Layer_1">
</g>
<g id="text">
	<g>
		<g>
			<path class="st0" d="M111.6,264.2c-0.8-4.7-5.3-10.3-3.1-15.1c1.5-3.2,4.3-3.9,7.3-4.9c5.5-1.7,11.1-3.3,16.8-4.2
				c5.3-0.8,3-8.8-2.2-8c-7.2,1.1-15.1,3.1-21.8,6c-4.1,1.8-7.3,5.7-8.5,10c-1.8,6.8,2.3,12,3.4,18.4
				C104.5,271.6,112.5,269.4,111.6,264.2L111.6,264.2z"/>
		</g>
	</g>
</g>
<g id="graphics">
	<path class="st0" d="M306.6,47.4H53.7c-5.2,0-9.5,3.8-9.5,8.5v158.6c0,4.7,4.2,8.5,9.5,8.5H158v5.7h-22.1c-5.2,0-9.5,3.8-9.5,8.5
		s4.2,8.5,9.5,8.5h88.5c5.2,0,9.5-3.8,9.5-8.5s-4.2-8.5-9.5-8.5h-22.1V223h104.3c5.2,0,9.5-3.8,9.5-8.5V55.9
		C316,51.2,311.8,47.4,306.6,47.4z M183.3,228.6H177V223h6.3V228.6z M297.1,206H192.8h-25.3H63.1V64.4h233.9V206z"/>
	<rect x="55.2" y="57.8" class="st1" width="250.4" height="156.5"/>
	<path class="st0" d="M307.1,313.3H55.5c-0.7,0-1.3-0.6-1.3-1.3v-52.7c0-0.7,0.6-1.3,1.3-1.3h251.6c0.7,0,1.3,0.6,1.3,1.3V312
		C308.4,312.7,307.8,313.3,307.1,313.3z"/>
	<g>
		<path class="st2" d="M91.2,76c1.3,0.6,1.6,1.2,1.2,2.8c-1.4,5.9-2.9,11.7-4.4,17.6c-0.9,3.7-1.9,7.4-2.8,11.1
			c-0.1,0.4-0.2,0.8-0.4,1.2c-0.4,0.8-1.2,1.2-2.1,0.9c-0.8-0.2-1.3-1-1.3-1.8c0-0.5,0.1-0.9,0.2-1.3c2.4-9.5,4.7-19,7.1-28.5
			c0.2-0.9,0.5-1.7,1.4-2.1C90.5,76,90.9,76,91.2,76z"/>
		<path class="st2" d="M109.5,93.4c-1.1,1.6-2.7,2.8-4.1,4.1c-1.3,1.3-2.7,2.5-4.1,3.7c-0.9,0.8-2.1,0.6-2.7-0.3
			c-0.5-0.8-0.4-1.7,0.3-2.4c1.5-1.4,2.9-2.8,4.4-4.1c0.3-0.3,0.5-0.5,0.8-0.8c0.6-0.6,0.6-1,0-1.5c-1.3-1.3-2.6-2.5-3.9-3.8
			c-0.5-0.4-0.9-0.8-1.3-1.3c-0.7-0.9-0.7-1.7,0-2.4c0.7-0.7,1.6-0.8,2.5-0.1c0.9,0.7,1.7,1.5,2.6,2.3c1.5,1.4,3,2.8,4.5,4.3
			c0.4,0.4,0.8,0.9,1.1,1.4C109.5,92.8,109.5,93.1,109.5,93.4z"/>
		<path class="st2" d="M73.9,101.7c-0.7,0-1.2-0.3-1.7-0.8c-2.3-2.1-4.5-4.2-6.8-6.3c-0.1-0.1-0.2-0.2-0.4-0.4c-1-1.1-1-1.9,0-2.9
			c2.4-2.4,5-4.7,7.5-7c0.8-0.7,1.8-0.6,2.5,0.1c0.7,0.7,0.7,1.7-0.1,2.5c-1.6,1.6-3.2,3.1-4.8,4.6c-1.2,1.1-1.2,1.4,0.1,2.5
			c1.5,1.4,3,2.8,4.5,4.3c0.3,0.3,0.5,0.5,0.6,0.9C76,100.5,75.2,101.7,73.9,101.7z"/>
	</g>
	<line class="st3" x1="126.1" y1="86.8" x2="291.8" y2="86.8"/>
	<line class="st3" x1="126.1" y1="108.9" x2="291.8" y2="108.9"/>
	<line class="st4" x1="65.3" y1="131" x2="291.8" y2="131"/>
	<line class="st4" x1="65.3" y1="153.1" x2="291.8" y2="153.1"/>
	<line class="st4" x1="65.3" y1="175.2" x2="291.8" y2="175.2"/>
	<line class="st4" x1="65.3" y1="197.3" x2="291.8" y2="197.3"/>
</g>
</svg>
