<?xml version="1.0" encoding="utf-8"?>
<!-- Generator: Adobe Illustrator 21.0.0, SVG Export Plug-In . SVG Version: 6.00 Build 0)  -->
<svg version="1.1" id="graphics" xmlns="http://www.w3.org/2000/svg" xmlns:xlink="http://www.w3.org/1999/xlink" x="0px" y="0px"
	 viewBox="0 0 21.2 21.3" style="enable-background:new 0 0 21.2 21.3;" xml:space="preserve">
<style type="text/css">
	.st0{fill:#3FB66D;}
</style>
<g>
	<g>
		<path class="st0" d="M11.7,8.7C11.7,8.7,11.7,8.7,11.7,8.7c0-0.3,0-0.6,0-0.9c0-0.5-0.3-0.8-0.8-0.8c-1,0-2,0-2.9,0
			C7.4,7,7.2,7.3,7.2,7.8c0,4.2,0,8.5,0,12.7c0,0.5,0.3,0.8,0.8,0.8c1,0,1.9,0,2.9,0c0.6,0,0.8-0.3,0.8-0.8c0-2.1,0-4.3,0-6.4
			c0-0.6,0.1-1.1,0.3-1.6c0.4-1.1,1.1-1.8,2.5-1.7c0.8,0.1,1.3,0.4,1.7,1.1c0.3,0.6,0.4,1.3,0.4,2c0,2.3,0,4.5,0,6.8
			c0,0.4,0.3,0.7,0.7,0.7c1.1,0,2.1,0,3.2,0c0.4,0,0.7-0.3,0.7-0.7c0-2.7,0.1-5.5-0.1-8.2c0-0.9-0.2-1.7-0.5-2.5
			C20,8.4,19,7.4,17.5,7c-1-0.2-2.1-0.2-3.1,0c-0.9,0.2-1.7,0.6-2.3,1.4C11.9,8.5,11.8,8.6,11.7,8.7z M0.6,14.2c0,2.1,0,4.2,0,6.3
			c0,0.5,0.3,0.8,0.8,0.8c1,0,1.9,0,2.9,0c0.5,0,0.8-0.3,0.8-0.8c0-4.2,0-8.4,0-12.7C5.1,7.3,4.9,7,4.3,7C3.4,7,2.5,7,1.5,7
			C0.9,7,0.6,7.3,0.6,7.9C0.6,10,0.6,12.1,0.6,14.2z M0,2.9c0,1.6,1.3,2.9,2.9,2.9c1.6,0,2.9-1.3,2.9-2.9C5.8,1.3,4.5,0,2.9,0
			C1.3,0,0,1.3,0,2.9z"/>
	</g>
</g>
</svg>
