<?xml version="1.0" encoding="utf-8"?>
<!-- Generator: Adobe Illustrator 21.0.0, SVG Export Plug-In . SVG Version: 6.00 Build 0)  -->
<svg version="1.1" xmlns="http://www.w3.org/2000/svg" xmlns:xlink="http://www.w3.org/1999/xlink" x="0px" y="0px"
	 viewBox="0 0 360 360" style="enable-background:new 0 0 360 360;" xml:space="preserve">
<style type="text/css">
	.st0{opacity:0.25;}
	.st1{opacity:0.5;fill:none;stroke:#010101;stroke-width:0.9434;stroke-miterlimit:10;}
	.st2{fill:none;stroke:#010101;stroke-width:0.9434;stroke-miterlimit:10;}
	.st3{fill:#D7D6D6;}
	.st4{fill:#010101;}
</style>
<g id="Layer_1">
</g>
<g id="text">
	<g class="st0">
		<path class="st1" d="M49.4,107.2h19.5l59.5,81.3l57.1-81.3h18.3v158.5h-19.2V137.6l-56.1,78.8h-2.9l-56.8-78.1v127.5H49.4V107.2z"
			/>
	</g>
	<g class="st0">
		<path class="st2" d="M235.9,265.7V107.2c8.8,0,38-0.5,42.6-0.5c43.2,0,56.4,21.5,56.4,47.1c0,24.7-17,40.3-34.4,44.8l52.8,67
			h-23.5l-48.7-63.4h-25.8v63.4H235.9z M255.1,125.3v58.9h23.3c18.3,0,36-11.3,36-30.1c0-16.3-9.1-29.2-37.1-29.2
			C272.3,124.9,262.6,125.1,255.1,125.3z"/>
	</g>
	<g>
		<g>
			<path class="st3" d="M37.5,95.6h19.5l59.5,81.3l57.1-81.3h18.3v158.5h-19.2V126l-56.2,78.8h-2.9l-56.8-78.1v127.5H37.5V95.6z"/>
		</g>
	</g>
	<g>
		<g>
			<path class="st4" d="M226.6,253.2V94.7c8.8,0,38-0.5,42.6-0.5c43.2,0,56.4,21.5,56.4,47.1c0,24.7-17,40.3-34.4,44.8l52.8,67
				h-23.5l-48.7-63.4h-25.8v63.4H226.6z M245.8,112.9v58.9h23.3c18.3,0,36-11.3,36-30.1c0-16.3-9.1-29.2-37.1-29.2
				C263,112.4,253.3,112.6,245.8,112.9z"/>
		</g>
	</g>
</g>
</svg>
