<?xml version="1.0" encoding="utf-8"?>
<!-- Generator: Adobe Illustrator 27.9.1, SVG Export Plug-In . SVG Version: 6.00 Build 0)  -->
<svg version="1.1" id="Layer_1" xmlns="http://www.w3.org/2000/svg" xmlns:xlink="http://www.w3.org/1999/xlink" x="0px" y="0px"
	 viewBox="0 0 360 360" style="enable-background:new 0 0 360 360;" xml:space="preserve">
<style type="text/css">
	.st0{fill:none;stroke:#000000;stroke-width:2;stroke-miterlimit:10;}
</style>
<g id="Layer_1_00000075853838988874666240000000148527365772789140_">
</g>
<g>
	<g>
		<path class="st0" d="M37.5,95.6H57l59.5,81.3l57.1-81.3h18.3v158.5h-19.2V126l-56.2,78.8h-2.9l-56.8-78.1v127.5H37.5V95.6z"/>
	</g>
</g>
<g>
	<g>
		<path class="st0" d="M226.6,253.2V94.7c8.8,0,38-0.5,42.6-0.5c43.2,0,56.4,21.5,56.4,47.1c0,24.7-17,40.3-34.4,44.8l52.8,67h-23.5
			l-48.7-63.4H246v63.4h-19.4V253.2z M245.8,112.9v58.9h23.3c18.3,0,36-11.3,36-30.1c0-16.3-9.1-29.2-37.1-29.2
			C263,112.4,253.3,112.6,245.8,112.9z"/>
	</g>
</g>
</svg>
