<?xml version="1.0" encoding="utf-8"?>
<!-- Generator: Adobe Illustrator 27.9.1, SVG Export Plug-In . SVG Version: 6.00 Build 0)  -->
<svg version="1.1" id="Layer_1" xmlns="http://www.w3.org/2000/svg" xmlns:xlink="http://www.w3.org/1999/xlink" x="0px" y="0px"
	 viewBox="0 0 202.5 196.5" style="enable-background:new 0 0 202.5 196.5;" xml:space="preserve">
<style type="text/css">
	.st0{opacity:0.3;fill:url(#SVGID_1_);enable-background:new    ;}
	.st1{fill:#EFEFEF;}
	.st2{fill:#50CC7C;}
	.st3{opacity:0.5;fill:#F9F9F9;enable-background:new    ;}
	.st4{fill:#CCCCCC;}
	.st5{fill:#D3D3D3;}
	.st6{fill:#CFD1D0;}
	.st7{fill:#93E9BE;}
	.st8{fill:#74D1A0;}
	.st9{fill:#62B788;}
	.st10{fill:#3FB66C;}
	.st11{fill:#E0E0E0;}
	.st12{fill:#50D87D;}
</style>
<radialGradient id="SVGID_1_" cx="101.24" cy="-1076.488" r="101.3875" gradientTransform="matrix(1 0 0 -0.2859 0 -134.7779)" gradientUnits="userSpaceOnUse">
	<stop  offset="0" style="stop-color:#000000;stop-opacity:0.25"/>
	<stop  offset="1" style="stop-color:#000000;stop-opacity:0"/>
</radialGradient>
<ellipse class="st0" cx="101.2" cy="173" rx="101.2" ry="23.5"/>
<g>
	<path class="st1" d="M156.4,47H42.7v110.9h0.1c0,0.4-0.1,0.9-0.1,1.3c0,14.3,25.5,25.8,56.9,25.8s56.9-11.6,56.9-25.8
		c0-0.4,0-0.9-0.1-1.3h0.1V47z"/>
	<path class="st2" d="M125.4,102.3c6.6-30.6,0-31,0-33.6c0-2.6-1.5-1.7-3.1-1.7s-1.5,1.8-1.5,1.8s-14.7,35.2-3.3,28.7
		c4.4-2.5,3.2,4.9,4.9,6.5C123.9,105.6,125.4,102.3,125.4,102.3"/>
	<polygon class="st3" points="152.9,71.9 154.6,71.9 154.6,160.8 152.9,165.6 	"/>
	<g>
		<path class="st4" d="M42.7,160.6c0.9,11,15,16.4,24.1,19.2c20.8,5.7,43.9,5.7,64.8,0c9.2-2.8,23.2-8.1,24.1-19.2
			c0.2,5.8-4.2,10.4-8.6,13.6c-21.4,14.1-56.7,14.6-80.7,7.1C57.1,178.2,42.8,171.9,42.7,160.6L42.7,160.6z"/>
	</g>
	<g>
		<path class="st5" d="M42.2,53.3C43.8,21.8,62.5-1,95.5,0c14.1,0.1,28.7,4,39.9,12.9c5.6,4.4,10.3,9.9,14,15.9
			c3.6,6.1,6.4,12.7,7.7,19.6l-0.2,0c-3.8-13.3-11.7-25.6-22.7-34C118.1,2.2,94.2-1.6,75,4.3C53.4,11.4,44.2,32.6,42.2,53.3
			L42.2,53.3z"/>
	</g>
	<ellipse class="st6" cx="154.7" cy="50.9" rx="2.8" ry="5.9"/>
	<ellipse class="st7" cx="99.5" cy="47.9" rx="56.9" ry="10.8"/>
	<ellipse class="st8" cx="99.5" cy="47.7" rx="53.4" ry="7.6"/>
	<g>
		<path class="st9" d="M46.1,47.7C47,43,67.5,40.9,72,40.4c18.3-1.8,36.7-1.8,55,0c6.8,0.7,13.7,1.6,20.3,3.6
			c1.6,0.5,3.3,1.1,4.7,2.2c0.4,0.3,0.9,0.8,0.9,1.5c0-0.6-0.5-1-0.9-1.3c-1.4-0.9-3.1-1.4-4.7-1.8c-6.7-1.5-13.5-2.1-20.3-2.6
			c-18.2-1.2-36.5-1.2-54.7,0C67.6,42.4,47.2,43.4,46.1,47.7L46.1,47.7z"/>
	</g>
	<path class="st2" d="M41.3,68c0,0,9.8,2.1,11.2,7c1.4,4.9,1.4,13.3,0.7,16.7c-0.7,3.5-2.1,6.3-0.7,7.7s4.9-0.7,4.9-2.8
		c0-2.1-1.2-4.2-1.2-9.8c0-5.6,0.5-14.7,2.6-14.7s4.9,0,7,2.8c2.1,2.8,0.7,9.8,3.5,11.2s7.7,3.5,8.4,7c0.7,3.5,0,8.4-0.7,9.8
		c-0.7,1.4-0.2,6.3,2.8,6.3c2.8,0,2.8-4.2,2.1-11.2c-0.7-7,2.1-14.7,2.8-16.1c0.3-0.6,8.4-3.5,9.8,2.1c1.4,5.6,2.1,11.2,5.6,11.9
		s7.2-1.9,7.4,4.6s1.6,11.4,3.7,11.4c2.1,0,2.8-2.1,3.5-4.9s1.4-8.4,4.2-10.5c2.8-2.1,7.6,0,9.1-6.6s3.4-6.9,4.9-6.6
		c4.2,0.7,1.4,11.2,3.5,11.2c2.1,0,1.4-1.4,1.4-3.5s0.8-9.1,2.8-11.2c1.2-1.3,7-2.8,7,2.1s3.5,3.5,3.5,3.5s4-1.9,4.2-19.8
		c0.2-17.2,0-16.8,0-16.8S146,58.9,96.4,59.6c-38,0.5-55-9.6-55-9.6L41.3,68z"/>
	<g>
		<path class="st7" d="M155,45.6c0,0-9.1,10.1-58.6,10.8c-29.8,0.4-46.6-5.7-52.5-8.4c0-0.3,0-0.4,0-0.4H43c-1-0.5-1.5-0.8-1.5-0.8
			l-0.2,18c0,0,0.3,0.1,0.7,0.2c-0.1,3.2-0.2,5.7-0.2,6.3c0,2.1-0.7,3.5,0.3,3.5s1-1.4,1-4.9c0-0.8,0-2.5,0.1-4.6
			c0.3,0.1,0.6,0.2,1,0.3c-0.2,5.9-0.4,12.3-0.4,13.3c0,2.1-0.7,3.5,0.3,3.5s1-1.4,1-4.9c0-1.6,0.2-6.6,0.3-11.4
			c2.8,1.1,6.1,2.9,6.8,5.6c1.4,4.9,1.4,13.3,0.7,16.7c-0.7,3.5-2.1,6.3-0.7,7.7c1.4,1.4,4.9-0.7,4.9-2.8c0-2.1-1.2-4.2-1.2-9.8
			c0-5.6,0.5-14.7,2.6-14.7s4.9,0,7,2.8c2.1,2.8,0.7,9.8,3.5,11.2c2.8,1.4,7.7,3.5,8.4,7c0.7,3.5,0,8.4-0.7,9.8
			c-0.7,1.4-0.2,6.3,2.8,6.3c2.8,0,2.8-4.2,2.1-11.2c-0.7-7,2.1-14.7,2.8-16.1c0.3-0.6,8.4-3.5,9.8,2.1c1.4,5.6,2.1,11.2,5.6,11.9
			c3.5,0.7,7.2-1.9,7.4,4.6s1.6,11.4,3.7,11.4s4-1.7,4.7-4.5c0.7-2.8,0.2-8.7,3-10.8c2.8-2.1,7.6,0,9.1-6.6s3.4-6.9,4.9-6.6
			c4.2,0.7,1.4,11.2,3.5,11.2c2.1,0,1.4-1.4,1.4-3.5s0.8-9.1,2.8-11.2c1.2-1.3,7-2.8,7,2.1s3.5,3.5,3.5,3.5s4-1.9,4.2-19.8
			C155.2,45.2,155,45.6,155,45.6z"/>
	</g>
	<path class="st7" d="M125.4,99.6c6.6-30.6,0-31,0-33.6c0-2.6-1.5-1.7-3.1-1.7s-1.5,1.8-1.5,1.8s-14.7,35.2-3.3,28.7
		c4.4-2.5,3.2,4.9,4.9,6.5C123.9,102.9,125.4,99.6,125.4,99.6"/>
	<path class="st10" d="M117.3,106.9"/>
	<ellipse class="st6" cx="42.7" cy="52.8" rx="2.8" ry="5.9"/>
	<ellipse class="st11" cx="41.3" cy="52.8" rx="2.8" ry="5.9"/>
	<path class="st10" d="M76.2,4.9c0,0,12.9-3.2,16.2-3.2S90.7,0,90.7,0s-9.2,0-15.1,2.4s0,1.8,0,1.8"/>
</g>
<path class="st12" d="M109.3,126.8"/>
<path class="st7" d="M154.6,71.9c0,0,0.4-4.6,1.8-4.7c1.4-0.1-0.1-18.8-0.1-18.8l-5,2.6"/>
</svg>
