<?xml version="1.0" encoding="utf-8"?>
<!-- Generator: Adobe Illustrator 27.9.1, SVG Export Plug-In . SVG Version: 6.00 Build 0)  -->
<svg version="1.1" id="Layer_1" xmlns="http://www.w3.org/2000/svg" xmlns:xlink="http://www.w3.org/1999/xlink" x="0px" y="0px"
	 viewBox="0 0 202.48 196.5" style="enable-background:new 0 0 202.48 196.5;" xml:space="preserve">
<style type="text/css">
	.st0{opacity:0.3;fill:url(#SVGID_1_);}
	.st1{fill:#EFEFEF;}
	.st2{opacity:0.5;fill:#F9F9F9;}
	.st3{fill:#CCCCCC;}
	.st4{fill:#E5EAE7;}
	.st5{fill:#CFD1D0;}
	.st6{fill:#3FB66C;}
	.st7{fill:#339955;}
	.st8{fill:#2D914E;}
	.st9{fill:#50CC7C;}
	.st10{fill:#E0E0E0;}
	.st11{fill:#50D87D;}
</style>
<radialGradient id="SVGID_1_" cx="101.2384" cy="172.9916" r="101.389" gradientTransform="matrix(1 0 0 0.2859 0 123.532)" gradientUnits="userSpaceOnUse">
	<stop  offset="0" style="stop-color:#000000;stop-opacity:0.25"/>
	<stop  offset="1" style="stop-color:#000000;stop-opacity:0"/>
</radialGradient>
<ellipse class="st0" cx="101.24" cy="172.99" rx="101.24" ry="23.5"/>
<g>
	<path class="st1" d="M156.38,46.96H42.66V157.9h0.07c-0.05,0.43-0.07,0.86-0.07,1.29c0,14.26,25.46,25.81,56.86,25.81
		s56.86-11.56,56.86-25.81c0-0.43-0.03-0.86-0.07-1.29h0.07V46.96z"/>
	<polygon class="st2" points="152.94,71.91 154.55,71.91 154.55,160.78 152.94,165.62 	"/>
	<g>
		<path class="st3" d="M42.66,160.59c0.9,11.02,14.98,16.37,24.12,19.19c20.85,5.72,43.93,5.72,64.78,0
			c9.17-2.83,23.19-8.15,24.12-19.19c0.16,5.77-4.2,10.41-8.62,13.55c-21.44,14.11-56.74,14.57-80.74,7.13
			C57.09,178.21,42.78,171.91,42.66,160.59L42.66,160.59z"/>
	</g>
	<g>
		<path class="st4" d="M42.16,53.33c1.68-31.56,20.33-54.31,53.35-53.3c14.13,0.11,28.66,3.95,39.86,12.88
			c5.57,4.45,10.33,9.88,13.98,15.95c3.63,6.07,6.4,12.68,7.73,19.6c0,0-0.2,0.04-0.2,0.04c-3.77-13.29-11.72-25.64-22.73-34.01
			C118.1,2.21,94.24-1.65,74.99,4.32C53.43,11.42,44.18,32.56,42.16,53.33L42.16,53.33z"/>
	</g>
	<ellipse class="st5" cx="154.69" cy="50.94" rx="2.79" ry="5.93"/>
	<ellipse class="st6" cx="99.52" cy="47.91" rx="56.86" ry="10.81"/>
	<ellipse class="st7" cx="99.52" cy="47.66" rx="53.37" ry="7.58"/>
	<g>
		<path class="st8" d="M46.14,47.66c0.82-4.68,21.33-6.75,25.88-7.28c18.27-1.75,36.71-1.75,54.98,0
			c6.84,0.73,13.73,1.61,20.33,3.64c1.63,0.55,3.33,1.1,4.69,2.19c0.44,0.35,0.87,0.85,0.86,1.45c-0.04-0.59-0.5-1.02-0.95-1.33
			c-1.42-0.94-3.11-1.37-4.74-1.8c-6.66-1.55-13.51-2.07-20.32-2.59c-18.21-1.16-36.51-1.16-54.72,0
			C67.63,42.39,47.16,43.38,46.14,47.66L46.14,47.66z"/>
	</g>
	<path class="st9" d="M41.29,68.02c0,0,9.77,2.09,11.16,6.98c1.4,4.88,1.4,13.26,0.7,16.74c-0.7,3.49-2.09,6.28-0.7,7.67
		s4.88-0.7,4.88-2.79c0-2.09-1.23-4.19-1.23-9.77c0-5.62,0.54-14.65,2.63-14.65s4.88,0,6.98,2.79c2.09,2.79,0.7,9.77,3.49,11.16
		s7.67,3.49,8.37,6.98c0.7,3.49,0,8.37-0.7,9.77c-0.7,1.4-0.17,6.28,2.79,6.28c2.79,0,2.79-4.19,2.09-11.16
		c-0.7-6.98,2.09-14.65,2.79-16.05c0.31-0.62,8.37-3.49,9.77,2.09c1.4,5.58,2.09,11.16,5.58,11.86s7.19-1.9,7.43,4.63
		c0.24,6.53,1.64,11.41,3.73,11.41c2.09,0,2.79-2.09,3.49-4.88s1.4-8.37,4.19-10.47c2.79-2.09,7.63,0,9.05-6.63
		c1.42-6.63,3.37-6.88,4.91-6.63c4.19,0.7,1.38,11.16,3.49,11.16c2.09,0,1.4-1.4,1.4-3.49c0-2.09,0.84-9.05,2.79-11.16
		c1.23-1.34,6.98-2.79,6.98,2.09c0,4.88,3.49,3.49,3.49,3.49s4.02-1.94,4.19-19.81c0.16-17.16,0-16.81,0-16.81
		s-9.07,10.12-58.6,10.81c-38,0.54-54.96-9.63-54.96-9.63L41.29,68.02z"/>
	<g>
		<path class="st6" d="M155.01,45.6c0,0-9.07,10.12-58.6,10.81C66.62,56.83,49.77,50.68,43.87,48c0.01-0.28,0.02-0.44,0.02-0.44
			h-0.94c-1-0.48-1.5-0.78-1.5-0.78l-0.16,18c0,0,0.27,0.06,0.7,0.17c-0.11,3.16-0.19,5.68-0.19,6.33c0,2.09-0.7,3.49,0.35,3.49
			c1.05,0,1.05-1.4,1.05-4.88c0-0.82,0.04-2.49,0.1-4.56c0.3,0.09,0.62,0.19,0.96,0.31c-0.18,5.94-0.36,12.26-0.36,13.32
			c0,2.09-0.7,3.49,0.35,3.49c1.05,0,1.05-1.4,1.05-4.88c0-1.63,0.15-6.59,0.31-11.43c2.81,1.11,6.09,2.95,6.85,5.63
			c1.39,4.88,1.39,13.26,0.7,16.74c-0.7,3.49-2.09,6.28-0.7,7.67c1.39,1.4,4.88-0.7,4.88-2.79c0-2.09-1.23-4.19-1.23-9.77
			c0-5.62,0.54-14.65,2.63-14.65c2.09,0,4.88,0,6.98,2.79c2.09,2.79,0.7,9.77,3.49,11.16c2.79,1.4,7.67,3.49,8.37,6.98
			c0.7,3.49,0,8.37-0.7,9.77c-0.7,1.4-0.17,6.28,2.79,6.28c2.79,0,2.79-4.19,2.09-11.16c-0.7-6.98,2.09-14.65,2.79-16.05
			c0.31-0.62,8.37-3.49,9.77,2.09c1.39,5.58,2.09,11.16,5.58,11.86c3.49,0.7,7.19-1.9,7.43,4.63c0.24,6.53,1.64,11.41,3.73,11.41
			s4.02-1.72,4.72-4.51c0.7-2.79,0.17-8.74,2.96-10.83c2.79-2.09,7.63,0,9.05-6.63c1.42-6.63,3.37-6.88,4.91-6.63
			c4.19,0.7,1.38,11.16,3.49,11.16c2.09,0,1.4-1.4,1.4-3.49c0-2.09,0.84-9.05,2.79-11.16c1.23-1.34,6.98-2.79,6.98,2.09
			c0,4.88,3.49,3.49,3.49,3.49s4.02-1.94,4.19-19.81C155.17,45.25,155.01,45.6,155.01,45.6z"/>
	</g>
	<path class="st6" d="M117.31,106.87"/>
	<ellipse class="st5" cx="42.66" cy="52.8" rx="2.79" ry="5.93"/>
	<ellipse class="st10" cx="41.26" cy="52.8" rx="2.79" ry="5.93"/>
	<path class="st6" d="M76.19,4.86c0,0,12.93-3.23,16.16-3.23c3.23,0-1.62-1.62-1.62-1.62s-9.17,0-15.09,2.42s0,1.84,0,1.84"/>
</g>
<path class="st11" d="M109.31,126.85"/>
<path class="st6" d="M125.34,99.32c6.59-30.64,0-31.04,0-33.62c0-2.59-1.53-1.72-3.06-1.72s-1.53,1.83-1.53,1.83
	s-14.66,35.19-3.35,28.73c4.44-2.53,3.24,4.87,4.89,6.51C123.85,102.61,125.34,99.32,125.34,99.32"/>
<path class="st6" d="M154.55,71.91c0,0,0.42-4.61,1.82-4.73c1.41-0.12-0.05-18.83-0.05-18.83l-5,2.56"/>
</svg>
