<?xml version="1.0" encoding="UTF-8"?>
<svg id="Layer_1" xmlns="http://www.w3.org/2000/svg" version="1.1" viewBox="0 0 295.11 118.1">
  <!-- Generator: Adobe Illustrator 30.3.0, SVG Export Plug-In . SVG Version: 2.1.3 Build 182)  -->
  <defs>
    <style>
      .st0 {
        fill: #50cc7c;
      }

      .st1 {
        fill: #93e9be;
      }
    </style>
  </defs>
  <path class="st0" d="M187.86,0c-13.43.96-28.46,1.62-45.3,1.86-18.64.25-35.33-.5-50.14-1.86H.13l-.13,23.59s25.35,5.43,28.98,18.11c3.62,12.68,3.62,34.41,1.81,43.21-1.81,9.06-5.43,16.3-1.81,19.92s12.68-1.81,12.68-7.24-3.1-10.87-3.1-25.35,1.29-38.03,6.73-38.03,12.77-11.74,18.21-4.5c5.43,7.24,1.72,18.03,8.96,21.66,7.24,3.62,19.92.06,21.73,9.11,1.81,9.06,0,21.73-1.81,25.35-1.81,3.62-.52,16.3,7.24,16.3,7.24,0,7.24-10.87,5.43-28.98-1.81-18.11,5.43-38.03,7.24-41.65.78-1.55,21.73-12.06,25.35,2.43s5.43,13.98,14.49,15.79,18.63-4.92,19.14,11.9,4.14,29.49,9.57,29.49,7.24-5.43,9.05-12.68c1.81-7.24,3.62-21.73,10.87-27.17s19.66,1,23.54-16.08c3.88-17.08,8.8-.85,12.68-.08,10.87,1.81,3.62,28.98,9.06,28.98s3.62-3.62,3.62-9.06,2.07-23.54,7.24-28.98c3.1-3.36,18.11-7.24,18.11,5.43s4.57,14.29,4.57,14.29c0,0,14.83,17.91,15.35-28.4.08-6.8.13-12.54.17-17.38h-107.25Z"/>
  <path class="st1" d="M.17,0l-.17,15.31s.78.26,1.81.52c-.26,8.28-.52,14.75-.52,16.3,0,5.43-1.81,9.06.78,9.06s2.59-3.62,2.59-12.68c0-2.07,0-6.47.26-11.9.78.26,1.55.52,2.59.78-.52,15.26-1.03,31.82-1.03,34.41,0,5.43-1.81,9.06.78,9.06s2.59-3.62,2.59-12.68c0-4.14.52-17.08.78-29.49,7.24,2.85,15.78,7.5,17.59,14.49,3.62,12.68,3.62,34.41,1.81,43.21-1.81,9.06-5.43,16.3-1.81,19.92s12.68-1.81,12.68-7.24-3.1-10.87-3.1-25.35,1.29-38.03,6.73-38.03,13.18-10.96,18.61-3.72c5.43,7.24,1.31,17.26,8.55,20.88,7.24,3.62,19.92.05,21.73,9.11,1.81,9.06,0,21.73-1.81,25.35-1.81,3.62-.52,16.3,7.24,16.3,7.24,0,7.24-10.87,5.43-28.98-1.81-18.11,5.43-38.03,7.24-41.65.78-1.55,21.73-9.06,25.35,5.43,1.52,6.07,7.54,11.4,14.49,12.79,9.06,1.81,18.63-4.92,19.14,11.9s4.14,29.49,9.57,29.49,10.35-4.4,12.16-11.64c1.81-7.24.52-22.51,7.76-27.94,7.24-5.43,19.66,4,23.54-13.08s8.8-3.85,12.68-3.08c10.87,1.81,3.53,34.9,8.96,34.9s3.72-9.55,3.72-14.98,2.07-23.54,7.24-28.98c3.1-3.36,18.11-7.24,18.11,5.43s5.4,17.59,5.4,17.59c0,0,14,14.62,14.52-31.69.04-3.28.07-6.3.1-9.1H.17Z"/>
</svg>
