<?xml version="1.0" encoding="utf-8"?>
<!-- Generator: Adobe Illustrator 21.0.0, SVG Export Plug-In . SVG Version: 6.00 Build 0)  -->
<svg version="1.1" id="graphics" xmlns="http://www.w3.org/2000/svg" xmlns:xlink="http://www.w3.org/1999/xlink" x="0px" y="0px"
	 viewBox="0 0 9.7 5" style="enable-background:new 0 0 9.7 5;" xml:space="preserve">
<style type="text/css">
	.st0{fill:#C7C6C5;}
</style>
<g>
	<path class="st0" d="M9.6,0C9.6,0,9.6,0,9.6,0c0.1,0.1,0.1,0.1,0,0.2C8.6,1.3,7.5,2.4,6.4,3.5C6,3.9,5.5,4.4,5,4.9
		C4.9,5,4.7,5,4.6,4.9C4.1,4.3,3.5,3.8,3,3.2C2.2,2.4,1.4,1.6,0.6,0.8C0.4,0.6,0.2,0.4,0.1,0.2c0,0,0,0,0-0.1c0,0,0,0,0-0.1
		C0,0.1,0.1,0,0.1,0c0,0,0,0,0,0h1.4c0,0,0,0,0,0c0.1,0,0.2,0.1,0.3,0.2c1,1,2,2.1,2.9,3.1c0,0,0,0,0.1,0.1c0,0,0,0,0,0c0,0,0,0,0,0
		C5.3,2.9,5.7,2.4,6.1,2c0.6-0.6,1.2-1.2,1.8-1.9c0,0,0.1-0.1,0.2-0.1c0,0,0.1,0,0.1,0c0,0,0,0,0,0L9.6,0z"/>
	<path class="st0" d="M0,0C0,0,0,0,0,0C0,0.1,0,0,0,0L0,0C0,0,0,0,0,0L0,0C0.1,0,0.1,0,0,0z"/>
</g>
</svg>
