<?xml version="1.0" encoding="utf-8"?>
<!-- Generator: Adobe Illustrator 21.0.0, SVG Export Plug-In . SVG Version: 6.00 Build 0)  -->
<svg version="1.1" id="graphics" xmlns="http://www.w3.org/2000/svg" xmlns:xlink="http://www.w3.org/1999/xlink" x="0px" y="0px"
	 viewBox="0 0 15.3 19.1"  xml:space="preserve">
<style type="text/css">
	.st0{fill:#000000;}
</style>
<g>
	<path class="st0" d="M10.2,5.7C9.9,5.7,9.6,5.4,9.6,5V0H0.7C0.3,0,0,0.3,0,0.7v17.6c0,0.4,0.3,0.7,0.7,0.7h13.8
		c0.4,0,0.7-0.3,0.7-0.7V5.7H10.2z M5.1,2.9c0.8,0,1.5,0.7,1.5,1.5S5.9,5.8,5.1,5.8S3.6,5.2,3.6,4.4S4.3,2.9,5.1,2.9z M2.9,7.4
		C3,6.9,3.3,6.5,3.7,6.2c0.4,0.3,0.8,0.4,1.3,0.4s1-0.2,1.3-0.4c0.4,0.2,0.7,0.7,0.8,1.2l0.1,0.8c0,0.2-0.1,0.4-0.3,0.4H3.2
		C3,8.6,2.8,8.5,2.8,8.2L2.9,7.4z M11.7,15.9H3.5c-0.4,0-0.6-0.3-0.6-0.6c0-0.4,0.3-0.6,0.6-0.6h8.2c0.4,0,0.6,0.3,0.6,0.6
		S12.1,15.9,11.7,15.9z M11.7,12.4H3.5c-0.4,0-0.6-0.3-0.6-0.6c0-0.4,0.3-0.6,0.6-0.6h8.2c0.4,0,0.6,0.3,0.6,0.6
		C12.4,12.1,12.1,12.4,11.7,12.4z"/>
	<polygon class="st0" points="10.9,0.3 10.9,4.4 14.9,4.4 	"/>
</g>
</svg>
