<?xml version="1.0" encoding="utf-8"?>
<!-- Generator: Adobe Illustrator 21.0.0, SVG Export Plug-In . SVG Version: 6.00 Build 0)  -->
<svg version="1.1" id="graphics" xmlns="http://www.w3.org/2000/svg" xmlns:xlink="http://www.w3.org/1999/xlink" x="0px" y="0px"
	 viewBox="0 0 23.7 23.3" style="enable-background:new 0 0 23.7 23.3;" xml:space="preserve">
<style type="text/css">
	.st0{fill:#000000;}
</style>
<g>
	<path class="st0" d="M15.3,20.8c0-0.9,0.1-1.9-0.3-2.8c-0.1-0.4,0.1-0.4,0.3-0.5c0.7-0.2,1.4-0.4,2-0.7c1.8-1,2.4-2.7,2.6-4.6
		c0.1-1.5,0-2.9-0.9-4.2c-0.2-0.2-0.2-0.5-0.1-0.8c0.2-0.9,0-1.7-0.2-2.5c-0.1-0.5-0.5-0.7-1-0.7c-0.8,0.1-1.6,0.4-2.3,0.8
		c-0.5,0.3-0.9,0.4-1.5,0.3c-1.5-0.3-3.1-0.2-4.7,0C8.9,5.2,8.6,5.2,8.4,5C7.6,4.5,6.8,4.2,5.9,4.1C5.2,4.1,5,4.2,4.8,4.9
		C4.5,5.7,4.5,6.5,4.6,7.4c0,0.3,0,0.6-0.2,0.9c-1.3,2.3-1.1,4.6,0.1,6.8c0.7,1.4,2.1,2,3.5,2.5c0.2,0.1,0.6,0,0.6,0.4
		c-0.1,0.4-0.2,0.7-0.6,0.9C7.2,19,6.5,18.8,6,18.3c-0.4-0.4-0.7-0.8-1.1-1.2c-0.6-0.5-1.3-0.9-2.1-0.6c-0.7,0.2-0.8,0.8-0.2,1.1
		c0.9,0.6,1.3,1.4,1.7,2.3C4.8,21,5.8,21.5,7,21.6c0.2,0,0.4,0,0.6,0c0.5,0,0.6,0.1,0.6,0.6c0,1.2,0,1.3-1.1,0.7
		C2.6,20.5,0,16.8,0,11.5C0,6,4.1,1.3,9.5,0.2c6.9-1.3,13.3,3.4,14.1,10.4C24.2,15.9,21,21,16,22.9c-0.6,0.2-0.7,0.1-0.7-0.5
		C15.3,21.9,15.3,21.3,15.3,20.8z"/>
</g>
</svg>
