<?xml version="1.0" encoding="utf-8"?>
<!-- Generator: Adobe Illustrator 21.0.0, SVG Export Plug-In . SVG Version: 6.00 Build 0)  -->
<svg version="1.1" id="graphics" xmlns="http://www.w3.org/2000/svg" xmlns:xlink="http://www.w3.org/1999/xlink" x="0px" y="0px"
	 viewBox="0 0 22.1 22.1" style="enable-background:new 0 0 22.1 22.1;" xml:space="preserve">
<style type="text/css">
	.st0{fill:#3FB66D;}
</style>
<g>
	<path class="st0" d="M10.7,0c0.2,0,0.5,0,0.7,0c0.1,0,0.1,0,0.2,0c0,0,0.1,0,0.1,0c0,0,0,0,0.1,0c0.1,0,0.3,0,0.4,0
		c0.5,0.1,1.1,0.2,1.6,0.3c3.5,0.9,6.3,3.4,7.6,6.8C21.7,8,21.9,8.8,22,9.7c0,0.1,0,0.2,0,0.3c0,0,0,0.1,0,0.1c0,0.1,0,0.1,0,0.2
		c0,0.1,0,0.1,0,0.2c0,0.4,0,0.8,0,1.2c0,0.1,0,0.1,0,0.2c0,0.1,0,0.1,0,0.2c0,0,0,0,0,0.1c0,0.2,0,0.3-0.1,0.5
		c-0.1,0.8-0.3,1.5-0.5,2.2c-1.1,3-3.4,5.4-6.4,6.6c-1.1,0.4-2.3,0.7-3.6,0.7c0,0-0.1,0-0.1,0c0,0,0,0,0,0c-0.2,0-0.4,0-0.6,0
		c0,0,0,0,0,0c0,0-0.1,0-0.1,0c-0.3,0-0.6,0-0.9-0.1c-0.5-0.1-1-0.2-1.6-0.3C5.6,21,3.5,19.5,2,17.4c-0.9-1.2-1.5-2.6-1.8-4.1
		c-0.1-0.5-0.2-1.1-0.2-1.6c0-0.1,0-0.1,0-0.2c0-0.2,0-0.5,0-0.7c0-0.1,0-0.1,0-0.2c0-0.3,0-0.6,0.1-1C0.2,8.6,0.5,7.8,0.8,7
		C1.9,4.2,4.2,1.9,7,0.8c1-0.4,2-0.6,3.1-0.7c0.1,0,0.2,0,0.2,0c0,0,0.1,0,0.1,0c0,0,0.1,0,0.1,0C10.6,0,10.6,0,10.7,0z M11.2,20.5
		c0.6,0,1.1-0.1,1.8-0.2c0.6-0.1,1.2-0.3,1.7-0.5c0.1,0,0.1,0,0.1-0.1c0,0,0,0,0,0c-0.1-0.3-0.1-0.6-0.2-0.9c-0.4-2-1-4-1.8-6
		c0-0.1,0-0.1-0.2-0.1c-0.9,0.3-1.7,0.7-2.5,1.1c-1,0.6-2,1.3-2.8,2.1c-0.7,0.7-1.3,1.4-1.8,2.2c-0.1,0.1-0.1,0.2-0.2,0.3
		c0,0.1,0,0.1,0,0.1c0,0,0,0,0,0c0.6,0.4,1.2,0.8,1.9,1.1C8.5,20.2,9.7,20.5,11.2,20.5z M2.6,10.8c-0.2,0-0.5,0-0.8,0
		c-0.1,0-0.1,0-0.1,0.1c0,0,0,0,0,0c0,0.6,0,1.1,0.1,1.7c0.3,1.6,1,3.1,2,4.4c0.1,0.1,0.2,0.2,0.2,0.3c0,0.1,0.1,0.1,0.1,0
		c0,0,0.1-0.1,0.1-0.1c1.1-1.7,2.5-3.1,4.1-4.3c0.9-0.6,1.8-1.1,2.8-1.5c0.3-0.1,0.6-0.2,0.9-0.3c0.1,0,0.1,0,0.1-0.1c0,0,0,0,0,0
		c-0.2-0.5-0.4-1-0.7-1.4c0-0.1,0-0.1-0.1-0.1c0,0-0.1,0-0.1,0c-0.6,0.2-1.1,0.3-1.7,0.4c-0.8,0.2-1.5,0.3-2.3,0.4
		c-0.6,0.1-1.3,0.2-2,0.2c-0.4,0-0.8,0.1-1.2,0.1C3.6,10.7,3.1,10.7,2.6,10.8z M2.8,9.1C2.8,9.1,2.8,9.1,2.8,9.1c0.1,0,0.1,0,0.2,0
		C3.5,9.1,4,9,4.6,9C5.3,8.9,6,8.9,6.7,8.8C7.8,8.6,8.9,8.4,10,8.1c0.2,0,0.3-0.1,0.5-0.1c0.1,0,0.1,0,0-0.1c0-0.1-0.1-0.1-0.1-0.2
		C9.4,6,8.3,4.3,7.2,2.7C7,2.5,7.1,2.5,6.9,2.6c-1.1,0.5-2,1.3-2.8,2.1C3,6,2.2,7.4,1.9,9c0,0,0,0.1,0,0.1c0,0,0,0.1,0.1,0.1
		c0,0,0,0,0.1,0C2.2,9.1,2.5,9.1,2.8,9.1z M11,1.6c-0.5,0-1,0.1-1.6,0.1c-0.2,0-0.3,0.1-0.5,0.1c-0.1,0-0.1,0,0,0.1
		C8.9,2,9,2.1,9,2.1c1.2,1.6,2.3,3.3,3.3,5.1c0.1,0.2,0.1,0.1,0.2,0.1c1-0.4,1.9-0.9,2.8-1.5c0.6-0.4,1.2-1,1.7-1.5
		c0.1-0.1,0.1-0.2,0.2-0.3c0-0.1,0-0.1,0-0.1c0,0,0,0,0,0c-0.6-0.5-1.2-0.9-1.8-1.2C14.1,2,12.6,1.6,11,1.6z M20.5,10.7
		c0-0.4-0.1-1-0.2-1.4c-0.3-1.5-0.9-2.9-1.9-4.1c0,0,0,0,0-0.1c0,0,0,0-0.1,0c0,0,0,0,0,0c-0.4,0.5-0.9,1-1.4,1.4
		c-1,0.9-2.2,1.5-3.4,2.1c-0.1,0-0.2,0.1-0.3,0.1c0,0-0.1,0,0,0.1c0,0,0,0,0,0c0.3,0.5,0.5,1.1,0.7,1.6c0.1,0.1,0,0.1,0.2,0.1
		c0.4-0.1,0.9-0.1,1.3-0.1c0.9,0,1.8,0,2.7,0.1c0.7,0.1,1.5,0.2,2.2,0.3c0,0,0.1,0,0.1,0c0,0,0.1,0,0.1,0
		C20.5,10.8,20.5,10.8,20.5,10.7z M16.4,12c-0.1,0-0.3,0-0.5,0c-0.2,0-0.4,0-0.6,0c-0.2,0-0.4,0-0.7,0.1c-0.1,0-0.1,0-0.1,0.1
		c0,0.1,0.1,0.3,0.1,0.4c0.7,2,1.3,4,1.6,6.1c0,0.1,0,0.1,0.1,0.1c0.6-0.4,1.2-1,1.7-1.6c1.1-1.3,1.9-2.8,2.2-4.5
		c0-0.2,0-0.2-0.1-0.2C19,12.2,17.7,12,16.4,12z"/>
</g>
</svg>
