<?xml version="1.0" encoding="utf-8"?>
<!-- Generator: Adobe Illustrator 21.0.0, SVG Export Plug-In . SVG Version: 6.00 Build 0)  -->
<svg version="1.1" id="graphics" xmlns="http://www.w3.org/2000/svg" xmlns:xlink="http://www.w3.org/1999/xlink" x="0px" y="0px"
	 viewBox="0 0 18.1 27" style="enable-background:new 0 0 18.1 27;" xml:space="preserve">
<style type="text/css">
	.st0{fill:#3FB66C;}
</style>
<g>
	<g>
		<path class="st0" d="M3114,3252.2c0-3.9,2.3-7.2,5.7-8.5c3.6-1.4,7.4-0.6,10.1,2.3c2.5,2.7,3.1,6.6,1.5,9.9
			c-1.9,4-3.8,8.1-5.7,12.1c-0.5,1.1-1.1,1.9-2.4,2c-1.3,0-2-0.8-2.5-1.9c-2-4.2-4-8.5-6-12.7
			C3114.1,3254.3,3114,3253.2,3114,3252.2z M3123,3247.9c-2.4,0-4.3,1.8-4.3,4.2c0,2.4,2,4.4,4.4,4.3c2.4,0,4.4-2,4.3-4.4
			C3127.4,3249.7,3125.4,3247.9,3123,3247.9z"/>
	</g>
</g>
<g>
	<g>
		<path class="st0" d="M0,9.2C0,5.3,2.3,2,5.7,0.7C9.3-0.7,13.1,0.1,15.7,3c2.5,2.7,3.1,6.6,1.5,9.9c-1.9,4-3.8,8.1-5.7,12.1
			c-0.5,1.1-1.1,1.9-2.4,2c-1.3,0-2-0.8-2.5-1.9c-2-4.2-4-8.5-6-12.7C0.1,11.3,0,10.2,0,9.2z M9,4.9C6.6,4.9,4.7,6.7,4.7,9
			c0,2.4,2,4.4,4.4,4.3c2.4,0,4.4-2,4.3-4.4C13.4,6.7,11.4,4.9,9,4.9z"/>
	</g>
</g>
</svg>
