<?xml version="1.0" encoding="utf-8"?>
<!-- Generator: Adobe Illustrator 21.0.0, SVG Export Plug-In . SVG Version: 6.00 Build 0)  -->
<svg version="1.1" id="graphics" xmlns="http://www.w3.org/2000/svg" xmlns:xlink="http://www.w3.org/1999/xlink" x="0px" y="0px"
	 viewBox="0 0 15.4 25.5" style="enable-background:new 0 0 15.4 25.5;" xml:space="preserve">
<style type="text/css">
	.st0{fill:#3FB66C;}
</style>
<g>
	<g>
		<path class="st0" d="M3111.3,3252.6c0-3.9,2.3-7.2,5.7-8.5c3.6-1.4,7.4-0.6,10.1,2.3c2.5,2.7,3.1,6.6,1.5,9.9
			c-1.9,4-3.8,8.1-5.7,12.1c-0.5,1.1-1.1,1.9-2.4,2c-1.3,0-2-0.8-2.5-1.9c-2-4.2-4-8.5-6-12.7
			C3111.4,3254.7,3111.2,3253.6,3111.3,3252.6z M3120.3,3248.3c-2.4,0-4.3,1.8-4.3,4.2c0,2.4,2,4.4,4.4,4.3c2.4,0,4.4-2,4.3-4.4
			C3124.7,3250.1,3122.7,3248.2,3120.3,3248.3z"/>
	</g>
</g>
<g>
	<g>
		<path class="st0" d="M15.4,12.8c0,3.3,0,6.6,0,9.9c0,1.7-1.1,2.9-2.9,2.9c-3.2-0.1-6.4,0-9.6,0c-1.7,0-2.7-1-2.8-2.6
			c0-0.1,0-0.2,0-0.4C0,16,0,9.6,0,3.1C0,1,1,0,3.1,0c3.2,0,6.3,0,9.5,0c1.4,0,2.5,0.8,2.7,2.1c0.1,0.3,0.1,0.5,0.1,0.8
			C15.4,6.2,15.4,9.5,15.4,12.8z M13.4,12.8c0-2.2,0-4.5,0-6.7c0-0.6-0.2-0.8-0.8-0.8c-3.2,0-6.5,0-9.7,0C2.2,5.2,2,5.4,2,6
			c0,4.5,0,9,0,13.5c0,0.7,0.2,0.9,0.9,0.9c3.2,0,6.4,0,9.6,0c0.7,0,0.9-0.2,0.9-0.9C13.4,17.2,13.4,15,13.4,12.8z M7.7,24.5
			c0.9,0,1.5-0.6,1.5-1.5c0-0.9-0.6-1.5-1.5-1.6c-0.8,0-1.6,0.7-1.6,1.5C6.1,23.8,6.8,24.5,7.7,24.5z M7.7,3.2c0.5,0,1,0,1.5,0
			c0.2,0,0.4,0,0.4-0.3c0-0.3-0.2-0.3-0.4-0.3c-0.9,0-1.9,0-2.8,0c-0.2,0-0.4,0-0.4,0.3c0,0.3,0.2,0.2,0.4,0.2
			C6.8,3.2,7.2,3.2,7.7,3.2z"/>
	</g>
</g>
</svg>
