<?xml version="1.0" encoding="utf-8"?>
<!-- Generator: Adobe Illustrator 21.0.0, SVG Export Plug-In . SVG Version: 6.00 Build 0)  -->
<svg version="1.1" xmlns="http://www.w3.org/2000/svg" xmlns:xlink="http://www.w3.org/1999/xlink" x="0px" y="0px"
	 viewBox="0 0 40.8 34.7" style="enable-background:new 0 0 40.8 34.7;" xml:space="preserve">
<style type="text/css">
	.st0{fill:#3FB66D;}
	.st1{fill:#FFFFFF;}
</style>
<g id="Layer_1">
</g>
<g id="graphics">
	<g>
		<path class="st0" d="M36.8,20.6H8.2c-0.2,0-0.5-0.2-0.5-0.5v-5.8c0-0.2,0.2-0.5,0.5-0.5h28.6c0.2,0,0.5,0.2,0.5,0.5v5.8
			C37.3,20.4,37.1,20.6,36.8,20.6z"/>
		<path class="st0" d="M8.9,18.5H0.5C0.2,18.5,0,18.3,0,18v-5.8c0-0.2,0.2-0.5,0.5-0.5h8.4c0.2,0,0.5,0.2,0.5,0.5V18
			C9.3,18.3,9.1,18.5,8.9,18.5z"/>
		<path class="st0" d="M36.2,34.7H0.9c-0.5,0-0.9-0.4-0.9-0.9l0-17.5c0-0.5,0.4-0.9,0.9-0.9h35.4c0.5,0,0.9,0.4,0.9,0.9v17.5
			C37.1,34.3,36.7,34.7,36.2,34.7z"/>
		<path class="st1" d="M37.7,33.3H2.4c-0.5,0-0.9-0.4-0.9-0.9V15.8c0-0.5,0.4-0.9,0.9-0.9h35.4c0.5,0,0.9,0.4,0.9,0.9v16.7
			C38.6,33,38.2,33.3,37.7,33.3z"/>
		<g>
			
				<rect x="13.1" y="7.7" transform="matrix(0.9703 -0.2419 0.2419 0.9703 -4.3172 4.5582)" class="st0" width="6.6" height="24.3"/>
			<rect x="14.4" y="8.1" transform="matrix(0.9703 -0.2419 0.2419 0.9703 -4.446 4.2227)" class="st0" width="1.1" height="24.3"/>
			<polygon class="st0" points="11.9,1.7 10.1,8 16.4,6.4 			"/>
			<polygon class="st0" points="11.9,1.7 10.1,8 16.4,6.4 			"/>
		</g>
		<g>
			<path class="st0" d="M25.9,33.4l-4.8-1.5c-0.3-0.1-0.4-0.4-0.3-0.6l9.6-30.9c0.1-0.3,0.4-0.4,0.6-0.3l4.8,1.5
				c0.3,0.1,0.4,0.4,0.3,0.6l-9.6,30.9C26.5,33.3,26.2,33.5,25.9,33.4z"/>
			<g>
				<path class="st1" d="M35.5,4.4l-2.7-0.9c-0.1,0-0.1,0-0.1,0.1l-0.2,0.6c0,0.1,0,0.1,0.1,0.1l2.7,0.9c0.1,0,0.1,0,0.1-0.1
					l0.2-0.6C35.6,4.5,35.6,4.4,35.5,4.4z"/>
			</g>
			<g>
				<path class="st1" d="M34.8,6.8L32,5.9c-0.1,0-0.1,0-0.1,0.1l-0.2,0.6c0,0.1,0,0.1,0.1,0.1l2.7,0.9c0.1,0,0.1,0,0.1-0.1l0.2-0.6
					C34.8,6.9,34.8,6.8,34.8,6.8z"/>
			</g>
			<g>
				<path class="st1" d="M34,9.2l-2.7-0.9c-0.1,0-0.1,0-0.1,0.1L31,8.9c0,0.1,0,0.1,0.1,0.1l2.7,0.9c0.1,0,0.1,0,0.1-0.1l0.2-0.6
					C34.1,9.2,34.1,9.2,34,9.2z"/>
			</g>
			<g>
				<path class="st1" d="M33.3,11.5l-2.7-0.9c-0.1,0-0.1,0-0.1,0.1l-0.2,0.6c0,0.1,0,0.1,0.1,0.1l2.7,0.9c0.1,0,0.1,0,0.1-0.1
					l0.2-0.6C33.4,11.6,33.3,11.6,33.3,11.5z"/>
			</g>
			<g>
				<path class="st1" d="M32.5,13.9l-2.7-0.9c-0.1,0-0.1,0-0.1,0.1l-0.2,0.6c0,0.1,0,0.1,0.1,0.1l2.7,0.9c0.1,0,0.1,0,0.1-0.1
					l0.2-0.6C32.6,14,32.6,13.9,32.5,13.9z"/>
			</g>
			<g>
				<path class="st1" d="M31.8,16.3L29,15.5c-0.1,0-0.1,0-0.1,0.1l-0.2,0.6c0,0.1,0,0.1,0.1,0.1l2.7,0.9c0.1,0,0.1,0,0.1-0.1
					l0.2-0.6C31.9,16.4,31.8,16.3,31.8,16.3z"/>
			</g>
			<g>
				<path class="st1" d="M31,18.7l-2.7-0.9c-0.1,0-0.1,0-0.1,0.1L28,18.5c0,0.1,0,0.1,0.1,0.1l2.7,0.9c0.1,0,0.1,0,0.1-0.1l0.2-0.6
					C31.1,18.8,31.1,18.7,31,18.7z"/>
			</g>
			<g>
				<path class="st1" d="M30.3,21.1l-2.7-0.9c-0.1,0-0.1,0-0.1,0.1l-0.2,0.6c0,0.1,0,0.1,0.1,0.1l2.7,0.9c0.1,0,0.1,0,0.1-0.1
					l0.2-0.6C30.4,21.2,30.4,21.1,30.3,21.1z"/>
			</g>
			<g>
				<path class="st1" d="M29.5,23.5l-2.7-0.9c-0.1,0-0.1,0-0.1,0.1l-0.2,0.6c0,0.1,0,0.1,0.1,0.1l2.7,0.9c0.1,0,0.1,0,0.1-0.1
					l0.2-0.6C29.6,23.6,29.6,23.5,29.5,23.5z"/>
			</g>
			<g>
				<path class="st1" d="M28.8,25.9L26.1,25c-0.1,0-0.1,0-0.1,0.1l-0.2,0.6c0,0.1,0,0.1,0.1,0.1l2.7,0.9c0.1,0,0.1,0,0.1-0.1
					l0.2-0.6C28.9,26,28.9,25.9,28.8,25.9z"/>
			</g>
			<g>
				<path class="st1" d="M28.1,28.2l-2.7-0.9c-0.1,0-0.1,0-0.1,0.1L25,28c0,0.1,0,0.1,0.1,0.1l2.7,0.9c0.1,0,0.1,0,0.1-0.1l0.2-0.6
					C28.2,28.3,28.1,28.3,28.1,28.2z"/>
			</g>
			<g>
				<path class="st1" d="M27.3,30.6l-2.7-0.9c-0.1,0-0.1,0-0.1,0.1l-0.2,0.6c0,0.1,0,0.1,0.1,0.1l2.7,0.9c0.1,0,0.1,0,0.1-0.1
					l0.2-0.6C27.4,30.7,27.4,30.7,27.3,30.6z"/>
			</g>
		</g>
		<path class="st0" d="M35.8,34.7H3.6c-1.1,0-1.8-0.9-1.6-2l2.6-15.2c0.2-1.1,1.2-2,2.3-2h32.3c1.1,0,1.8,0.9,1.6,2l-2.6,15.2
			C37.9,33.8,36.9,34.7,35.8,34.7z"/>
	</g>
</g>
</svg>
