<?xml version="1.0" encoding="utf-8"?>
<!-- Generator: Adobe Illustrator 21.0.0, SVG Export Plug-In . SVG Version: 6.00 Build 0)  -->
<svg version="1.1" xmlns="http://www.w3.org/2000/svg" xmlns:xlink="http://www.w3.org/1999/xlink" x="0px" y="0px"
	 viewBox="0 0 360 360" style="enable-background:new 0 0 360 360;" xml:space="preserve">
<style type="text/css">
	.st0{fill:#010101;}
</style>
<g id="Layer_1">
</g>
<g id="graphics">
	<g>
		<path class="st0" d="M84.7,103.5V118H51.2v-14.6c0-3.5,2.8-6.3,6.3-6.3h20.9C81.9,97.2,84.7,100,84.7,103.5z M51.2,271.8
			l11.2,20.6c1.7,3,5.5,4.2,8.5,2.5c1.1-0.6,1.9-1.5,2.5-2.5l11.2-20.6V136.9H51.2V271.8z M258.5,65v49.5h40.7L258.5,65z
			 M249.1,133.3c-5.2,0-9.4-4.2-9.4-9.4V48.2H115.2c-3.5,0-6.3,2.8-6.3,6.3v252.1c0,3.5,2.8,6.3,6.3,6.3h188.2
			c3.5,0,6.3-2.8,6.3-6.3V133.3H249.1z"/>
	</g>
</g>
</svg>
