<?xml version="1.0" encoding="utf-8"?>
<!-- Generator: Adobe Illustrator 21.0.0, SVG Export Plug-In . SVG Version: 6.00 Build 0)  -->
<svg version="1.1" xmlns="http://www.w3.org/2000/svg" xmlns:xlink="http://www.w3.org/1999/xlink" x="0px" y="0px"
	 viewBox="0 0 28.5 29.2" style="enable-background:new 0 0 28.5 29.2;" xml:space="preserve">
<style type="text/css">
	.st0{fill:#3FB66C;}
</style>
<g id="Layer_1">
</g>
<g id="graphics">
	<g>
		<g>
			<path class="st0" d="M3.7,6.1v1.6H0V6.1c0-0.4,0.3-0.7,0.7-0.7H3C3.4,5.4,3.7,5.7,3.7,6.1z M0,24.6l1.2,2.3
				c0.2,0.3,0.6,0.5,0.9,0.3c0.1-0.1,0.2-0.2,0.3-0.3l1.2-2.3V9.8H0V24.6z M22.9,1.9v5.5h4.5L22.9,1.9z M21.8,9.4c-0.6,0-1-0.5-1-1
				V0H7.1C6.7,0,6.4,0.3,6.4,0.7v27.8c0,0.4,0.3,0.7,0.7,0.7h20.7c0.4,0,0.7-0.3,0.7-0.7V9.4H21.8z"/>
		</g>
	</g>
</g>
</svg>
