<?xml version="1.0" encoding="utf-8"?>
<!-- Generator: Adobe Illustrator 21.0.0, SVG Export Plug-In . SVG Version: 6.00 Build 0)  -->
<svg version="1.1" xmlns="http://www.w3.org/2000/svg" xmlns:xlink="http://www.w3.org/1999/xlink" x="0px" y="0px"
	 viewBox="0 0 360 360" style="enable-background:new 0 0 360 360;" xml:space="preserve">
<style type="text/css">
	.st0{fill:#010101;}
	.st1{fill:#FFFFFF;}
</style>
<g id="Layer_1">
</g>
<g id="text">
	<g>
		<path class="st0" d="M201.5,156.5H192h-52.5H127H38.6v81c0,9.1,7.2,16.5,16,16.5h222.3c8.8,0,16-7.4,16-16.5v-81H201.5z"/>
		<path class="st0" d="M276.9,108.1h-72.6c-1.8-14.7-18.4-26.3-38.6-26.3c-20.2,0-36.8,11.5-38.6,26.3H54.6c-8.8,0-16,9.2-16,20.4
			v17.2h254.2v-17.2C292.9,117.3,285.7,108.1,276.9,108.1z M165.8,93.3c11.7,0,21.4,6.4,23.1,14.8h-46.2
			C144.4,99.7,154,93.3,165.8,93.3z"/>
		<circle class="st1" cx="271.2" cy="229.1" r="50"/>
		<path class="st0" d="M271.2,189c-22.1,0-40,17.9-40,40c0,22.1,17.9,40,40,40s40-17.9,40-40C311.2,207,293.3,189,271.2,189z
			 M271.2,261.6c-18,0-32.5-14.6-32.5-32.5s14.6-32.5,32.5-32.5s32.5,14.6,32.5,32.5S289.2,261.6,271.2,261.6z"/>
		<path class="st0" d="M265.5,206.5h8.7c0.1,0,0.2,0.1,0.2,0.2v30.4c0,0.1-0.1,0.2-0.2,0.2h-8.7c-0.1,0-0.2-0.1-0.2-0.2v-30.4
			C265.3,206.6,265.4,206.5,265.5,206.5z"/>
		<path class="st0" d="M287.4,245.3l-5.9,6.5c-0.1,0.1-0.2,0.1-0.2,0l-15.9-14.4c-0.1-0.1-0.1-0.2,0-0.2l5.9-6.5
			c0.1-0.1,0.2-0.1,0.2,0l15.9,14.4C287.5,245.1,287.5,245.2,287.4,245.3z"/>
	</g>
</g>
</svg>
