<?xml version="1.0" encoding="utf-8"?>
<!-- Generator: Adobe Illustrator 21.0.0, SVG Export Plug-In . SVG Version: 6.00 Build 0)  -->
<svg version="1.1" xmlns="http://www.w3.org/2000/svg" xmlns:xlink="http://www.w3.org/1999/xlink" x="0px" y="0px"
	 viewBox="0 0 77.3 53.9" style="enable-background:new 0 0 77.3 53.9;" xml:space="preserve">
<style type="text/css">
	.st0{fill:#3FB66D;}
	.st1{fill:#FFFFFF;}
</style>
<g id="Layer_1">
</g>
<g id="text">
	<g>
		<path class="st0" d="M44.5,20.4h-2.6H27.6h-3.4H0v22.2c0,2.5,2,4.5,4.4,4.5h60.8c2.4,0,4.4-2,4.4-4.5V20.4H44.5z"/>
		<path class="st0" d="M65.2,7.2H45.3c-0.5-4-5-7.2-10.6-7.2c-5.5,0-10.1,3.2-10.6,7.2H4.4C2,7.2,0,9.7,0,12.8v4.7h69.5v-4.7
			C69.5,9.7,67.6,7.2,65.2,7.2z M34.8,3.1c3.2,0,5.9,1.8,6.3,4H28.4C28.9,4.9,31.6,3.1,34.8,3.1z"/>
		<circle class="st1" cx="63.6" cy="40.3" r="13.7"/>
		<path class="st0" d="M63.6,29.3c-6,0-10.9,4.9-10.9,10.9c0,6,4.9,10.9,10.9,10.9s10.9-4.9,10.9-10.9
			C74.5,34.2,69.6,29.3,63.6,29.3z M63.6,49.2c-4.9,0-8.9-4-8.9-8.9s4-8.9,8.9-8.9s8.9,4,8.9,8.9S68.5,49.2,63.6,49.2z"/>
		<path class="st0" d="M62.2,34.1h2.2c0.1,0,0.2,0.1,0.2,0.2v8.1c0,0.1-0.1,0.2-0.2,0.2h-2.2c-0.1,0-0.2-0.1-0.2-0.2v-8.1
			C62,34.2,62.1,34.1,62.2,34.1z"/>
		<path class="st0" d="M68,44.8l-1.4,1.6c-0.1,0.1-0.2,0.1-0.2,0l-4.2-3.8c-0.1-0.1-0.1-0.2,0-0.2l1.4-1.6c0.1-0.1,0.2-0.1,0.2,0
			l4.2,3.8C68,44.6,68,44.7,68,44.8z"/>
	</g>
</g>
</svg>
