<?xml version="1.0" encoding="UTF-8"?><svg id="Layer_2" xmlns="http://www.w3.org/2000/svg" xmlns:xlink="http://www.w3.org/1999/xlink" viewBox="0 0 271.55 631.77"><defs><style>.cls-1{stroke-dasharray:0 0 1.02 1.02;}.cls-1,.cls-2,.cls-3,.cls-4,.cls-5,.cls-6{stroke-miterlimit:10;}.cls-1,.cls-2,.cls-5,.cls-6{fill:none;}.cls-1,.cls-3,.cls-4,.cls-6{stroke:#f2eeeb;}.cls-1,.cls-6{stroke-width:.5px;}.cls-7{fill:url(#linear-gradient);}.cls-8{opacity:.05;}.cls-9{opacity:.05;}.cls-2{stroke:#ffd7ab;stroke-width:.42px;}.cls-2,.cls-10,.cls-11,.cls-12,.cls-13,.cls-14{isolation:isolate;}.cls-2,.cls-10,.cls-11,.cls-12,.cls-13,.cls-14,.cls-15,.cls-16,.cls-17{opacity:.5;}.cls-3{stroke-width:.31px;}.cls-3,.cls-4{fill:#f2e9e4;}.cls-18{fill:#f4d8ab;}.cls-19{fill:#f2eeeb;}.cls-20{fill:#f9ebaa;}.cls-21{fill:#fc3d3d;}.cls-22{fill:#002f68;}.cls-23{fill:#ffdcdc;}.cls-24{fill:#f4e49d;}.cls-25{fill:#f4f4f4;}.cls-26{fill:#fff;}.cls-27{fill:#ffe600;}.cls-28{fill:#fffbf8;}.cls-29{fill:#fff800;}.cls-30{fill:#ffda00;}.cls-31{fill:#ffb966;}.cls-32{fill:#ffc5c5;}.cls-33{fill:#ff0031;}.cls-34{fill:#efefef;}.cls-35{fill:#e5c79c;}.cls-36{fill:#fcf4c8;}.cls-37{fill:#f66;}.cls-38{fill:#ff7d9c;}.cls-39{fill:#934d19;}.cls-40,.cls-41{fill:#b76f3e;}.cls-42,.cls-13{fill:#b76c39;}.cls-43{fill:#cebe7c;}.cls-44{fill:#cebc72;}.cls-45{fill:#bc7439;}.cls-46{fill:#d8d8d8;}.cls-47{fill:#c9c9c9;}.cls-48,.cls-49{fill:#ddcf97;}.cls-50{fill:#d3b390;}.cls-51{fill:#e2d391;}.cls-52{fill:#c9804f;}.cls-53{fill:#094682;}.cls-54{fill:#707070;}.cls-55{fill:#2d2d2d;}.cls-56{fill:#353535;}.cls-57{fill:#472a17;}.cls-10{fill:#f2a857;}.cls-11{fill:#fff9de;}.cls-12{fill:#fff6c2;}.cls-14{fill:#f9f9f9;}.cls-4,.cls-5{stroke-width:.25px;}.cls-5{stroke:#d1b388;stroke-dasharray:0 3;}.cls-58{fill:#af7045;opacity:.2;}.cls-59{fill:url(#linear-gradient-3);}.cls-60{fill:url(#linear-gradient-2);}.cls-61{opacity:.25;}.cls-16{fill:#72492d;}.cls-17{fill:#d6bc96;}.cls-49{opacity:.7;}.cls-41,.cls-62{opacity:.3;}.cls-62{fill:#9b613a;}</style><linearGradient id="linear-gradient" x1="112.4" y1="343.79" x2="133.13" y2="343.79" gradientTransform="translate(0 -286)" gradientUnits="userSpaceOnUse"><stop offset=".34" stop-color="#0f0503"/><stop offset=".45" stop-color="#0f0503"/></linearGradient><linearGradient id="linear-gradient-2" x1="101.28" y1="343.96" x2="104.64" y2="343.96" xlink:href="#linear-gradient"/><linearGradient id="linear-gradient-3" x1="228.51" y1="628.74" x2="218.44" y2="585.12" gradientTransform="translate(-2.6 -583.67) rotate(5.18)" gradientUnits="userSpaceOnUse"><stop offset="0" stop-color="#000" stop-opacity="0"/><stop offset=".48" stop-color="#000"/></linearGradient></defs><g id="Layer_1-2"><g><path class="cls-4" d="M239.38,615.92c2.34-.22,2.66,.63,2.66,.63,0,0,2,5.6,0,6.6s-9,2-16,3-26,2-33.07,2h-22.93c-7,0-19.5-1.5-19.5-1.5l.5-3.5s.5-1.5,3.5-1.5"/><path class="cls-28" d="M188.82,600.22s-7.02,2.46-16.85,9.48c-9.83,7.02-14.75,5.62-16.15,7.72s-2.27,5.22-2.27,5.22c0,0,31.36,3.21,57.89,.4,26.54-2.81,30.11-6.4,30.11-6.4,0,0,0-17-2-26-1.84-8.28-50.72,9.57-50.72,9.57Z"/><path class="cls-19" d="M172.55,608.65s5,0,6,3,2,2,2,2c0,0,.35-6.36-5.32-6.18"/><path class="cls-19" d="M176.55,606.65s5,0,6,3,2,2,2,2c0,0,.35-6.36-5.32-6.18"/><path class="cls-19" d="M179.55,604.65s5,0,6,3,2,2,2,2c0,0,.35-6.36-5.32-6.18"/><path class="cls-19" d="M183.55,602.65s5,0,6,3,2,2,2,2c0,0,.35-6.36-5.32-6.18"/><g><path class="cls-6" d="M167.05,613.15s.16,.07,.45,.21"/><path class="cls-1" d="M168.42,613.78c1.29,.6,3.3,1.53,5.12,2.42,3,1.45,14-1.55,19-4.55s11.78-1.68,12.89,.16c.89,1.48,3.08,7.99,3.9,10.46"/><path class="cls-6" d="M209.5,622.75c.1,.3,.15,.47,.15,.47"/></g></g><path class="cls-3" d="M199.55,598.42s17.18,7.23,27.57,4.73,13.43-7.5,13.43-7.5l-41,2.77Z"/><g><path class="cls-4" d="M136.38,619.42c2.34-.22,2.66,.63,2.66,.63,0,0,2,5.6,0,6.6s-9,2-16,3-26,2-33.07,2h-22.93c-7,0-19.5-1.5-19.5-1.5l.5-3.5s.5-1.5,3.5-1.5"/><path class="cls-28" d="M85.82,603.72s-7.02,2.46-16.85,9.48c-9.83,7.02-14.75,5.62-16.15,7.72s-2.27,5.22-2.27,5.22c0,0,31.36,3.21,57.89,.4,26.54-2.81,30.11-6.4,30.11-6.4,0,0,0-17-2-26-1.84-8.28-50.72,9.57-50.72,9.57Z"/><path class="cls-19" d="M69.55,612.15s5,0,6,3,2,2,2,2c0,0,.35-6.36-5.32-6.18"/><path class="cls-19" d="M73.55,610.15s5,0,6,3,2,2,2,2c0,0,.35-6.36-5.32-6.18"/><path class="cls-19" d="M76.55,608.15s5,0,6,3,2,2,2,2c0,0,.35-6.36-5.32-6.18"/><path class="cls-19" d="M80.55,606.15s5,0,6,3,2,2,2,2c0,0,.35-6.36-5.32-6.18"/><g><path class="cls-6" d="M64.05,616.65s.16,.07,.45,.21"/><path class="cls-1" d="M65.42,617.28c1.29,.6,3.3,1.53,5.12,2.42,3,1.45,14-1.55,19-4.55s11.78-1.68,12.89,.16c.89,1.48,3.08,7.99,3.9,10.46"/><path class="cls-6" d="M106.5,626.25c.1,.3,.15,.47,.15,.47"/></g></g><path class="cls-3" d="M96.55,601.92s17.18,7.23,27.57,4.73,13.43-7.5,13.43-7.5l-41,2.77Z"/><path class="cls-18" d="M235.43,382.15s6.23,179.96,9.34,188.48,5.78,22.52,5.78,22.52v7.63l-85.95,5.37v-14.81l1.78-4.19-3.56-2,4.45-6-6.23-7,3.56-12-3.05-208.5-21.29,150.33,4.29,102.67-79,1.5,23.12-222,146.75-2Z"/><path class="cls-35" d="M167.55,579.65l-2,3c5.21,1,34,4,34,4,0,0-27-4-32-7Z"/><polygon class="cls-35" points="140.26 501.97 133.55 520.65 140.26 506.34 140.26 501.97"/><polygon class="cls-35" points="166.55 587.65 182.55 588.65 165.55 589.65 166.55 587.65"/><path class="cls-35" d="M164.55,557.83l3,4.82s3,4,4,4,4.48-1,5.24,0,5.76,7,5.76,7c0,0-6-6-7-6h-3c-1,0-4-2-5-3s-3-3-3-3.5v-3.31Z"/><path class="cls-50" d="M202.03,396.94s14.51,6.7,25.51,6.7h3.23"/><path class="cls-50" d="M120.55,396.94s-14.51,6.7-25.51,6.7h-3.23"/><polygon class="cls-35" points="166.05 560.24 164.55 501.62 163.68 497.65 164.6 560.15 166.05 560.24"/><polygon class="cls-35" points="66.99 592.25 68.27 587.65 91.51 589.65 66.99 592.25"/><polygon class="cls-17" points="137.83 397.08 140.55 391.65 87.61 394.57 87.03 399.87 133.48 397.83 132.55 402.65 153.81 403.65 155.55 397.65 137.83 397.08"/><path class="cls-44" d="M57.5,279.86s18.05,4.79,34.05,8.79-3.23-16.42-3.23-16.42c0,0-27.87,2.85-30.82,7.64Z"/><path class="cls-52" d="M92.55,267.65l2,7-22,60-16-11,14.82-51.13-.82-.87s1.95-1.21,10-3c9-2,12-1,12-1Z"/><polyline class="cls-52" points="59.81 315.59 55.74 329.85 52.96 336.55 73.59 336.14 75.04 326.67"/><g><path class="cls-45" d="M27.69,343.93s-2.82,5.02-10.4,3.89c-7.26-1-10.7-3.7-16.27-11.38,0,0,6.88,4.65,12.03,.43,3.74-3.05,11.35-2.76,15.29,1.26"/><path class="cls-31" d="M99.74,337.77l-.6-5.87s-1.09-1.99-37.05,.85c-31.89,2.6-34.2,4.91-34.2,4.91l.6,5.87s4.2,1.96,34.46-1.01c34.67-3.34,36.78-4.75,36.78-4.75Z"/><path class="cls-10" d="M29.17,343.45l-.3-2.98,69.74-6.46,.37,3.74s-2.1,1.33-36.11,4.75c-29.58,2.89-33.7,.94-33.7,.94Z"/><g class="cls-61"><path class="cls-39" d="M1.15,336.71s.29,.37,.89,.95,1.51,1.37,2.65,2.27c2.21,1.79,5.27,4.11,8.8,5.4,1.77,.64,3.65,1.05,5.4,1.1s3.41-.41,4.72-.83c1.41-.49,2.41-1.12,3.12-1.45s1.18-.69,1.18-.69c0,0-.37,.29-1.1,.7-.71,.33-1.73,1.04-3.13,1.53s-2.99,1.05-4.74,1c-1.77,.03-3.73-.39-5.5-.95-3.6-1.38-6.67-3.7-8.78-5.56-1.15-.9-2.04-1.77-2.65-2.27-.57-.83-.86-1.2-.86-1.2Z"/></g><g class="cls-61"><path class="cls-39" d="M1.32,336.65s.39,.22,.99,.8c.61,.5,1.62,1.13,2.8,1.78,2.44,1.32,5.76,2.91,9.43,3.79,1.79,.48,3.51,.78,5.26,.92,1.75,.14,3.24-.43,4.55-.77,2.63-.84,4.46-1.45,4.46-1.45,0,0-1.67,.63-4.3,1.47-1.23,.43-2.82,1.07-4.58,1.02-1.75-.14-3.55-.45-5.42-.94-3.58-.87-6.98-2.56-9.42-3.88-1.18-.65-2.17-1.45-2.8-1.78-.58-.74-.97-.96-.97-.96Z"/></g><g class="cls-61"><path class="cls-39" d="M2.69,337.75s1.58,.79,3.9,1.67c2.41,.89,5.74,1.73,9.12,2.24,1.72,.3,3.41,.26,4.96-.04,1.55-.31,3.08-.45,4.34-.46,1.35-.08,2.28-.13,3.11-.03,.76-.07,1.18-.02,1.18-.02,0,0-.41-.05-1.18,.02s-1.85,.02-3.12,.11c-1.35,.08-2.8,.23-4.35,.54-1.55,.31-3.32,.34-5.06,.2-3.47-.44-6.79-1.45-9.11-2.33-1.2-.49-2.24-.87-2.86-1.29-.44-.48-.93-.62-.93-.62Z"/></g><g class="cls-61"><path class="cls-39" d="M27.55,337.7s.01-.08-.22-.28c-.07-.09-.37-.38-.7-.42-.72-.26-1.68-.63-2.99-.88-1.3-.33-2.7-.59-4.38-.55-1.52,.06-3.24,.43-4.79,1.33-1.52,.73-2.99,1.72-4.61,1.94-.78,.15-1.53,.14-2.26-.03-.74-.09-1.39-.26-2.04-.43-1.3-.33-2.27-.62-2.89-1.04s-1.01-.63-1.01-.63c0,0,.3,.29,1.01,.63,.62,.41,1.67,.72,2.9,.95,.65,.17,1.31,.25,2.06,.34,.73,.18,1.5,.11,2.2-.14,1.56-.39,3.01-1.21,4.47-2.12,1.53-.81,3.17-1.19,4.87-1.32,1.67,.04,3.07,.3,4.37,.64s2.27,.62,2.98,.97c.32,.12,.64,.25,.7,.42,.26,.62,.34,.63,.34,.63Z"/></g><g class="cls-61"><path class="cls-39" d="M27.12,337.81s-.32-.12-.97-.29-1.63-.37-2.7-.59c-1.07-.14-2.5-.15-3.87,.1-.68,.08-1.45,.15-2.22,.31-.76,.07-1.47,.32-2.17,.56-1.41,.49-2.82,1.07-4.22,1.48-1.38,.33-2.8,.23-3.87,.1-1.06-.22-2.01-.67-2.56-1-.62-.41-.86-.53-.86-.53,0,0,.3,.29,.86,.53,.64,.25,1.51,.69,2.57,.91s2.49,.23,3.88-.18c1.4-.41,2.72-.92,4.22-1.48,.7-.25,1.51-.65,2.25-.55,.76-.07,1.45-.15,2.21-.22,1.45-.15,2.78-.07,3.94,.08,1.07,.14,2.04,.43,2.7,.59,.41,.05,.82,.19,.82,.19Z"/></g><g class="cls-61"><path class="cls-39" d="M3.88,338.32s.4,.13,1.03,.47c.72,.26,1.67,.72,2.97,1.05,1.3,.33,2.78,.6,4.39,.47,1.53-.14,3.29-.76,4.87-1.32,1.57-.47,3.4-1,5.07-.95,1.67,.04,3.14,.4,4.34,.88,1.29,.42,2.23,.95,2.85,1.37,.62,.41,1.01,.63,1.01,.63,0,0-.3-.29-1.01-.63-.62-.41-1.66-.8-2.86-1.29-1.29-.42-2.66-.84-4.36-.72-1.67-.04-3.33,.42-4.91,.97s-3.33,1.09-4.95,1.3c-1.69,.12-3.18-.07-4.46-.56-1.3-.33-2.25-.79-2.97-1.05-.61-.5-1.01-.63-1.01-.63Z"/></g><g class="cls-61"><path class="cls-39" d="M7.56,339.79s.32,.12,.97,.29,1.48,.27,2.64,.33c1.1-.03,2.43,.06,3.77,.06s2.8-.23,4.27-.55c1.47-.32,2.92-.55,4.34-.46,1.43,.01,2.64,.33,3.69,.72,1.05,.3,1.93,.66,2.57,.91s.97,.29,.97,.29c0,0-.32-.12-.97-.29s-1.46-.44-2.58-.83c-1.05-.3-2.36-.55-3.71-.55-1.43-.01-2.79,.15-4.26,.47s-2.92,.55-4.35,.54c-1.43-.01-2.58-.16-3.76-.14-1.07-.14-1.99-.17-2.64-.33-.63-.33-.95-.46-.95-.46Z"/></g><g class="cls-61"><path class="cls-39" d="M1.6,337.1s1.45,1.11,3.79,2.58c1.17,.74,2.57,1.58,4.15,2.37s3.23,1.67,4.92,2.22c1.68,.63,3.52,.7,5.31,.5,1.79-.19,3.31-.25,4.68-.5,1.38-.33,2.32-1.05,3.03-1.38,.71-.33,1.15-.44,1.15-.44,0,0-.42,.03-1.15,.44s-1.65,1.13-3.04,1.46c-1.38,.33-3,.46-4.7,.66-1.79,.19-3.64,.21-5.48-.44-1.77-.64-3.51-1.45-4.92-2.22-1.58-.79-2.89-1.71-4.06-2.44-2.3-1.72-3.67-2.82-3.67-2.82Z"/></g><g class="cls-61"><path class="cls-39" d="M2.87,337.68s1.56,.95,3.94,2.01c2.37,1.14,5.72,2.57,9.26,3.1,1.72,.3,3.47,.44,5.16,.32,1.68-.04,3.24-.43,4.45-.7,1.38-.33,2.34-.54,3.11-.7,.78-.15,1.2-.18,1.2-.18,0,0-.42,.03-1.2,.18s-1.81,.36-3.11,.7-2.78,.74-4.46,.78c-1.69,.12-3.52-.03-5.25-.33-3.54-.53-6.87-2.13-9.23-3.35-1.19-.57-2.2-1.2-2.84-1.45-.72-.26-1.04-.38-1.04-.38Z"/></g><path class="cls-47" d="M27.38,337.09c.26-.05,.44-.2,.69-.16,.69-.16,1.47-.32,2.16-.48,.78-.15,.86-.14,.9,.2,.15,1.45,.31,2.89,.46,4.34,.14,.86,.12,1.69,.26,2.55,.04,.34-.04,.33-.81,.4s-1.44,.07-2.2,.14c-1.11,.11-1.18,.02-1.22-.32-.18-1.87-.21-3.64-.31-5.5,.03-.25,0-.59-.07-.76s-.05-.26,.13-.4Z"/><path class="cls-33" d="M18.39,345.78c-.65-1.51-1.91-1.5-1.32-4.2s.87-2.91,.71-4.95c-.08-.68-.37-1.05-.75-1.35-1.47,.32-2.8,.9-3.91,1.69-5.15,4.22-12.03-.43-12.03-.43,5.66,7.68,9.11,10.3,16.27,11.38l1.4,.18c-.06-.85-.04-1.68-.38-2.31Z"/><path class="cls-38" d="M2.09,337.25s.86,.53,2.15,.94c1.29,.42,3.07,.98,4.86,.7,.85-.06,1.8-.28,2.51-.61,.71-.33,1.3-1.01,1.85-1.36s1.1-.7,1.52-.73,.68-.08,.68-.08c0,0-.25-.03-.53,.19-.34,.04-.89,.39-1.36,.83-.55,.35-1.04,.96-1.86,1.44-.81,.4-1.67,.63-2.61,.76-.86,.14-1.85,.02-2.75-.18s-1.62-.46-2.25-.79c-1.44-.6-2.21-1.12-2.21-1.12Z"/><path class="cls-2" d="M31.27,336.83s12.71-2.25,30.02-3.67c11.19-.85,24.25-1.89,37.25-1.16"/></g><path class="cls-52" d="M59.88,345.1s.97,2.66,4.76,3.29,5.93-1.13,5.93-1.13c0,0,5.17-5.37,3.56-8.33s-5.52-2.09-6.73,.57-2.83,4.21-3.78,4.64"/><path class="cls-52" d="M58.55,316.65c-1.18,6.65-3.65,11.92-7.76,13.25s-5.92,2.36-5.36,4.53c.59,2,3.52,1.37,3.52,1.37l8.77-1.66s4.75-1.08,4.88-5.43"/><path class="cls-40" d="M67.81,338.6s2.35,2.1-.2,5.83-3.71,3.73-3.71,3.73l3.9-9.56Z"/><path class="cls-52" d="M54,345.48s.97,2.66,4.76,3.29c3.79,.62,5.93-1.13,5.93-1.13,0,0,5.17-5.37,3.56-8.33s-5.52-2.09-6.73,.57-2.83,4.21-3.78,4.64"/><path class="cls-40" d="M62.46,339.7s.6,.88,.46,1.62c-.05,.66-.57,2.04-1.93,3.44s-2.57,2.98-4.42,3.17l-.16-.1s5.14-4.95,5.48-6.1,.48-1.97,.48-1.97l.09-.08Z"/><path class="cls-52" d="M47.46,343.65s.45,2.79,4.12,4.07,6.02-.12,6.02-.12c0,0,6.1-4.38,4.93-7.64s-5.03-3.06-6.72-.6-3.54,3.66-4.56,3.91"/><path class="cls-33" d="M2.86,338.44s.36,6.43-1.14,9.01c-1.09,1.96-1.74,4.48-.66,5.21,1.62,1.13,1.28-2.19,1.45-2.84,.17-.65-.5,5.98-.71,8.3-.21,2.32-1.06,3.06-.97,5,.18,1.87,1.09,1.99,1.62,1.8,.44-.2,.91-.56,.91-4.5,.08-3.94,.81-9.72,.66-14.52s.09-5.36-.11-6.39"/><path class="cls-33" d="M1.91,373.83S-.03,377.2,0,378.29c.11,1.11,.76,1.94,1.57,1.54,1.03-.21,1.9-1.77,.34-6Z"/><path class="cls-24" d="M128.55,137.65s5.74-2.92,7.87-2.46-1.38,1.82-1.38,1.82c0,0-2.49,.65-2.49,1.65"/><path class="cls-43" d="M187.95,135.2s-1.47-1.55-9.84-1.55-40.81,0-47.09,4.56,51.27,3.42,51.27,3.42l5.66-6.43Z"/><polygon class="cls-43" points="132.77 138.68 139.55 138.28 137.55 142.65 132.27 141.65 132.77 138.68"/><path class="cls-24" d="M190.42,136.41s-2.87-3.77-12.87-2.77,3.37,1.12,3.37,1.12c0,0,5.63-.12,7.63,1.88"/><polyline class="cls-52" points="133.55 141.65 152.55 222.65 182.55 141.65"/><path class="cls-46" d="M133.27,147.35c3.3,5.63,8.69,10.12,15.09,11.65,6.3,1.49,13.18,1.43,19.38-.02,5.59-3.46,11.18-6.92,16.8-10.34-5.55,3.53-11.12,7.01-16.7,10.5-6.38,1.57-13.15,1.58-19.53,.04-6.43-1.56-11.85-6.12-15.05-11.84h0Z"/><g id="Isolation_Mode"><path class="cls-52" d="M134.55,141.65c.4-5.3-.3-19.5-5-22,.08,.84-20,5-27,0-2.38-1.15-3.05-2.73-3-6,.02-1.26,1.46-3.56,1-5-1.06-3.31-3.33-12.24-3.68-14.54-1-5.9,.7-5,2.6-10.6-3.4,.1-7,.4-7.8-1.9-.9-2.3,1-5,2.3-7,5-7.8,6.5-9.1,9-15.4,1.1-2.7-1.1-3.7-.1-7,1.3-4.4,.6-10.1,3.5-12.6,7.2-6.1,22.9-7.3,32.3-6.3,15.2,1.7,35.2-1.5,49,5.1-6.9,29.8-18.12,44.24-5.12,103.24"/><path class="cls-16" d="M163.55,103.65c-5,5-8,5-23,12-10.4,3.9-20.68,8.06-31.58,6.26-1.9-.3-3.9-.7-5.7-1.7s-3.3-2.4-3.8-4.3c-.8-2.8,.6-5.7,1.9-8.3,.3,1.1,.7,2.2,1.4,3.1s1.7,1.6,2.8,1.6c1.2,0,5.5-2.8,6.3-3.7,2.8-3.2,1.4-5.6,1.4-9.8,1.3,2.9,2.4,5.8,3.8,8.7-.2-3.3,.3-6.6,.1-9.9,8.3-1.1,16.6-3.2,23.2-8.3,8.52-6.62,10.3-8.14,11.08-13.28,.08-.53,.15-1.1,.22-1.72l8,.4,3.88,28.94Z"/><path class="cls-16" d="M99.87,108.01c1.2,2.5,.6,1.5,1.6,.7,.7-.5,1.7-.6,2.3-1.3,.6-.7,1.1-1.4,1.5-2.2,.2-.3,.3-.7,.1-.9-.1-.1-.3-.1-.5-.1-1.6,0-3.2,.1-4.7-.2-.6-.1-1.1,0-1.5,.5-.4,.3,.9,2.9,1.2,3.5Z"/><path class="cls-16" d="M96.67,93.41s-1.8-2.9-1.6-3.4c.1-.6,1.4-3.5,2.3-3.9s.5,.4,1.9-.2,1.2-.4,2.9,.3c1.7,.6,6.6,1.9,7.9,2.2s3.1,3.5,3.4,6.6,.4,5.6,.4,5.6c0,0-3.4-6.2-4.3-6.9-.9-.8-2.1-.9-4.8-1.3s-5.5-.8-5.9-.5-2.2,1.5-2.2,1.5Z"/><path class="cls-7" d="M113.27,60.01s-1-5.3-.8-5.4c.2-.2,7.4-1.1,11.4-.3s5.9,1.3,7.6,3.9,1.7,3.4,1.7,3.4c0,0-1.9-1-3.2-1.7-1.4-.8-4.9-1-8.2-.6-3.4,.4-8.5,.7-8.5,.7Z"/><path class="cls-60" d="M102.17,60.81l2.3-.4s.7-5.3-.2-5.3-3,0-2.9,1.4c0,1.3,.8,4.3,.8,4.3Z"/><path class="cls-59" d="M181.17,24.31c-5.6-4.9-26.4-6.9-36.4-1.9-8,4.1-3,17.9-3,17.9,4.5-1.5,3.5-.7,6.1-1l-2.9,9s7.2,8.2,6.7,17l31.9-4.9,3.2-18.3c.3-1.3,.7-2.9,1.1-4.6,.9-4.6-1.1-8.2-6.7-13.2Z"/><path class="cls-42" d="M99.37,83.41l7.4-1.4s-4.8,1.6-7.8,2.2l.4-.8"/><g class="cls-15"><path class="cls-42" d="M160.87,84.51s0,.2,.1,.5,.3,.9,.6,1.5c.3,.6,.8,1.3,1.6,1.8,.8,.5,1.9,.8,3,.6s2.3-.8,3.3-1.7,1.9-2,2.7-3.2c.8-1.2,1.4-2.6,1.9-4.1s.8-3,1-4.5c.4-3.1,.4-6.3-.4-9.1-.4-1.4-1.1-2.7-2.2-3.4-.5-.4-1.2-.5-1.7-.6-.6,0-1.2,0-1.8,.2-1.1,.3-2.1,.9-2.8,1.4-.8,.6-1.3,1.2-1.8,1.7-.4,.5-.7,1-.9,1.3-.2,.3-.3,.5-.3,.5,0,0,.1-.2,.2-.5,.2-.3,.5-.8,.9-1.3s1-1.2,1.7-1.8,1.7-1.2,2.8-1.6c.6-.2,1.2-.3,1.9-.3,.7,.1,1.4,.2,1.9,.6,1.2,.8,1.9,2.2,2.4,3.6,.9,2.9,.9,6.1,.5,9.3-.2,1.6-.5,3.1-1,4.6s-1.2,2.9-1.9,4.2c-.8,1.3-1.7,2.4-2.8,3.3-1.1,.9-2.3,1.5-3.5,1.7s-2.4-.1-3.1-.7c-.8-.6-1.3-1.3-1.6-1.9-.3-.6-.5-1.1-.6-1.5-.1-.4-.1-.6-.1-.6Z"/></g><path d="M142.37,40.21s7-3.3,6.4,3.7-.7,7.5-.7,7.5c0,0,4.1-8.2,2.5-10.5-1.6-2.2-3.5-5-4.8-4.6"/><path d="M150.17,34.21s.3,0,.7,.2c.5,.1,1.1,.4,1.9,.8,.7,.4,1.5,1,2.3,1.6,.4,.3,.8,.7,1.2,1.1,.4,.4,.7,.9,1.1,1.4,.3,.5,.5,1.1,.7,1.6,.2,.6,.2,1.1,.3,1.7,.1,1.1-.1,2.1-.2,2.9-.1,.8-.3,1.5-.3,2-.1,.5-.1,.7-.1,.7,0,0,.1-1.1-.1-2.7-.1-.8-.2-1.7-.5-2.7-.1-.5-.3-.9-.5-1.4s-.4-.9-.7-1.3c-.2-.4-.5-.8-.8-1.2s-.6-.8-.9-1.2c-.6-.8-1.2-1.5-1.8-2.1-.6-.6-1.1-.9-1.6-1.1-.4-.3-.7-.3-.7-.3Z"/><path d="M161.37,49.91s.1-.3,.2-.8,.2-1.3,.2-2.2-.1-1.9-.4-2.9c-.2-.5-.4-1-.7-1.5-.3-.5-.6-1-.9-1.5s-.6-1-1-1.4c-.4-.5-.7-.9-1-1.3-.7-.8-1.4-1.6-2.1-2.2-.7-.6-1.3-1-1.8-1.1-.3-.1-.5-.1-.6-.1h-.2s.3-.1,.8,0,1.3,.3,2.1,.8c.8,.4,1.8,1,2.7,1.8,.5,.4,.9,.8,1.3,1.3s.8,1,1.2,1.5c.3,.5,.7,1.1,.9,1.7,.3,.6,.4,1.2,.5,1.8,.2,1.2,0,2.4-.2,3.3-.2,.9-.5,1.6-.6,2.1-.3,.4-.4,.7-.4,.7Z"/><path d="M162.57,50.51s.2-1.2,.1-3c0-.9-.1-1.9-.2-3-.1-.5-.2-1.1-.3-1.6-.1-.5-.2-1.1-.4-1.6-.2-.5-.3-1.1-.6-1.5-.2-.5-.5-.9-.8-1.3-.6-.7-1.5-1.2-2.3-1.5s-1.6-.5-2.1-.5c-.5-.1-.8-.1-.8-.1h.8c.5,0,1.3,0,2.2,.1,.9,.1,2,.4,3,1.2,.5,.4,.9,.9,1.3,1.5,.3,.6,.6,1.2,.8,1.8,.2,.6,.3,1.2,.4,1.9,.1,.6,.1,1.2,0,1.8-.1,1.2-.3,2.2-.5,3.1-.2,.9-.4,1.6-.5,2.1,0,.3-.1,.6-.1,.6Z"/><path d="M163.17,50.11s.6-.8,1.1-2.3c.2-.7,.5-1.5,.6-2.4,.1-.4,.1-.9,.1-1.3s0-.9-.1-1.3c-.1-.4-.2-.8-.4-1.2-.2-.4-.4-.8-.6-1.1-.5-.7-1.1-1.3-1.6-1.9-1.1-1.1-1.7-1.9-1.7-1.9,0,0,.2,.2,.5,.5s.9,.6,1.5,1c.7,.4,1.5,.8,2.2,1.5,.4,.4,.8,.8,1,1.3,.3,.5,.5,1.1,.6,1.6,.1,.6,.1,1.1,.1,1.7,0,.5-.2,1.1-.4,1.5-.3,1-.8,1.7-1.3,2.4-.5,.6-.9,1.1-1.1,1.5-.3,.2-.5,.4-.5,.4Z"/><path d="M163.37,49.41s.3-.1,.7-.3c.4-.3,.9-.8,1.2-1.5,.4-.7,.5-1.6,.6-2.5,0-.5,0-1-.1-1.5,0-.5-.1-1-.2-1.5s-.2-1-.3-1.5c-.1-.5-.3-1-.4-1.5-.3-.9-.7-1.8-1.1-2.5s-.8-1.3-1.1-1.7c-.3-.4-.5-.5-.5-.5,0,0,.2,.2,.6,.5s.9,.8,1.5,1.4c.6,.6,1.2,1.4,1.7,2.3,.2,.5,.5,1,.7,1.5s.3,1.1,.5,1.7c.1,.6,.1,1.2,.2,1.7,0,.6-.1,1.1-.2,1.7-.2,1.1-.7,2-1.3,2.7-.6,.7-1.2,1-1.6,1.2-.6,.2-.9,.3-.9,.3Z"/><path d="M165.67,50.61s.4-.2,.9-.6c.5-.4,1.3-1.2,1.9-2.2s1.1-2.3,1.4-3.7c.1-.7,.2-1.4,.2-2.2,0-.7,0-1.5-.1-2.3s-.2-1.5-.3-2.3c-.2-.7-.3-1.5-.5-2.2-.4-1.4-.9-2.7-1.5-3.7-.5-1.1-1.1-1.9-1.5-2.4-.4-.6-.7-.8-.7-.8,0,0,.3,.3,.8,.8s1.2,1.2,1.9,2.2c.8,1,1.5,2.2,2.2,3.6,.3,.7,.6,1.5,.8,2.3,.2,.8,.4,1.6,.5,2.5,.1,.8,.1,1.7,0,2.5s-.3,1.6-.5,2.4c-.5,1.5-1.3,2.8-2.1,3.7-.8,.9-1.7,1.5-2.2,1.9-.9,.3-1.2,.5-1.2,.5Z"/><path d="M172.07,48.41s.2-.2,.4-.7c.2-.5,.4-1.1,.5-2,.1-.8,0-1.8-.2-2.7-.1-.5-.3-1-.4-1.4-.2-.5-.4-.9-.6-1.4s-.5-.9-.8-1.3c-.3-.4-.6-.8-1-1.1-.7-.7-1.5-1.3-2.2-1.8-1.4-1-2.5-1.4-2.5-1.4,0,0,.3,.1,.7,.3,.5,.2,1.2,.4,2,.6,.8,.3,1.8,.7,2.7,1.3,.5,.3,.9,.7,1.3,1.1,.4,.4,.8,.9,1.1,1.5,.3,.5,.5,1.1,.7,1.7,.2,.6,.2,1.2,.2,1.7,0,1.1-.2,2.2-.5,3s-.7,1.4-.9,1.9c-.3,.4-.5,.7-.5,.7Z"/><path d="M173.37,47.01s.2-.2,.5-.5c.3-.4,.6-1,.8-1.8,.2-.8,.3-1.7,.3-2.7,0-.5-.1-1-.1-1.5-.1-.5-.1-1-.2-1.6-.1-.5-.2-1-.3-1.5-.1-.5-.2-1-.4-1.4-.3-.9-.8-1.6-1.4-2.2-.6-.5-1.2-.8-1.7-.9-.5-.1-.8,0-.8,0h.8c.5,0,1.2,.1,2,.5s1.6,1.1,2.2,2c.3,.5,.6,1,.7,1.6,.2,.6,.3,1.1,.4,1.7,.1,.6,.1,1.1,.1,1.7s0,1.1-.1,1.7c-.2,1.1-.6,2.1-1,2.8s-.9,1.3-1.3,1.6c-.3,.4-.5,.5-.5,.5Z"/><path d="M186.47,44.11s.3-1.2,.3-2.9c0-.9-.1-1.9-.3-3-.1-.5-.2-1.1-.3-1.6-.1-.5-.3-1.1-.5-1.6s-.4-1-.6-1.5c-.3-.5-.5-1-.8-1.4-.6-.9-1.3-1.6-1.9-2.2-1.3-1.2-2.3-1.9-2.3-1.9,0,0,.2,.2,.7,.4,.5,.3,1.1,.6,1.9,1s1.7,1,2.5,1.9c.4,.4,.8,.9,1.1,1.4,.3,.5,.6,1.1,.8,1.7,.2,.6,.4,1.2,.5,1.8s.1,1.2,.1,1.8c0,1.2-.2,2.2-.4,3.1-.2,.9-.4,1.6-.6,2.1-.1,.6-.2,.9-.2,.9Z"/><path d="M185.57,45.11s.1-.2,.1-.6,0-1-.1-1.6c-.1-.7-.3-1.4-.6-2.2-.1-.4-.3-.8-.4-1.2s-.3-.8-.4-1.2-.3-.8-.4-1.2-.3-.8-.4-1.2c-.3-.8-.6-1.5-.9-2-.4-.5-.8-1-1.1-1.2-.2-.1-.3-.2-.4-.2s-.1-.1-.1-.1c0,0,.1,0,.2,.1,.1,0,.2,.1,.4,.2,.4,.2,.9,.4,1.5,.9,.6,.4,1.1,1.1,1.6,1.8,.2,.4,.5,.8,.7,1.2s.4,.8,.5,1.3c.1,.4,.3,.9,.4,1.3,.1,.4,.1,.9,.2,1.3,.1,.9,0,1.7-.1,2.4s-.3,1.3-.4,1.6c-.3,.4-.3,.6-.3,.6Z"/><path d="M183.57,45.91s0-.2,.1-.6v-1.6c-.1-.7-.2-1.4-.3-2.2-.1-.4-.2-.8-.3-1.2-.1-.4-.2-.8-.3-1.2-.1-.4-.2-.8-.4-1.1-.2-.4-.3-.7-.5-1.1-.3-.7-.7-1.3-1.1-1.8s-.8-.8-1.2-1c-.3-.2-.5-.3-.5-.3,0,0,.2,.1,.6,.2,.4,.1,.9,.3,1.5,.7,.6,.3,1.3,.8,1.8,1.5,.3,.3,.6,.7,.8,1.1,.2,.4,.4,.8,.6,1.3,.1,.5,.2,.9,.3,1.4,.1,.5,0,.9,0,1.3-.1,.9-.2,1.6-.4,2.3-.2,.6-.3,1.2-.4,1.5-.2,.6-.3,.8-.3,.8Z"/><path d="M154.07,48.81s.2-.3,.5-.9c.3-.6,.6-1.5,.7-2.6s-.1-2.4-.6-3.6c-.2-.6-.5-1.3-.8-2s-.6-1.4-.9-2c-.3-.7-.6-1.3-.9-2-.3-.6-.7-1.3-1-1.8-.7-1.1-1.7-1.8-2.7-2.2s-2-.6-2.7-.7c-.7-.1-1-.2-1-.2,0,0,.4,.1,1,.1,.7,.1,1.6,0,2.8,.1,.6,.1,1.3,.2,1.9,.5,.7,.3,1.3,.8,1.9,1.3,.5,.6,1,1.2,1.5,1.9,.4,.7,.8,1.4,1.1,2.1,.3,.7,.6,1.5,.8,2.2,.3,.7,.4,1.5,.5,2.3,.2,1.5,.1,3-.3,4.1s-.9,2-1.3,2.5c-.3,.6-.5,.9-.5,.9Z"/><path d="M171.57,48.61s.1-.5,.3-1.3c.1-.8,.3-2,.2-3.4,0-.7,0-1.5-.1-2.3s-.1-1.7-.4-2.4c-.2-.7-.6-1.2-1.3-1.7-.6-.5-1.4-.9-2.2-1.3s-1.6-.8-2.5-1.1-1.7-.7-2.5-1c-1.6-.6-3.2-1.2-4.5-1.7s-2.5-.9-3.3-1.1c-.8-.2-1.3-.3-1.3-.3,0,0,.5,.1,1.3,.2,.8,.1,2,.3,3.4,.5s3.1,.4,4.9,.8c.9,.2,1.8,.4,2.7,.7,.9,.3,1.8,.6,2.7,1.1,.9,.5,1.8,1,2.6,1.7,.4,.4,.8,.8,1.1,1.3,.3,.5,.5,1.1,.5,1.6,.2,1,0,1.9,0,2.7-.1,.8-.2,1.6-.4,2.3-.3,1.4-.6,2.6-.8,3.4-.3,.9-.4,1.3-.4,1.3Z"/><path d="M175.37,48.11s.4-1.4,.6-3.5c.1-1.1,.2-2.3,.1-3.6,0-.6-.1-1.3-.2-1.9-.1-.6-.4-1.1-.7-1.5-.3-.5-.8-1-1.2-1.4-.5-.4-1-.8-1.5-1.2-1.1-.8-2.1-1.5-3-2-1.9-1.1-3.3-1.5-3.3-1.5,0,0,.3,.1,1,.3,.6,.1,1.5,.4,2.6,.6,1.1,.3,2.3,.6,3.6,1.2,.6,.3,1.3,.6,1.9,1.1s1.2,1,1.7,1.7,.8,1.6,.9,2.4c.1,.8,0,1.6-.1,2.3-.2,1.4-.7,2.6-1.1,3.7-.4,1-.7,1.9-1,2.4-.2,.6-.3,.9-.3,.9Z"/><path d="M176.77,47.11s.1,0,.2-.1,.3-.2,.5-.4c.4-.4,.8-1.2,.7-2.2-.1-.9-.6-1.9-1.3-2.9-.4-.5-.8-1-1.2-1.5-.4-.5-.8-1-1.2-1.5-.4-.5-.8-1-1.3-1.5-.4-.5-.9-.9-1.3-1.4-.9-.9-1.7-1.6-2.6-2.2-.8-.6-1.6-1-2.1-1.2-.6-.2-.9-.3-.9-.3,0,0,.3,.1,.9,.2,.6,.2,1.4,.3,2.4,.7,1,.3,2.1,.8,3.3,1.6,.6,.4,1.1,.8,1.6,1.2l1.5,1.5c.5,.5,.9,1.1,1.3,1.7,.4,.6,.7,1.2,1,1.8,.6,1.2,.9,2.6,.6,3.7-.2,1.1-.8,1.8-1.3,2.2-.2,.2-.5,.3-.6,.4l-.2,.2Z"/><path d="M178.27,46.61s.4,.2,.9-.1c.3-.1,.5-.4,.7-.8,.2-.4,.2-.8,.1-1.3-.2-.9-.9-2-1.7-3-.4-.5-.8-1-1.3-1.5-.4-.5-.9-1-1.4-1.4-.5-.5-1-.9-1.5-1.3-.5-.4-1-.9-1.6-1.3-1-.8-2.1-1.5-3-2.1-.9-.5-1.8-.8-2.4-.9-.6-.1-1,0-1,0h1c.6,0,1.6,.1,2.6,.4,1.1,.3,2.3,.7,3.6,1.3,.6,.3,1.3,.6,1.9,1.1,.6,.4,1.2,.9,1.8,1.4,.5,.5,1.1,1.1,1.5,1.7,.5,.6,.8,1.3,1.1,1.9,.6,1.3,1,2.6,1,3.8,0,.6-.2,1.1-.5,1.5s-.6,.6-.9,.7c-.5,0-.9-.2-.9-.1Z"/><path d="M180.37,45.91s.3-.2,.5-.7c.3-.5,.5-1.3,.4-2.2s-.5-1.9-1.1-2.8c-.3-.5-.6-.9-1-1.4-.3-.5-.7-1-1.1-1.4-.4-.5-.7-1-1.1-1.4s-.7-.9-1.1-1.3c-.8-.8-1.6-1.5-2.4-2s-1.5-.8-2-1c-.5-.1-.9-.2-.9-.2,0,0,.3,0,.9,.1s1.4,.2,2.3,.4c1,.3,2.1,.7,3.1,1.4,.5,.4,1.1,.7,1.5,1.2,.5,.5,.9,1,1.3,1.5s.7,1.1,1.1,1.7c.3,.6,.6,1.2,.8,1.8,.4,1.2,.5,2.5,.3,3.5s-.6,1.7-1,2.2c-.2,.4-.5,.6-.5,.6Z"/><path d="M182.17,46.01s.1-.3,.2-.9c.1-.6,.2-1.4,0-2.3-.1-.9-.4-2-.8-3-.2-.5-.5-1-.8-1.5s-.6-.9-.9-1.1c-.3-.3-.8-.5-1.4-.6s-1.1-.3-1.7-.4c-1.1-.2-2.3-.3-3.3-.5-1-.1-1.8-.3-2.3-.4-.6-.1-.9-.2-.9-.2,0,0,.3,.1,.9,.1s1.4-.1,2.3-.2c1-.2,2.1-.4,3.4-.4,.6,0,1.3,0,2,.1s1.5,.3,2.2,.8,1.2,1.2,1.5,1.9,.5,1.3,.6,2c.2,1.3,.2,2.5,0,3.5s-.5,1.8-.6,2.3c-.3,.5-.4,.8-.4,.8Z"/><path d="M166.27,49.91s.3-.2,.8-.7,1-1.3,1.4-2.4c.4-1.1,.7-2.4,.7-3.8,0-.7,0-1.4-.1-2s-.4-1.2-.7-1.8c-.3-.6-.8-1.2-1.3-1.7s-.9-1.1-1.5-1.6c-1-1-2.1-1.8-3.1-2.4-1-.6-1.9-1.1-2.5-1.3-.6-.3-1-.4-1-.4,0,0,.4,.1,1,.3,.7,.2,1.6,.4,2.8,.8,1.1,.4,2.5,.9,3.8,1.8,.6,.4,1.3,.9,1.9,1.5s1.1,1.2,1.6,2c.4,.8,.8,1.7,.9,2.6,.1,.9,0,1.8-.2,2.5-.3,1.5-1,2.9-1.7,3.9s-1.5,1.7-2,2.1c-.4,.4-.8,.6-.8,.6Z"/><path d="M166.67,49.01s.3-.4,.6-1.1c.3-.7,.6-1.8,.8-3.2,.2-1.4,.5-2.9,0-4.3-.2-.7-.6-1.4-1.1-2.1-.5-.7-1-1.3-1.6-1.9-.6-.6-1.2-1.2-1.9-1.8-.7-.5-1.3-1.1-2-1.6-1.3-1-2.7-1.8-3.9-2.4s-2.3-.9-3.1-1.1c-.8-.2-1.2-.2-1.2-.2,0,0,.5,.1,1.3,.2,.8,.1,1.9,.2,3.3,.6,1.4,.3,3,.8,4.5,1.6,.8,.4,1.6,.9,2.4,1.4,.8,.6,1.5,1.2,2.2,1.9s1.3,1.5,1.8,2.3,.9,1.8,1,2.8c.2,1,.1,1.9-.2,2.7-.2,.8-.5,1.5-.8,2.2-.5,1.3-1,2.3-1.4,3-.4,.6-.7,1-.7,1Z"/><path d="M166.47,48.31s.1-.3,.2-.8,.1-1.2,0-2.1c-.1-.8-.3-1.8-.5-2.8-.1-.5-.3-1-.5-1.5s-.4-1-.6-1.5-.4-1-.6-1.4c-.2-.5-.5-.9-.7-1.4-.5-.9-1.1-1.7-1.6-2.3-.6-.6-1.2-1-1.7-1.1s-.8-.1-.8-.1h.8c.5,.1,1.2,.2,2.1,.6,.8,.4,1.7,1,2.5,1.8,.4,.4,.8,.9,1.1,1.4,.3,.5,.6,1.1,.9,1.6,.2,.6,.4,1.2,.5,1.8s.2,1.2,.2,1.8c0,1.2-.1,2.2-.4,3.1-.2,.9-.5,1.6-.6,2-.2,.6-.3,.9-.3,.9Z"/><path d="M160.47,48.31s.1-.3,.2-.8,0-1.3-.2-2.2-.6-1.8-1.1-2.9c-.2-.5-.5-1-.7-1.5s-.5-1-.8-1.5-.6-.9-.9-1.3c-.3-.4-.7-.8-1.1-1.1-.8-.7-1.7-1.3-2.5-1.8s-1.4-.9-1.9-1.1c-.5-.2-.8-.3-.8-.3,0,0,.3,.1,.8,.2,.5,.1,1.3,.3,2.2,.6,.9,.2,2,.5,3.1,1.1,.5,.3,1.1,.6,1.6,1.1s.9,1,1.3,1.6c.3,.6,.6,1.2,.8,1.8,.2,.6,.3,1.2,.5,1.8,.2,1.2,.3,2.3,.2,3.3-.1,1-.3,1.7-.4,2.3-.2,.4-.3,.7-.3,.7Z"/><path d="M159.07,49.51s.1-.3,.2-.9c.1-.6,.1-1.4,0-2.4s-.5-2.1-1-3.2c-.2-.5-.6-1.1-.9-1.6s-.7-1-1.1-1.5-.8-.9-1.3-1.3c-.5-.4-.9-.8-1.4-1.1-1-.7-2-1.3-2.9-1.8s-1.6-.9-2.2-1.2c-.5-.3-.8-.4-.8-.4,0,0,.3,.2,.9,.4s1.4,.4,2.4,.7c1,.2,2.2,.5,3.4,1,.6,.3,1.3,.6,1.9,1s1.1,.9,1.6,1.5,.9,1.2,1.2,1.9c.3,.6,.5,1.3,.7,2,.3,1.3,.3,2.6,.1,3.7-.2,1.1-.4,1.9-.6,2.4-.1,.5-.2,.8-.2,.8Z"/><path d="M154.47,48.81s.1-.4,.1-1-.1-1.5-.3-2.5c-.2-1-.6-2.2-1.2-3.2-.3-.5-.7-1-1-1.5-.4-.5-.8-.9-1.3-1.3-.5-.4-1-.8-1.6-1.2-.5-.4-1.1-.8-1.6-1.1-1.1-.7-2.2-1.3-3.1-1.8s-1.8-.8-2.4-1-.9-.3-.9-.3c0,0,.3,.1,1,.2,.6,.1,1.5,.2,2.6,.5,1.1,.2,2.3,.5,3.6,1,.6,.3,1.3,.5,1.9,.9s1.3,.8,1.9,1.3,1.1,1.1,1.6,1.7c.4,.6,.7,1.4,1,2,.4,1.4,.5,2.7,.4,3.8s-.2,2-.3,2.6c-.3,.5-.4,.9-.4,.9Z"/><path d="M151.67,48.81s0-.1,.1-.2c.1-.1,.1-.3,.2-.6,.1-.5,.2-1.3,.2-2.3-.1-.9-.3-2-.7-3-.2-.5-.5-1-.7-1.5-.3-.5-.6-1-1-1.4-.3-.5-.7-.9-1.1-1.4-.4-.4-.8-.9-1.2-1.3-.8-.8-1.6-1.6-2.3-2.3-.7-.7-1.3-1.2-1.7-1.6-.4-.4-.7-.5-.7-.5,0,0,.3,.2,.7,.5,.5,.3,1.2,.6,2.1,1.1,.9,.4,1.9,.9,2.9,1.6,.5,.4,1.1,.7,1.5,1.2,.5,.5,1,1,1.4,1.5,.4,.6,.8,1.2,1,1.8,.3,.6,.5,1.3,.6,1.9,.2,1.3,.1,2.5-.2,3.5-.2,1-.6,1.7-.8,2.2s-.3,.8-.3,.8Z"/><path d="M163.37,48.91s.1-.2,.2-.6c.1-.4,.2-1,.3-1.7,0-.7,0-1.5-.1-2.4,0-.4-.1-.9-.1-1.3s-.1-.9-.2-1.3c0-.4-.1-.9-.2-1.3-.1-.4-.1-.8-.2-1.2-.2-.8-.5-1.5-.9-2s-1-.8-1.4-.9c-.4-.1-.7,0-.7,0,0,0,.2-.1,.7-.1,.4,0,1.1,0,1.8,.4,.7,.3,1.5,1,2,1.9,.3,.4,.5,.9,.6,1.4,.2,.5,.3,1,.4,1.5s.1,1,.1,1.5-.1,1-.2,1.5c-.2,.9-.6,1.8-.9,2.5s-.7,1.2-.9,1.6c-.2,.2-.3,.5-.3,.5Z"/><path d="M163.07,48.91s.1-.2,.3-.6c.2-.4,.4-1,.6-1.8s.3-1.7,.5-2.6c.1-.5,.1-.9,.2-1.4s.2-1,.2-1.4c.1-.5,.2-.9,.2-1.4s.1-.9,.1-1.3c0-.9-.2-1.7-.5-2.4s-.8-1.2-1.1-1.4c-.4-.3-.6-.3-.6-.3,0,0,.2,.1,.7,.3,.4,.2,1,.5,1.6,1.1s1.2,1.4,1.5,2.5c.1,.5,.3,1.1,.3,1.6,0,.6,0,1.1-.1,1.7-.1,.5-.2,1.1-.4,1.6-.1,.5-.4,1-.6,1.5-.4,.9-.9,1.7-1.4,2.4-.5,.6-.8,1.2-1.1,1.6-.3,.1-.4,.3-.4,.3Z"/><path d="M166.67,47.41s.1-.2,.1-.5c.1-.3,0-.8,0-1.4-.1-.6-.2-1.3-.3-2,0-.4-.1-.8-.1-1.1v-1.2c0-.4,.1-.8,.1-1.2s.1-.7,.1-1c.1-.6,0-1.1-.3-1.6s-.7-.8-.9-1c-.3-.2-.5-.3-.5-.3,0,0,.2,.1,.5,.2,.3,.1,.8,.3,1.4,.6s1.2,1.1,1.4,1.9c.1,.4,.2,.9,.2,1.3v1.2c0,.4-.1,.8-.1,1.2s-.2,.8-.2,1.1c-.2,.7-.4,1.4-.6,2s-.4,1.1-.6,1.4c-.2,.2-.2,.4-.2,.4Z"/><path d="M167.17,47.91s.1-.2,.2-.5,.2-.8,.3-1.5c.1-.6,.2-1.3,.3-2.1,.1-.4,.1-.8,.2-1.1,.1-.4,.1-.8,.2-1.1,.1-.4,.2-.8,.3-1.1,.1-.4,.2-.7,.3-1,.2-.6,.2-1.2,0-1.8-.2-.5-.5-.9-.9-1-.3-.1-.5-.1-.5-.1h.6c.4,.1,.9,.2,1.4,.7s.9,1.3,1,2.2c0,.4,.1,.9,0,1.3,0,.4-.1,.8-.2,1.2s-.2,.8-.4,1.2c-.1,.4-.3,.8-.5,1.1-.4,.7-.8,1.3-1.2,1.8-.4,.5-.7,.9-.9,1.2-.2,.4-.2,.6-.2,.6Z"/><path d="M169.97,47.51s.1-.2,.1-.5c.1-.3,.1-.8,0-1.3s-.1-1.2-.2-1.8c0-.3-.1-.7-.1-1v-1c0-.3,0-.6,.1-1,0-.3,.1-.6,.1-.9,0-.6,0-1.2-.1-1.7s-.3-.9-.5-1.1c-.2-.2-.4-.3-.4-.3,0,0,.2,.1,.4,.3,.3,.2,.7,.4,1.1,.9,.4,.4,.8,1,1.1,1.7,.1,.4,.2,.7,.3,1.1,0,.4,.1,.8,.1,1.2s-.1,.7-.2,1.1c-.1,.4-.2,.7-.3,1-.2,.7-.5,1.3-.7,1.8s-.5,.9-.6,1.2c-.2,.2-.2,.3-.2,.3Z"/><path d="M170.57,48.21s.1-.2,.1-.6c.1-.4,.1-.9,.1-1.5v-2.2c0-.4,0-.8,.1-1.2,0-.4,.1-.8,.1-1.2,.1-.4,.1-.8,.2-1.1,0-.4,.1-.7,.1-1.1,.1-.7,0-1.4-.1-2-.2-.6-.4-1-.7-1.3-.3-.3-.4-.4-.4-.4,0,0,.2,.1,.5,.3s.8,.5,1.2,1c.5,.5,.9,1.2,1.1,2.1,.1,.4,.2,.9,.2,1.3v1.3c-.1,.4-.2,.9-.3,1.3-.1,.4-.3,.8-.4,1.2-.3,.8-.6,1.4-.9,2s-.6,1-.7,1.4c-.1,.5-.2,.7-.2,.7Z"/><path d="M172.67,46.81s.1-.2,.1-.5c.1-.3,.1-.8,.1-1.3s0-1.2,.1-1.8c0-.3,.1-.7,.1-1,.1-.3,.1-.7,.2-1s.2-.6,.2-1c.1-.3,.2-.6,.2-.9,.2-.6,.3-1.2,.3-1.7s0-1-.1-1.3-.2-.4-.2-.4c0,0,.1,.1,.3,.4,.2,.3,.5,.6,.7,1.1,.3,.5,.5,1.2,.7,1.9,.1,.4,.1,.7,.1,1.1s-.1,.8-.1,1.1c-.1,.4-.2,.7-.3,1.1-.1,.3-.3,.6-.5,1-.3,.6-.7,1.2-1,1.6-.3,.5-.5,.8-.7,1.1-.2,.3-.2,.5-.2,.5Z"/><path d="M172.87,46.81s.1-.1,.3-.4c.2-.2,.3-.6,.4-1.1s.1-1.1,.2-1.6c0-.3,.1-.6,.1-.9,.1-.3,.1-.6,.2-.9,.1-.3,.2-.6,.3-.9,.1-.3,.2-.6,.3-.8,.2-.5,.4-1.1,.6-1.5,.1-.5,.2-.9,.1-1.2,0-.3-.1-.4-.1-.4l.2,.4c.1,.3,.3,.6,.5,1.2,.2,.5,.3,1.2,.4,1.8v1c-.1,.3-.1,.7-.2,1s-.2,.6-.4,.9c-.1,.3-.3,.6-.5,.9-.3,.6-.8,1.1-1.1,1.4-.4,.4-.7,.6-.9,.8-.3,.1-.4,.3-.4,.3Z"/><path d="M179.67,44.11s0-.2,.1-.5c0-.3,0-.8-.1-1.3s-.2-1.1-.4-1.7c-.1-.3-.2-.6-.3-.8-.1-.3-.2-.5-.3-.8-.1-.3-.2-.5-.4-.7-.2-.2-.3-.5-.5-.7-.4-.5-.8-.9-1.2-1.3-.4-.4-.8-.6-1.1-.8-.3-.1-.5-.2-.5-.2,0,0,.2,.1,.5,.1,.3,.1,.8,.1,1.3,.2,.6,.1,1.2,.3,1.9,.7,.3,.2,.7,.4,1,.7s.6,.7,.7,1.1c.2,.4,.3,.8,.4,1.2s0,.8,0,1.2c-.1,.8-.3,1.4-.6,1.9-.2,.5-.4,.9-.5,1.2v.5Z"/><path d="M156.27,47.51s.1-.2,.2-.6c.1-.4,.2-.9,.1-1.5s-.2-1.3-.5-2.1c-.1-.4-.3-.7-.5-1.1-.2-.4-.4-.7-.6-1.1-.2-.4-.4-.7-.6-1.1-.2-.4-.4-.7-.6-1-.4-.7-.9-1.2-1.3-1.7s-.9-.8-1.2-1c-.3-.2-.5-.3-.5-.3,0,0,.2,.1,.5,.3s.8,.4,1.4,.8c.6,.4,1.2,.9,1.7,1.5,.3,.3,.6,.6,.8,1,.3,.4,.5,.7,.7,1.1,.2,.4,.4,.8,.5,1.2,.2,.4,.3,.8,.4,1.2,.2,.8,.2,1.6,.1,2.3s-.3,1.2-.4,1.5c-.1,.4-.2,.6-.2,.6Z"/><path d="M157.77,47.51s0-.2,.1-.5,.2-.7,.3-1.2c.1-.5,.1-1.1,0-1.7-.1-.3-.2-.6-.3-.9-.1-.3-.2-.6-.4-.9-.1-.3-.3-.6-.5-.8-.2-.3-.4-.5-.6-.8-.4-.5-.8-.9-1.2-1.3-.8-.7-1.4-1-1.4-1l.4,.2c.3,.1,.7,.3,1.2,.5s1,.5,1.6,1c.3,.2,.5,.4,.8,.7,.2,.3,.5,.6,.7,.9,.2,.3,.3,.7,.4,1.1,.1,.4,.1,.7,.1,1.1,0,.7-.2,1.4-.5,1.9-.2,.5-.5,.9-.6,1.1,0,.5-.1,.6-.1,.6Z"/><path d="M156.77,47.31v-1.6c0-.5,0-1.1,.1-1.7,0-.3,.1-.6,.1-.9s.1-.6,.1-.9,.1-.6,.1-.9,0-.5-.1-.8c-.1-.5-.4-.9-.7-1.3-.3-.3-.6-.6-.9-.7l-.4-.2,.4,.2c.3,.1,.6,.2,1.1,.5,.4,.2,.9,.6,1.2,1.3,.1,.3,.2,.7,.3,1v1c0,.3-.1,.7-.2,1s-.2,.6-.3,.9c-.2,.6-.4,1.1-.6,1.5-.1,.5-.2,.8-.3,1.1,.1,.4,.1,.5,.1,.5Z"/><path d="M147.97,47.41s.1-.2,.2-.6c.1-.4,.1-.9,.1-1.5s0-1.4-.2-2.1c-.1-.4-.2-.7-.3-1.1-.1-.4-.3-.8-.4-1.2s-.3-.8-.4-1.2-.3-.8-.4-1.1c-.3-.7-.6-1.3-1-1.9-.4-.5-.7-.9-1-1.1-.3-.2-.5-.3-.5-.3,0,0,.2,.1,.5,.3s.8,.5,1.3,.9,1,1,1.5,1.7c.2,.3,.4,.7,.6,1.1,.2,.4,.3,.8,.5,1.2,.1,.4,.3,.8,.4,1.2s.1,.9,.2,1.3c0,.8-.1,1.6-.3,2.2-.1,.6-.3,1.1-.4,1.5-.3,.6-.4,.7-.4,.7Z"/><path d="M150.27,48.91s.4-.6,.6-1.6c.1-.5,.2-1,.2-1.6v-.9c0-.3-.1-.6-.1-.9-.1-.3-.1-.6-.2-.9-.1-.3-.2-.6-.3-.8-.2-.5-.5-1.1-.8-1.5-.5-.9-1-1.3-1-1.3,0,0,.1,.1,.3,.3,.2,.2,.6,.4,.9,.8,.4,.3,.8,.8,1.2,1.3,.2,.3,.4,.6,.5,.9,.1,.3,.2,.7,.3,1,.1,.4,.1,.7,.1,1.1s-.1,.7-.2,1c-.2,.6-.4,1.2-.7,1.6-.3,.4-.5,.8-.6,1-.1,.3-.2,.5-.2,.5Z"/><path d="M176.37,47.01s.4-.5,.6-1.3c.1-.4,.2-.9,.2-1.4v-.8c0-.3-.1-.5-.1-.8-.1-.3-.1-.5-.2-.8s-.2-.5-.3-.8c-.2-.5-.4-1-.6-1.4-.4-.8-.8-1.3-.8-1.3,0,0,.1,.1,.3,.3,.2,.2,.4,.4,.8,.8,.3,.3,.7,.7,1,1.2,.2,.2,.3,.5,.5,.8,.1,.3,.2,.6,.3,.9,.1,.3,.1,.6,.1,1,0,.3,0,.6-.1,.9-.2,.6-.4,1.1-.7,1.4-.3,.4-.5,.7-.7,.9-.2,.3-.3,.4-.3,.4Z"/><path d="M178.57,46.61s.2-.1,.3-.5c.1-.3,.1-.8,.1-1.4s-.1-1.3-.4-1.8c-.2-.3-.4-.5-.7-.7-.3-.3-.6-.5-.9-.8s-.6-.5-.9-.7-.6-.5-.9-.7c-.6-.5-1.1-.9-1.6-1.3-.9-.7-1.6-1.1-1.6-1.1,0,0,.7,.4,1.8,.8,.6,.2,1.2,.5,1.9,.9,.3,.2,.7,.4,1,.6,.3,.2,.7,.5,1,.7,.3,.3,.6,.6,.9,.9,.3,.3,.5,.7,.7,1.1,.2,.4,.2,.8,.2,1.2s-.1,.7-.1,1c-.1,.6-.3,1.1-.4,1.4-.2,.3-.4,.4-.4,.4Z"/><path d="M179.77,45.91s.1-.1,.2-.3,.2-.5,.2-.9-.1-.8-.2-1.3c0-.2-.1-.5-.1-.7s-.1-.5-.1-.7-.1-.5-.1-.7-.1-.5-.1-.7c-.1-.5-.1-.9-.3-1.2-.2-.3-.5-.5-.6-.7-.2-.1-.3-.2-.3-.2,0,0,.1,.1,.3,.2s.5,.2,.9,.5c.4,.2,.6,.7,.8,1.2,.1,.2,.2,.5,.3,.7,.1,.3,.1,.5,.2,.8,0,.3,.1,.5,.1,.8v.8c0,.5-.1,1-.3,1.4-.2,.4-.4,.7-.5,.8-.3,.1-.4,.2-.4,.2Z"/><path d="M180.87,45.21s.1-.1,.2-.4c.1-.3,.1-.7,0-1.2s-.3-1-.6-1.5c-.1-.2-.3-.5-.5-.7s-.4-.5-.6-.7-.4-.5-.6-.7-.4-.5-.6-.7c-.4-.5-.8-.9-1.1-1.2-.7-.7-1.3-1.1-1.3-1.1,0,0,.1,.1,.4,.2,.3,.1,.6,.3,1.1,.6,.4,.2,1,.5,1.5,.9,.3,.2,.5,.4,.8,.6,.2,.2,.5,.5,.7,.7,.2,.3,.4,.5,.6,.8s.3,.6,.4,.9c.2,.6,.3,1.3,.2,1.8,0,.5-.2,.9-.3,1.2-.2,.4-.3,.5-.3,.5Z"/><path d="M186.27,43.91s-.1-.6-.4-1.4c-.2-.4-.4-.9-.6-1.4-.1-.2-.2-.5-.3-.8-.1-.3-.2-.5-.3-.8-.1-.3-.2-.5-.3-.8-.1-.3-.2-.5-.3-.8-.2-.5-.4-.9-.6-1.3-.2-.4-.5-.6-.7-.8s-.3-.2-.3-.2c0,0,.1,.1,.4,.2,.2,.1,.6,.3,.9,.6,.4,.3,.8,.7,1.1,1.1,.2,.2,.3,.5,.5,.8,.1,.3,.3,.5,.4,.8s.2,.6,.3,.9c.1,.3,.1,.6,.2,.8,.1,.6,.1,1.1,.1,1.5-.1,1.1-.1,1.6-.1,1.6Z"/><g class="cls-8"><path class="cls-26" d="M139.47,39.51s0-.4,.2-1.1c.1-.7,.5-1.6,1.2-2.6s1.7-1.9,3.2-2.5c1.4-.5,3.1-.6,4.6-.1,1.6,.5,2.8,1.7,3.7,2.9,.9,1.2,1.6,2.4,2.2,3.4s.9,2,1,2.6c.1,.7,.1,1.1,.1,1.1,0,0,0-.4-.2-1.1-.2-.7-.5-1.6-1.2-2.5-.6-1-1.4-2.1-2.3-3.2-.9-1.1-2.1-2.1-3.5-2.6s-3-.5-4.3-.1-2.4,1.3-3.2,2.2c-.7,.9-1.1,1.8-1.3,2.5-.2,.7-.2,1.1-.2,1.1Z"/></g><g class="cls-8"><path class="cls-26" d="M140.27,39.41s-.1-.3,0-.9c.1-.5,.4-1.3,1.2-2,.7-.7,1.7-1.2,2.8-1.7,.5-.2,1.2-.5,1.9-.4,.7,.1,1.3,.4,1.8,.8,1.1,.7,2.1,1.6,2.8,2.5,.8,.9,1.3,2,1.6,2.9,.3,.9,.4,1.7,.4,2.3v0c0-.6-.2-1.3-.6-2.2s-1-1.8-1.7-2.7c-.8-.9-1.8-1.6-2.8-2.3-.5-.3-1.1-.6-1.6-.7-.5-.1-1.1,0-1.7,.2-1.1,.4-2.1,.8-2.9,1.4-.7,.6-1.1,1.3-1.3,1.8,.1,.6,.1,1,.1,1Z"/></g><g class="cls-8"><path class="cls-26" d="M153.47,27.31s.1-.1,.2-.3c.2-.2,.4-.5,.9-.8,.8-.5,2.3-.9,4-.9,1.7-.1,3.7,.1,5.8,.7,2.1,.6,4.2,1.5,6,3s3.1,3.5,3.5,5.6c.5,2.1,.5,4.1,.2,5.8-.2,1.7-.7,3.1-1.1,4s-.7,1.4-.7,1.4c0,0,.3-.5,.6-1.4,.3-.9,.7-2.3,.9-4,.2-1.7,.2-3.7-.3-5.7s-1.7-4-3.4-5.4c-1.7-1.4-3.8-2.4-5.8-3s-4-.8-5.7-.8-3.1,.2-4,.7c-.4,.2-.7,.5-.9,.7-.1,.3-.2,.4-.2,.4Z"/></g><g class="cls-8"><path class="cls-26" d="M151.37,30.61s.1-.1,.2-.3,.4-.5,.7-.8c.7-.7,2-1.3,3.6-1.4,1.6-.1,3.6-.1,5.6,.4s4.1,1.3,5.8,2.7c1.8,1.3,3.1,3.2,3.7,5.2,.7,2,.7,3.9,.5,5.5s-.7,2.9-1,3.8c-.4,.9-.6,1.4-.6,1.4,0,0,.2-.5,.6-1.4,.3-.9,.7-2.2,.9-3.8,.2-1.6,0-3.5-.6-5.4-.7-1.9-1.9-3.7-3.6-5s-3.7-2.1-5.6-2.6-3.8-.6-5.4-.5-2.9,.6-3.6,1.2c-.4,.3-.6,.6-.7,.8-.5,.1-.5,.2-.5,.2Z"/></g><g class="cls-8"><path class="cls-26" d="M165.67,46.91s.4-.4,.9-1.3c.5-.9,1.1-2.2,1.5-3.8,.2-.8,.3-1.8,.3-2.7,0-1-.2-2-.7-2.9-1.2-1.7-2.5-3.8-4.7-4.5-2.1-.8-4.3-1.5-6.4-1.6s-4.1,.5-5.7,1c-1.7,.4-3,.9-3.8,1.5-.4,.3-.7,.5-.9,.7-.2,.2-.3,.3-.3,.3,0,0,.1-.1,.3-.3,.2-.2,.5-.5,.9-.8,.8-.6,2.2-1.2,3.8-1.7,1.6-.5,3.6-1.2,5.8-1.1,2.2,0,4.4,.8,6.6,1.6,1.1,.4,2.1,1.1,2.8,2,.7,.9,1.4,1.7,2,2.7s.7,2.1,.7,3.1-.2,1.9-.4,2.8c-.4,1.7-1.1,3-1.6,3.8-.7,.8-1.1,1.2-1.1,1.2Z"/></g><g class="cls-8"><path class="cls-26" d="M161.27,45.51s-.3-1.2-.7-3c-.2-.9-.5-1.9-1.3-2.7s-1.6-1.7-2.5-2.6c-.9-.8-1.9-1.6-2.9-2.1s-2-.9-2.9-1c-.9-.2-1.7-.1-2.2-.1-.5,.1-.8,.2-.8,.2,0,0,.3-.1,.8-.2,.5-.1,1.3-.2,2.2-.1,.9,.1,2,.4,3,.9s2,1.3,3,2.1c.9,.9,1.7,1.7,2.5,2.6,.4,.5,.7,.9,.9,1.5,.2,.5,.3,1,.4,1.5,.3,1.8,.5,3,.5,3Z"/></g><g class="cls-8"><path class="cls-26" d="M151.97,32.61s.3-.1,1-.1c.6,0,1.5,.1,2.5,.5s2.2,.8,3.3,1.5c1.2,.7,2.3,1.7,3,3,.6,1.3,.8,2.8,1,4.1,.1,1.3,.2,2.6,.2,3.6,0,2.1-.2,3.5-.2,3.5,0,0,.1-1.4,0-3.5,0-1.1-.2-2.3-.3-3.6-.2-1.3-.4-2.7-1-4-.6-1.2-1.7-2.2-2.8-2.9-1.1-.7-2.2-1.2-3.2-1.6-1-.4-1.8-.6-2.5-.6-.6,0-1,.1-1,.1Z"/></g><g class="cls-8"><path class="cls-26" d="M165.77,46.81s.1-.4,.2-1.2,.2-1.9,.2-3.2c-.1-1.3-.3-2.9-1-4.4s-1.8-2.9-3.3-3.9-3.2-1.4-4.8-1.6c-1.6-.2-3.2-.3-4.5-.3s-2.4,.1-3.2,.3c-.8,.2-1.2,.4-1.2,.4,0,0,.4-.2,1.1-.4,.8-.2,1.9-.4,3.2-.4s2.9,0,4.6,.2,3.5,.6,5,1.6,2.7,2.5,3.4,4.1c.7,1.6,.9,3.2,.9,4.5,0,1.4-.2,2.5-.3,3.2-.2,.7-.3,1.1-.3,1.1Z"/></g><g class="cls-8"><path class="cls-26" d="M160.57,24.31s.1,0,.3-.1c.2-.1,.6-.2,1-.3,.9-.2,2.2-.2,3.7,.2,.7,.2,1.6,.4,2.4,.6,.8,.2,1.7,.5,2.6,.9,1.8,.8,3.4,2.3,4.4,4.1s1.6,3.9,1.3,5.9c-.3,1.9-1.1,3.6-1.6,5-.6,1.4-1,2.6-1.2,3.4-.1,.4-.1,.8-.1,1v0c0-.2,0-.6,.1-1,.1-.9,.5-2.1,1-3.5s1.2-3.1,1.4-4.9c.2-1.8-.4-3.8-1.3-5.5s-2.5-3.1-4.1-3.9c-.8-.4-1.7-.7-2.5-.9-.8-.3-1.6-.5-2.3-.7-1.5-.4-2.7-.5-3.6-.4-.4,0-.8,.1-1,.2-.4-.1-.5-.1-.5-.1Z"/></g><g class="cls-8"><path class="cls-26" d="M162.87,21.81s.1-.1,.3-.2c.2-.1,.6-.3,1-.5,.9-.3,2.3-.4,4-.3s3.6,.4,5.6,1,4,1.6,5.9,2.8,3.7,2.4,5.3,3.8c1.6,1.5,2.4,3.4,2.8,5s.4,3,.4,4-.1,1.5-.1,1.5v-1.5c0-1-.1-2.3-.6-3.9-.4-1.6-1.3-3.3-2.8-4.7-1.5-1.3-3.4-2.6-5.2-3.7-1.9-1.1-3.8-2.1-5.8-2.8-1.9-.7-3.8-1-5.4-1.2-1.6-.1-3-.1-3.9,.1-.5,.1-.8,.3-1,.4-.4,.1-.5,.2-.5,.2Z"/></g><g class="cls-8"><path class="cls-26" d="M185.87,40.91s-.7-2-1.7-4.9c-.3-.7-.6-1.5-1.1-2.2s-1.2-1.3-1.9-2c-1.4-1.3-2.9-2.7-4.5-4s-3.3-2.5-4.9-3.5c-1.7-.9-3.5-1.2-5-1.2s-2.8,.1-3.7,.2c-.9,.1-1.4,.2-1.4,.2,0,0,.5-.1,1.4-.3,.9-.1,2.2-.4,3.7-.4,1.6,0,3.5,.2,5.2,1.1,1.8,.9,3.4,2.2,5,3.5s3.1,2.7,4.5,4.1c.7,.7,1.3,1.4,1.9,2.1,.5,.8,.8,1.6,1.1,2.3,.9,3,1.4,5,1.4,5Z"/></g><g class="cls-8"><path class="cls-26" d="M162.27,22.71s.5-.2,1.5-.4c.9-.2,2.3-.4,4-.4,1.7,.1,3.6,.3,5.6,1,2,.7,4,1.7,5.9,2.9s3.7,2.5,5.1,4.1,2.3,3.4,2.8,5,.6,3,.7,4c0,1-.1,1.5-.1,1.5,0,0,0-.6-.1-1.5-.1-1-.3-2.3-.9-3.9-.6-1.5-1.5-3.3-2.9-4.8s-3.2-2.8-5-4c-1.9-1.2-3.8-2.2-5.8-2.9-1.9-.7-3.8-1.1-5.5-1.2-1.6-.1-3,0-4,.2-.7,.2-1.3,.4-1.3,.4Z"/></g><g class="cls-8"><path class="cls-26" d="M180.67,44.41s0-1.2-.2-2.9c-.1-.9-.2-1.8-.5-2.9-.3-1-.6-2.1-1-3.2-.4-1.1-.7-2.2-1.2-3.1-.5-.9-1.2-1.6-1.9-2.2-.7-.6-1.2-1-1.6-1.4-.4-.3-.6-.5-.6-.5,0,0,.2,.2,.7,.5,.4,.3,1,.7,1.7,1.2s1.5,1.2,2.1,2.2,.9,2.1,1.3,3.2c.4,1.1,.7,2.2,.9,3.3,.2,1.1,.3,2.1,.3,3,.1,1.6,0,2.8,0,2.8Z"/></g><g class="cls-8"><path class="cls-26" d="M176.77,45.51s.3-.7,.5-1.9c.1-.6,.1-1.3,.2-2,0-.7,.1-1.5,.1-2.3s-.2-1.5-.4-2.2c-.2-.7-.4-1.3-.7-1.9-.6-1.1-.9-1.8-.9-1.8,0,0,.5,.6,1.2,1.6,.3,.5,.7,1.1,.9,1.9,.3,.7,.4,1.5,.5,2.4,0,.8-.1,1.6-.2,2.4-.1,.8-.2,1.4-.4,2-.3,1.1-.8,1.8-.8,1.8Z"/></g><g class="cls-8"><path class="cls-26" d="M179.27,44.41s0-.9-.1-2.3c0-.7-.1-1.5-.2-2.4s-.3-1.8-.5-2.6c-.3-.9-.7-1.7-1.1-2.4-.5-.7-.9-1.4-1.4-1.9-.9-1-1.6-1.7-1.6-1.7,0,0,.8,.5,1.8,1.5,.5,.5,1.1,1.1,1.6,1.8s.9,1.6,1.2,2.5c.3,.9,.4,1.9,.5,2.7,.1,.9,0,1.7,0,2.4-.1,1.5-.2,2.4-.2,2.4Z"/></g><g class="cls-8"><path class="cls-26" d="M174.47,27.81s.3,.1,.8,.4c.5,.2,1.3,.6,2.1,1.2,.8,.6,1.8,1.3,2.7,2.2,.9,.9,1.7,2,2.4,3.2,.7,1.2,1,2.6,1.2,3.8,.1,.6,.2,1.3,.3,1.8,0,.3,.1,.6,.1,.8v.8c-.1,2-.4,3.3-.4,3.3,0,0,.1-1.3,.1-3.3,0-.2,0-.5-.1-.7-.1-.3-.1-.5-.2-.8-.1-.6-.2-1.1-.3-1.8-.3-1.2-.6-2.5-1.2-3.6s-1.4-2.2-2.3-3.1c-.8-.9-1.7-1.7-2.5-2.3s-1.5-1.1-2-1.4c-.4-.4-.7-.5-.7-.5Z"/></g><g class="cls-8"><path class="cls-26" d="M177.37,29.91s.2,.2,.6,.5,.9,.7,1.4,1.3c.6,.6,1.2,1.3,1.7,2.2s.9,1.9,1.1,3c.3,1,.4,2.1,.5,3.1s.1,1.9,.1,2.7c-.1,1.6-.3,2.6-.3,2.6v-2.6c0-.8-.1-1.7-.3-2.7-.1-1-.3-2-.6-3-.2-1-.6-2-1-2.9s-1-1.6-1.5-2.2c-.5-.6-1-1.1-1.3-1.4-.2-.4-.4-.6-.4-.6Z"/></g><g class="cls-8"><path class="cls-26" d="M141.37,40.31s-.1-.4,0-1,.4-1.5,1-2.3c.3-.4,.7-.9,1.2-1.2,.6-.2,1.3-.2,1.9-.1,1.3,.3,2.6,1.1,3.5,2.2,.4,.6,.7,1.3,.8,1.9,.1,.7,.2,1.4,.4,2,.1,.6,.3,1.3,.3,1.9s-.1,1.2-.2,1.7c-.2,1-.4,1.9-.5,2.5s0,1,0,1v-1c0-.6,.2-1.5,.4-2.5,.1-.5,.2-1.1,.2-1.7s-.1-1.2-.3-1.9c-.4-1.3-.2-2.8-1.2-3.9-.9-1.1-2.1-1.9-3.4-2.1-.6-.1-1.3-.2-1.8,0s-.9,.7-1.2,1.1c-.6,.9-.9,1.7-1,2.3-.2,.7-.1,1.1-.1,1.1Z"/></g><g class="cls-8"><path class="cls-26" d="M142.07,39.81v-.4c.1-.3,.2-.7,.4-1.1,.1-.2,.3-.4,.4-.7,.1-.2,.4-.5,.7-.6,.6-.2,1.3-.3,1.9-.1,.7,.1,1.3,.4,1.8,.7s1,.7,1.4,.9c.8,.6,1.3,1,1.3,1,0,0-.6-.3-1.4-.9-.4-.3-.9-.6-1.4-.9-.5-.3-1.1-.6-1.8-.7-.6-.1-1.3-.1-1.9,.1-.6,.2-.8,.8-1.1,1.2-.3,.8-.3,1.5-.3,1.5Z"/></g><g class="cls-8"><path class="cls-26" d="M143.17,39.81s-.1-.1-.1-.3,.1-.5,.3-.8c.2-.3,.5-.6,1-.8,.4-.2,1-.1,1.4,0,.5,.1,.9,.4,1.3,.6,.4,.2,.8,.5,1.1,.7,.6,.4,1,.7,1,.7,0,0-.4-.3-1-.7-.3-.2-.7-.4-1.1-.6-.4-.2-.8-.4-1.3-.6-.5-.1-1-.2-1.4,0s-.7,.5-1,.7c-.3,.3-.4,.6-.3,.8,0,.2,.1,.3,.1,.3Z"/></g><g class="cls-8"><path class="cls-26" d="M144.17,39.51s.2-.6,1-.8c.4-.1,.9-.1,1.3,.1,.5,.2,.9,.5,1.2,1,.3,.4,.6,.9,.7,1.3,.2,.5,.3,.9,.3,1.3,.1,.8,0,1.3,0,1.3,0,0,0-.5-.1-1.3-.1-.4-.2-.8-.4-1.3-.2-.4-.4-.9-.7-1.3-.3-.4-.7-.7-1.1-.9s-.9-.2-1.3-.1c-.4,.1-.7,.3-.8,.4,0,.2-.1,.3-.1,.3Z"/></g><g class="cls-8"><path class="cls-26" d="M151.87,35.51h.6c.4,0,.9,.1,1.5,.3s1.3,.5,1.9,1c.6,.4,1.3,1,1.9,1.6s1.1,1.3,1.4,2c.4,.7,.6,1.4,.8,2,.4,1.2,.7,2,.7,2,0,0-.3-.8-.7-1.9-.2-.6-.5-1.3-.8-2-.4-.7-.9-1.4-1.4-1.9-.6-.6-1.2-1.1-1.8-1.6-.6-.4-1.3-.8-1.9-1s-1.1-.3-1.5-.4c-.5-.1-.7-.1-.7-.1Z"/></g><g class="cls-8"><path class="cls-26" d="M159.07,44.71s-.1-.1-.2-.4c-.1-.3-.1-.7-.2-1.2s-.1-1.1-.5-1.6c-.3-.5-.7-1-1.1-1.5s-.9-1-1.4-1.4-.9-.7-1.4-1c-.8-.5-1.5-.7-1.5-.7,0,0,.7,.1,1.5,.6,.4,.2,.9,.6,1.4,1s.9,.9,1.4,1.4c.4,.5,.9,1,1.2,1.6,.3,.6,.4,1.2,.4,1.6,0,.5,.1,.9,.2,1.2,.1,.2,.2,.4,.2,.4Z"/></g><g class="cls-8"><path class="cls-26" d="M156.97,45.31s-.1-.5-.2-1.3c0-.4-.1-.9-.3-1.4-.1-.5-.3-1-.6-1.5-.2-.5-.5-1-.8-1.4s-.6-.8-.9-1.1c-.6-.6-1-.9-1-.9,0,0,.5,.3,1,.9,.3,.3,.6,.7,.9,1.1,.3,.4,.6,.9,.8,1.4,.2,.5,.4,1,.6,1.5,.1,.5,.2,1,.2,1.4,.2,.8,.3,1.3,.3,1.3Z"/></g><g class="cls-8"><path class="cls-26" d="M154.17,38.01s.7,.2,1.4,.8c.4,.3,.8,.7,1.2,1.2,.4,.5,.8,1,.9,1.7,.1,.6,.4,1.3,.6,1.8,.2,.6,.4,1.1,.4,1.6,.1,.5,0,.9-.1,1.2s-.1,.4-.1,.4c0,0,.3-.6,.1-1.6-.1-.5-.2-1-.5-1.6-.2-.6-.5-1.2-.6-1.8-.1-.7-.5-1.2-.9-1.6-.4-.5-.8-.9-1.1-1.2-.7-.7-1.3-.9-1.3-.9Z"/></g><g class="cls-8"><path class="cls-26" d="M147.37,39.01s.2,.1,.5,.3,.6,.6,.9,1.2c.3,.6,.5,1.3,.6,2.1s.1,1.6,.1,2.5c0,.8,0,1.7-.2,2.4-.2,.8-.4,1.5-.6,2.1-.4,1.2-.6,2-.6,2,0,0,.2-.8,.6-2,.2-.6,.4-1.3,.5-2.1,.2-.8,.2-1.6,.2-2.4s0-1.7-.1-2.4c-.1-.8-.3-1.5-.5-2-.3-.6-.6-1-.9-1.2-.3-.4-.5-.5-.5-.5Z"/></g><g class="cls-8"><path class="cls-26" d="M149.87,39.31s.5,.4,.9,1.1c.2,.4,.4,.9,.6,1.4,.1,.5,.1,1.1,.1,1.7s-.1,1.2-.1,1.7c-.1,.6-.1,1.1-.2,1.5-.2,.9-.3,1.4-.3,1.4,0,0,.1-.6,.3-1.5,.1-.4,.1-1,.1-1.5s.1-1.1,.1-1.7,0-1.2-.1-1.7-.3-1-.5-1.4c-.5-.6-.9-1-.9-1Z"/></g><g class="cls-8"><path class="cls-26" d="M154.67,46.81s.2-.9-.1-2.2c-.1-.6-.3-1.4-.6-2.2-.1-.4-.2-.8-.3-1.2-.1-.4-.3-.8-.5-1.2-.3-.8-.7-1.6-1.2-2.2-.5-.6-1.2-1.1-1.7-1.3-.6-.3-1.1-.5-1.5-.6s-.6-.2-.6-.2c0,0,.2,.1,.6,.2,.4,.1,.9,.3,1.5,.5,.6,.3,1.3,.7,1.8,1.3,.5,.7,.9,1.5,1.2,2.3,.2,.4,.4,.8,.5,1.2s.2,.8,.3,1.2c.2,.8,.4,1.5,.5,2.2,.3,1.3,.1,2.2,.1,2.2Z"/></g><g class="cls-8"><path class="cls-26" d="M158.57,34.31s.3,0,.7,.2c.4,.1,1,.4,1.6,.9s1.3,1.1,1.9,1.8c.3,.4,.6,.8,.9,1.2,.2,.4,.4,.9,.7,1.4,.2,.5,.4,1,.6,1.4,.2,.5,.4,.9,.4,1.4,.2,1,.2,1.9,.1,2.6-.1,.8-.1,1.4-.2,1.9-.1,.4-.1,.7-.1,.7,0,0,0-.3,.1-.7,0-.4,.1-1.1,.1-1.9s0-1.7-.2-2.6c-.1-.5-.3-.9-.4-1.4-.2-.5-.3-1-.6-1.4-.2-.5-.4-.9-.7-1.4-.3-.4-.5-.8-.9-1.2-.6-.7-1.3-1.4-1.9-1.8-.6-.5-1.2-.8-1.6-.9-.2-.2-.5-.2-.5-.2Z"/></g><g class="cls-8"><path class="cls-26" d="M164.37,47.51s.1-.8,.2-1.9c.1-.6,.1-1.2,.2-1.9,0-.7,0-1.5-.1-2.2s-.4-1.4-.7-2.1c-.3-.6-.6-1.2-.9-1.7-.6-1-1.2-1.4-1.2-1.4,0,0,.2,.1,.4,.3,.3,.2,.6,.6,.9,1,.3,.5,.6,1.1,.9,1.7,.3,.6,.6,1.4,.7,2.1,.1,.8,.1,1.5,.1,2.2-.1,.7-.2,1.4-.2,1.9-.2,1.2-.3,2-.3,2Z"/></g><g class="cls-8"><path class="cls-26" d="M151.87,30.51s.1,0,.4-.1c.2-.1,.6-.1,1-.2,.9-.2,2.1-.4,3.6-.4s3.3,.2,5.1,.8c1.8,.6,3.6,1.6,5.1,3,.7,.7,1.4,1.4,2.1,2.1,.7,.7,1.2,1.6,1.5,2.5,.5,1.8,.8,3.6,.3,5.1-.4,1.5-1.1,2.5-1.5,3.3s-.6,1.2-.6,1.2c0,0,.2-.5,.6-1.3,.3-.8,1-1.9,1.4-3.4,.5-1.5,.2-3.3-.3-5.1-.6-1.8-2.2-3.2-3.6-4.6-1.5-1.4-3.2-2.4-5-3s-3.5-.8-5.1-.8c-1.5,0-2.8,.2-3.6,.3-.4,.1-.8,.2-1,.2-.2,.3-.4,.4-.4,.4Z"/></g><g class="cls-8"><path class="cls-26" d="M168.07,47.11s.3-.8,.8-1.9c.2-.6,.5-1.2,.7-2,.2-.7,.4-1.5,.3-2.4,0-.8-.2-1.6-.5-2.3-.2-.7-.6-1.4-.8-1.9-.6-1.1-1-1.8-1-1.8,0,0,.5,.7,1.1,1.8,.3,.5,.6,1.2,.9,1.9s.5,1.5,.5,2.4c0,.8-.1,1.7-.3,2.4-.2,.7-.5,1.4-.8,2-.5,1.1-.9,1.8-.9,1.8Z"/></g><g class="cls-9"><path class="cls-57" d="M121.97,98.41s.2,.3,.5,.9c.3,.6,.8,1.4,1.5,2.3,.6,.9,1.5,2,2.4,3,.9,1.1,1.9,2.2,2.9,3.3s2,2.3,2.9,3.4c.9,1.1,1.7,2.2,2.3,3.1,1.3,1.9,1.9,3.2,1.9,3.2,0,0-.8-1.3-2.2-3.1-.7-.9-1.5-1.9-2.4-3s-1.9-2.2-2.9-3.3-2-2.3-2.9-3.4c-.9-1.1-1.6-2.2-2.3-3.2-.6-1-1-1.8-1.3-2.4-.2-.4-.4-.8-.4-.8Z"/></g><g class="cls-9"><path class="cls-57" d="M124.37,98.11s.7,1,1.8,2.6c.5,.8,1.2,1.7,1.9,2.6,.7,.9,1.5,1.9,2.3,2.9s1.6,2,2.3,2.9c.8,.9,1.5,1.7,2.1,2.4,1.3,1.4,2.1,2.4,2.1,2.4,0,0-1-.8-2.3-2.1-.7-.7-1.5-1.5-2.3-2.3-.8-.9-1.6-1.9-2.4-2.8-.8-1-1.5-2-2.2-3s-1.3-1.9-1.8-2.7c-1-1.7-1.5-2.9-1.5-2.9Z"/></g><g class="cls-9"><path class="cls-57" d="M126.97,98.31s1.1,1,2.6,2.4c.8,.7,1.7,1.6,2.7,2.5s2,1.9,3.1,2.8c1.1,1,2.1,1.9,3.2,2.8,1,.9,2,1.7,2.8,2.3,.9,.7,1.6,1.2,2.1,1.6,.2,.2,.5,.3,.6,.3,.2,0,.2-.1,.2-.1,0,0,0,.1-.2,.1s-.4,0-.7-.2c-.5-.3-1.3-.8-2.2-1.4-.9-.6-1.9-1.3-3-2.2-1.1-.8-2.2-1.8-3.2-2.7-1.1-1-2.1-1.9-3.1-2.9-1-.9-1.8-1.9-2.6-2.6-1.3-1.6-2.3-2.7-2.3-2.7Z"/></g><g class="cls-9"><path class="cls-57" d="M131.07,99.41s1,1,2.6,2.3c.8,.7,1.8,1.4,2.8,2.3,1,.8,2.2,1.6,3.3,2.4,1.2,.8,2.4,1.5,3.5,2.2,1.1,.6,2.2,1.3,3.2,1.7,1.9,1,3.2,1.5,3.2,1.5,0,0-1.3-.4-3.3-1.3-1-.4-2.1-1-3.3-1.6-1.2-.6-2.4-1.4-3.6-2.1-1.2-.8-2.3-1.6-3.3-2.5-1-.8-1.9-1.7-2.7-2.4-1.5-1.4-2.4-2.5-2.4-2.5Z"/></g><g class="cls-9"><path class="cls-57" d="M132.77,97.31s.3,.3,.8,.7c.5,.5,1.3,1.1,2.3,1.8s2.2,1.4,3.5,2.1c1.3,.7,2.8,1.3,4.2,1.8,1.5,.5,3,1,4.4,1.4s2.8,.7,3.9,1c2.3,.5,3.9,.9,3.9,.9,0,0-1.6-.2-3.9-.6-1.2-.2-2.5-.5-4-.8-1.5-.4-3-.8-4.5-1.4-1.5-.6-3-1.2-4.3-1.9s-2.5-1.5-3.4-2.2-1.7-1.4-2.1-1.9c-.5-.6-.8-.9-.8-.9Z"/></g><g class="cls-9"><path class="cls-57" d="M134.47,96.51s.4,.2,1.1,.6c.7,.4,1.8,.8,3,1.3,1.3,.5,2.8,1,4.4,1.4,1.7,.4,3.4,.8,5.2,1.1,1.8,.3,3.6,.5,5.3,.7,1.7,.2,3.3,.3,4.7,.4,2.7,.2,4.6,.3,4.6,.3h-4.6c-1.4,0-3-.1-4.7-.2-1.7-.1-3.5-.3-5.4-.6-1.8-.3-3.6-.7-5.3-1.2-1.7-.5-3.2-1-4.4-1.6-1.3-.6-2.3-1.1-3-1.5-.5-.5-.9-.7-.9-.7Z"/></g><g class="cls-9"><path class="cls-57" d="M161.17,100.85c-.9,.1-.2,.2-1.7,.1-1.5-.1-1.3-.3-3.2-.6-1.9-.3-3.8-.8-5.8-1.3s-3.9-1-5.7-1.6c-1.8-.6-3.5-1.2-4.9-1.8s-2.5-1.2-3.3-1.6c-.9-.4-1.3-.7-1.3-.7,0,0,.5,.2,1.3,.6,.8,.4,2,.9,3.4,1.4s3.1,1.1,4.9,1.6,3.8,1,5.7,1.5c2,.5,3.9,1,5.8,1.4,1.8,.4,1.6,.7,3.1,.8s.8,.1,1.7,.1"/></g><g class="cls-9"><path class="cls-57" d="M142.57,92.71l3,1.5c.9,.4,2,.9,3.1,1.4,1.2,.5,2.4,1,3.7,1.4,1.3,.4,2.5,.8,3.7,1.2,1.2,.3,2.3,.6,3.3,.9,2,.5,3.3,.7,3.3,.7,0,0-1.3-.1-3.3-.5-1-.2-2.1-.5-3.3-.8-1.2-.3-2.5-.7-3.8-1.2-1.3-.4-2.5-.9-3.7-1.4-1.1-.5-2.2-1-3.1-1.5-1.8-1-2.9-1.7-2.9-1.7Z"/></g><g class="cls-9"><path class="cls-57" d="M139.87,90.51s1.4,.6,3.5,1.4c1.1,.4,2.3,.9,3.6,1.4,1.3,.5,2.7,1,4.2,1.5,1.4,.5,2.9,1,4.2,1.5,1.3,.4,2.6,.9,3.7,1.2,2.2,.7,3.6,1.2,3.6,1.2,0,0-1.5-.4-3.6-1-1.1-.3-2.4-.7-3.7-1.1-1.4-.4-2.8-.9-4.2-1.4-1.4-.5-2.8-1-4.2-1.5-1.3-.5-2.5-1-3.6-1.5-2.1-1.1-3.5-1.7-3.5-1.7Z"/></g><g class="cls-9"><path class="cls-57" d="M145.87,91.01s.3,.2,.9,.4c.6,.3,1.4,.7,2.4,1.1,1,.4,2.2,.9,3.5,1.3,1.3,.4,2.7,.8,4.1,1.2,1.4,.3,2.9,.6,4.2,.8,1.4,.2-.52,.84,.58,.84,1.1,.1-4.7-1-4-1,.6,0,4,1,4,1h-2c-.6,0,2.1,0,1,0s1.72-.54,.32-.64c-1.4-.2-2.8-.5-4.2-.8-1.4-.4-2.8-.8-4.1-1.2-1.3-.5-2.5-1-3.5-1.4l-2.4-1.2-.8-.4Z"/></g><g class="cls-9"><path class="cls-57" d="M119.87,101.01s.8,1,2.1,2.5c.6,.7,1.3,1.6,2.1,2.5,.8,.9,1.6,1.9,2.4,2.9s1.7,2,2.5,2.9,1.5,1.8,2.2,2.5c1.3,1.5,2.1,2.4,2.1,2.4,0,0-.9-.9-2.2-2.3-.7-.7-1.4-1.5-2.2-2.4-.8-.9-1.7-1.9-2.5-2.8-.8-1-1.7-2-2.4-2.9-.8-.9-1.5-1.8-2.1-2.6-1.2-1.6-2-2.7-2-2.7Z"/></g><g class="cls-9"><path class="cls-57" d="M101.47,109.31s.1,.3,.1,.7c0,.2,0,.5-.1,.7-.1,.3-.1,.5-.2,.8s-.2,.5-.2,.8c-.1,.2-.1,.5-.1,.7,0,.4,.1,.7,.1,.7,0,0-.2-.2-.2-.7v-.7c0-.3,.1-.5,.2-.8,.1-.3,.2-.5,.3-.8,.1-.2,.1-.5,.2-.7-.1-.4-.1-.7-.1-.7Z"/></g><g class="cls-9"><path class="cls-57" d="M100.77,109.21s.1,.3,0,.9c0,.3-.1,.6-.1,.9-.1,.3-.1,.6-.2,1-.1,.3-.1,.7-.1,1v.9c0,.6-.3,.8-.3,.8,0,0,.2-.3,.1-.8,0-.3-.1-.5-.1-.9,0-.3,0-.7,.1-1s.2-.7,.2-1c.1-.3,.2-.6,.2-.8,.2-.6,.2-1,.2-1Z"/></g><g class="cls-9"><path class="cls-57" d="M101.97,110.31s.3,.4,.2,1.2c0,.4-.1,.8-.2,1.3-.1,.4-.3,.9-.4,1.4s-.2,1-.3,1.4c-.1,.4-.2,.9-.3,1.2-.1,.4-.2,.7-.2,.9-.1,.2,.1,.3,.1,.3,0,0-.1-.1-.1-.3s.1-.5,.1-.9c.1-.4,.1-.8,.2-1.3s.2-.9,.3-1.4,.3-.9,.4-1.4c.1-.4,.3-.8,.3-1.2,.1-.7-.1-1.2-.1-1.2Z"/></g><g class="cls-9"><path class="cls-57" d="M102.37,111.31s.2,.5,.3,1.3c.1,.4,.1,.8,.1,1.3v3c0,.5,0,.9,.1,1.3,.1,.4,.3,.6,.4,.8s.2,.3,.2,.3c0,0-.1-.1-.2-.3s-.3-.4-.5-.8c-.2-.4-.2-.8-.2-1.3v-3c0-.5,0-.9-.1-1.3,0-.8-.1-1.3-.1-1.3Z"/></g><g class="cls-9"><path class="cls-57" d="M102.77,111.81s.4,.6,.9,1.7c.2,.5,.5,1.2,.7,1.9s.3,1.5,.5,2.2,.5,1.4,.8,2c.4,.6,.7,1.2,1.2,1.5,.4,.4,.8,.6,1.2,.7,.3,.1,.5,.1,.5,.1h-.5c-.3-.1-.8-.2-1.3-.6-.4-.4-.9-.9-1.3-1.5s-.7-1.3-.9-2.1c-.2-.8-.3-1.5-.4-2.2-.2-.7-.4-1.3-.6-1.9-.4-1.1-.8-1.8-.8-1.8Z"/></g><g class="cls-9"><path class="cls-57" d="M104.07,112.31s0,.2,.1,.6c.1,.4,.4,.8,.8,1.3s1,1,1.5,1.6c.6,.6,1.2,1.1,1.9,1.7,.7,.5,1.4,1,2.1,1.4s1.4,.7,2,.9,1.1,.3,1.5,.4c.4,.1,.6,.1,.6,.1h-.6c-.4,0-.9-.1-1.5-.3s-1.3-.4-2.1-.8c-.7-.4-1.5-.9-2.1-1.4-.7-.5-1.3-1.1-1.9-1.7-.6-.6-1.1-1.1-1.5-1.7-.4-.5-.6-1-.7-1.4-.1-.5-.1-.7-.1-.7Z"/></g><g class="cls-9"><path class="cls-57" d="M105.67,113.71s.8,.5,2.1,1.2l2.2,1.1c.8,.4,1.7,.7,2.7,1,.9,.3,1.9,.5,2.8,.6s1.7,.2,2.5,.2c1.5,.1,2.4,.3,2.4,.3,0,0-1-.1-2.4-.2-.7,0-1.6,0-2.5-.2-.9-.1-1.9-.3-2.8-.6s-1.8-.7-2.7-1c-.8-.4-1.6-.8-2.2-1.2-1.4-.6-2.1-1.2-2.1-1.2Z"/></g><g class="cls-9"><path class="cls-57" d="M107.87,112.71s1.2,.4,3.1,1.1c.9,.3,2,.7,3.2,1.1,1.2,.4,2.4,.8,3.7,1.1,1.3,.4,2.5,.6,3.7,.9,1.2,.3,2.3,.5,3.3,.7,1.9,.5,3.1,1,3.1,1,0,0-1.2-.4-3.2-.8-1-.2-2.1-.4-3.3-.7-1.2-.2-2.5-.5-3.7-.9-1.3-.3-2.5-.7-3.7-1.1-1.2-.4-2.2-.8-3.1-1.1-1.9-.8-3.1-1.3-3.1-1.3Z"/></g><g class="cls-9"><path class="cls-57" d="M110.67,110.81s.2,.3,.8,.7c.5,.4,1.4,.7,2.5,1.1,.5,.2,1.1,.5,1.7,.7s1.2,.4,1.9,.6c1.3,.4,2.8,.8,4.2,1.2,1.5,.4,2.9,.8,4.3,1.2s2.6,.7,3.7,.9c2.2,.5,3.7,.8,3.7,.8,0,0-1.5-.2-3.7-.6-1.1-.2-2.4-.5-3.8-.8s-2.8-.7-4.3-1.1c-1.4-.4-2.9-.8-4.2-1.2-.7-.2-1.3-.5-1.9-.7-.6-.3-1.1-.5-1.7-.8-1-.5-1.9-.9-2.4-1.2-.6-.5-.8-.8-.8-.8Z"/></g><g class="cls-9"><path class="cls-57" d="M113.07,108.71s.2,.2,.7,.6c.4,.4,1.1,.9,1.9,1.5s1.8,1.2,2.9,1.7c1.1,.6,2.3,1.1,3.5,1.5s2.5,.8,3.7,1.1,2.3,.6,3.3,.8c1.9,.4,3.2,.6,3.2,.6,0,0-1.3-.1-3.3-.5-1-.2-2.1-.4-3.3-.7-1.2-.3-2.5-.7-3.7-1.1-1.2-.5-2.5-1-3.6-1.6s-2.1-1.2-2.9-1.8-1.4-1.1-1.8-1.6c-.4-.3-.6-.5-.6-.5Z"/></g><g class="cls-9"><path class="cls-57" d="M117.17,107.51s.2,.3,.5,.7,.9,1.1,1.6,1.7c.7,.6,1.7,1.2,2.8,1.7,1.1,.5,2.3,1.1,3.4,1.6,1.2,.6,2.3,1.1,3.4,1.6s2.1,.9,3,1.3c1.8,.7,3,1.1,3,1.1,0,0-1.3-.3-3.1-.9-.9-.3-2-.7-3.1-1.2s-2.3-1-3.5-1.6-2.3-1.1-3.4-1.7c-1.1-.6-2-1.2-2.8-1.8-.7-.6-1.2-1.3-1.6-1.8,0-.4-.2-.7-.2-.7Z"/></g><g class="cls-9"><path class="cls-57" d="M118.07,102.81s.8,1,2.1,2.4c.6,.7,1.3,1.6,2.2,2.4,.8,.9,1.7,1.8,2.7,2.6s2,1.6,3,2.2c1,.6,2,1.2,2.8,1.7,1.6,1,2.7,1.7,2.7,1.7,0,0-1.1-.6-2.8-1.6-.8-.5-1.8-1-2.8-1.7-1-.6-2.1-1.4-3.1-2.2s-1.9-1.7-2.7-2.6c-.8-.9-1.5-1.8-2.1-2.5-1.2-1.4-2-2.4-2-2.4Z"/></g><g class="cls-9"><path class="cls-57" d="M127.17,99.31s0,.4,.3,.9c.3,.6,.8,1.3,1.5,2.1s1.5,1.8,2.5,2.8c.9,1,2,2,3,3s2.1,2,3.2,2.8,2.2,1.5,3.1,2l2.4,1.2c.6,.3,.9,.4,.9,.4,0,0-.3-.1-.9-.4-.6-.2-1.4-.6-2.4-1.1s-2.1-1.1-3.2-1.9c-1.1-.8-2.2-1.8-3.2-2.8s-2.1-2-3-3-1.8-2-2.4-2.8c-.7-.9-1.2-1.6-1.4-2.2-.4-.6-.4-1-.4-1Z"/></g><g class="cls-9"><path class="cls-26" d="M115.27,118.81s.3,0,.8,.1,1.2,.1,2,.4c.8,.2,1.7,.6,2.7,1s2,.6,3.1,.6c1.1,.1,2.2,0,3.2,0s2-.1,2.8-.2c1.7-.2,2.8-.3,2.8-.3,0,0-1.1,.3-2.7,.5-.8,.1-1.8,.2-2.8,.3s-2.2,.1-3.3,0c-1.1-.1-2.2-.3-3.2-.7s-1.8-.8-2.6-1c-.8-.3-1.5-.4-1.9-.5-.7-.2-.9-.2-.9-.2Z"/></g><g class="cls-9"><path class="cls-26" d="M107.67,119.81s.2,0,.6,.1c.2,0,.4,.1,.6,.3,.2,.1,.4,.4,.7,.5,.6,.2,1.3,.4,2.1,.5,.8,.1,1.6,.2,2.5,.3,.8,.1,1.7,.1,2.5,.3,.8,.1,1.5,.3,2.1,.4,1.2,.3,2.1,.3,2.1,.3,0,0-.9,0-2.1-.2-.6-.1-1.4-.2-2.1-.3-.8-.1-1.6-.2-2.5-.2-.8-.1-1.7-.2-2.5-.3-.8-.2-1.5-.3-2.1-.6-.3-.2-.5-.4-.7-.6-.2-.2-.4-.3-.6-.3-.4-.3-.6-.2-.6-.2Z"/></g><g class="cls-9"><path class="cls-57" d="M142.17,101.21s1.1,.3,2.7,.8c.8,.2,1.8,.5,2.8,.8s2.1,.6,3.2,.9c1.1,.3,2.2,.6,3.2,.8s2,.4,2.8,.6c1.7,.3,2.8,.3,2.8,.3,0,0-1.1,0-2.8-.2-.8-.1-1.8-.3-2.9-.5-1-.2-2.2-.5-3.3-.8-1.1-.3-2.2-.6-3.2-.9-1-.3-2-.6-2.8-.9-1.5-.5-2.5-.9-2.5-.9Z"/></g><g class="cls-9"><path class="cls-57" d="M138.47,103.01s.2,.2,.7,.4c.4,.3,1.1,.6,1.9,.9,.8,.3,1.7,.7,2.7,1.1,1,.4,2,.9,3.1,1.3,1.1,.5,2.1,1,3.1,1.3,1,.4,2,.7,2.8,.9,1.7,.5,2.8,.5,2.8,.5,0,0-1.2,0-2.9-.4-.8-.2-1.8-.5-2.8-.9s-2.1-.8-3.1-1.3c-1.1-.5-2.1-.9-3.1-1.4-1-.4-1.9-.9-2.7-1.2-.8-.4-1.4-.7-1.8-1-.5,0-.7-.2-.7-.2Z"/></g><g class="cls-9"><path class="cls-57" d="M135.97,94.81s.9,.4,2.3,.9c.7,.3,1.5,.6,2.3,.9,.9,.3,1.8,.6,2.7,1,.9,.3,1.8,.6,2.7,.9,.9,.3,1.7,.6,2.3,.8,1.4,.5,2.3,.8,2.3,.8,0,0-.9-.2-2.3-.6-.7-.2-1.5-.4-2.4-.7s-1.8-.6-2.7-.9c-.9-.3-1.8-.7-2.7-1-.8-.3-1.6-.7-2.3-1-1.3-.6-2.2-1.1-2.2-1.1Z"/></g><g class="cls-9"><path class="cls-57" d="M96.67,93.31s0-.3-.3-.7c-.1-.2-.2-.4-.4-.6-.1-.2-.2-.5-.3-.8s-.1-.6-.1-.9,0-.5,.1-.8c.1-.4,.2-.7,.2-.7,0,0-.1,.3-.1,.7v.7c0,.3,.1,.5,.1,.8,.1,.3,.1,.5,.2,.8,.1,.2,.2,.5,.3,.7,.4,.5,.3,.8,.3,.8Z"/></g><g class="cls-9"><path class="cls-57" d="M97.37,93.11s-.1-.4-.3-.9c-.1-.3-.1-.6-.2-1,0-.4-.1-.8,0-1.1,0-.4,.1-.8,.2-1.1,.1-.4,.2-.7,.3-.9,.2-.5,.4-.9,.4-.9,0,0-.1,.4-.2,.9-.1,.3-.2,.6-.2,.9-.1,.3-.1,.7-.2,1.1v1.1c0,.4,0,.7,.1,1,.1,.5,.1,.9,.1,.9Z"/></g><g class="cls-9"><path class="cls-57" d="M98.07,92.41v-.8c0-.3,0-.5-.1-.9v-1c.1-.3,.1-.7,.3-1,.1-.3,.3-.6,.4-.8,.2-.4,.4-.7,.4-.7,0,0-.1,.3-.3,.8-.1,.2-.2,.5-.3,.8s-.2,.6-.2,.9-.1,.7-.1,1v.9c0,.4-.1,.8-.1,.8Z"/></g><g class="cls-9"><path class="cls-57" d="M99.77,91.71v-4.8s.1,.3,.1,.7c0,.2,.1,.5,.1,.8v1.8c0,.3,0,.5-.1,.8-.1,.4-.1,.7-.1,.7Z"/></g><g class="cls-9"><path class="cls-57" d="M99.07,92.01s0-.3-.1-.8c0-.2,0-.5-.1-.8v-.9c0-.3,0-.6,.1-.9,.1-.3,.1-.6,.2-.8,.2-.4,.4-.7,.4-.7,0,0-.1,.3-.2,.7-.1,.2-.1,.5-.1,.8s-.1,.6-.1,.9v1.7c0,.5-.1,.8-.1,.8Z"/></g><g class="cls-9"><path class="cls-57" d="M100.67,91.71s.1-.3,.2-.8c.1-.2,.1-.5,.1-.8v-1c0-.3-.1-.7-.1-1-.1-.3-.1-.6-.2-.8-.2-.5-.3-.8-.3-.8,0,0,.2,.3,.5,.7,.1,.2,.2,.5,.3,.8s.1,.7,.2,1v1c-.1,.3-.1,.6-.2,.9-.3,.5-.5,.8-.5,.8Z"/></g><g class="cls-9"><path class="cls-57" d="M102.47,92.11s.1-.3,.2-.8c0-.2,.1-.5,.1-.8s0-.6-.1-.9c-.1-.3-.2-.6-.3-.9-.1-.3-.2-.6-.3-.8-.2-.4-.3-.7-.3-.7,0,0,.2,.2,.5,.7,.1,.2,.3,.5,.4,.8s.2,.6,.3,.9c.1,.3,.1,.7,.1,1s-.1,.6-.2,.8c-.3,.4-.4,.7-.4,.7Z"/></g><g class="cls-9"><path class="cls-57" d="M102.37,105.01l.4,.2c.1,.1,.2,.1,.4,.2,.1,.1,.3,.2,.4,.3s.3,.2,.4,.3,.2,.2,.4,.2c.2,.1,.3,.3,.3,.3,0,0-.2,0-.4-.1-.1,0-.3-.1-.4-.2-.1-.1-.3-.2-.4-.2-.1-.1-.3-.2-.4-.3s-.2-.2-.3-.3c-.3-.2-.4-.4-.4-.4Z"/></g><g class="cls-9"><path class="cls-57" d="M102.07,105.11s0,.2,.2,.3c.1,.1,.2,.2,.3,.3,.1,.1,.2,.2,.4,.4,.1,.1,.3,.2,.4,.3s.2,.2,.3,.3c.2,.2,.3,.4,.3,.4,0,0-.1-.1-.4-.2-.1-.1-.3-.1-.4-.2-.1-.1-.3-.2-.4-.3s-.3-.3-.4-.4c-.1-.1-.2-.3-.3-.4-.1-.3-.1-.5,0-.5Z"/></g><g class="cls-9"><path class="cls-57" d="M101.47,104.71s.2,.1,.4,.4c.1,.1,.2,.3,.3,.4,.1,.2,.2,.3,.3,.5,.1,.2,.2,.4,.3,.6,.1,.2,.1,.4,.1,.5v.5s0-.2-.1-.5c0-.1-.1-.3-.2-.5s-.2-.3-.3-.5c-.1-.2-.2-.4-.3-.5-.1-.2-.2-.3-.2-.5-.2-.2-.3-.4-.3-.4Z"/></g><g class="cls-9"><path class="cls-57" d="M101.37,104.71s.1,.2,.2,.5c.1,.2,.1,.4,.2,.6,.1,.2,.1,.4,.2,.6,.1,.2,.1,.4,.2,.7,.1,.2,.1,.4,.1,.6,0,.4-.1,.6-.1,.6,0,0,.1-.2-.1-.6,0-.2-.1-.3-.2-.5s-.1-.4-.2-.6c-.1-.2-.1-.4-.2-.7,0-.2-.1-.4-.1-.6v-.6Z"/></g><g class="cls-9"><path class="cls-57" d="M101.27,104.91s.1,.2,.2,.5c0,.2,.1,.3,.1,.5v1.7c0,.3,.1,.5,.1,.5,0,0-.1-.2-.2-.5,0-.2-.1-.3-.1-.5v-1.7c0-.3-.1-.5-.1-.5Z"/></g><g class="cls-9"><path class="cls-57" d="M100.77,104.61s.2,.2,.3,.6c.1,.2,.1,.4,.1,.7s0,.5-.1,.8-.1,.5-.2,.7c-.1,.2-.1,.4-.1,.6v.7s-.1-.3-.1-.7v-.7c0-.3,.1-.5,.2-.8,.1-.2,.1-.5,.1-.7s0-.5-.1-.6c0-.4-.1-.6-.1-.6Z"/></g><g class="cls-9"><path class="cls-57" d="M100.57,104.61s.1,.2,.1,.5c0,.2,.1,.4,.1,.6s0,.4-.1,.7c-.1,.2-.1,.4-.2,.6-.1,.2-.1,.4-.2,.5-.1,.2-.3,.2-.4,.2h-.2s.3,0,.4-.3c.1-.1,.1-.3,.1-.5,.1-.2,.1-.4,.2-.6,.1-.2,.1-.4,.1-.6v-.5c.1-.4,.1-.6,.1-.6Z"/></g><g class="cls-9"><path class="cls-57" d="M100.47,104.61s.1,.1,.2,.4c0,.1,.1,.3,0,.5s-.2,.3-.3,.5c-.1,.1-.2,.3-.3,.4l-.3,.3-.3,.3s0-.2,.1-.4c.1-.1,.1-.3,.2-.4s.2-.3,.3-.4c.1-.1,.2-.3,.3-.4,.1-.1,.1-.3,.1-.4v-.4Z"/></g><g class="cls-9"><path class="cls-57" d="M100.27,104.41s0,.2-.2,.4c-.1,.1-.1,.2-.3,.4l-.4,.4c-.1,.1-.3,.2-.4,.3-.1,.1-.3,.1-.4,.2-.2,.1-.4,.2-.4,.2l.3-.3,.3-.3c.1-.1,.2-.2,.4-.3,.1-.1,.2-.2,.4-.3l.3-.3c.2-.3,.4-.4,.4-.4Z"/></g><g class="cls-9"><path class="cls-57" d="M113.67,101.81s.1,.8,.5,1.8c.2,.5,.5,1.1,.9,1.7,.3,.6,.7,1.3,1,2s.7,1.4,1,2,.6,1.2,1,1.6c.4,.4,.8,.7,1.1,.8,.3,.1,.5,.2,.5,.2,0,0-.2,0-.5-.1s-.7-.3-1.2-.7c-.4-.4-.8-1-1.1-1.6-.3-.6-.7-1.3-1-2s-.7-1.4-1-2-.6-1.2-.8-1.8c-.4-1.1-.4-1.9-.4-1.9Z"/></g><g class="cls-9"><path class="cls-57" d="M113.07,98.61s.1-.6,0-1.5c0-.4-.1-.9-.2-1.5-.1-.5-.3-1.1-.5-1.6s-.5-1.1-.8-1.5c-.3-.5-.6-.9-.9-1.2-.6-.7-1-1-1-1,0,0,.5,.3,1.1,.9,.3,.3,.7,.7,1,1.2s.6,1,.8,1.5c.2,.6,.4,1.1,.5,1.7,.1,.6,.1,1.1,.1,1.5,.1,1-.1,1.5-.1,1.5Z"/></g><g class="cls-9"><path class="cls-57" d="M112.17,97.51s-.1-.6-.3-1.4c-.1-.4-.3-.9-.5-1.4s-.5-1-.7-1.5c-.3-.5-.5-1-.8-1.5-.2-.5-.5-.9-.7-1.3-.2-.4-.4-.7-.6-.8s-.4,0-.4,0c0,0,.1-.1,.4,0s.5,.4,.8,.7c.2,.4,.5,.8,.8,1.3s.6,1,.8,1.5c.3,.5,.5,1,.7,1.6,.2,.5,.3,1,.4,1.4,.2,.8,.1,1.4,.1,1.4Z"/></g><g class="cls-9"><path class="cls-57" d="M109.77,93.41s-.1-.5-.4-1.1c-.1-.3-.3-.7-.5-1.1-.2-.4-.4-.8-.6-1.2s-.5-.8-.7-1.2c-.3-.3-.5-.6-.8-.8-.6-.4-1.1-.4-1.1-.4h.3c.2,0,.5,.1,.8,.3s.7,.5,.9,.8c.3,.4,.5,.8,.8,1.2,.2,.4,.4,.8,.6,1.3,.2,.4,.3,.8,.4,1.2,.3,.5,.3,1,.3,1Z"/></g><g class="cls-9"><path class="cls-57" d="M109.27,93.21s-.1-.5-.4-1.1c-.1-.3-.2-.7-.4-1.1-.2-.4-.3-.8-.5-1.2s-.5-.8-.7-1.1c-.3-.3-.6-.6-.8-.8-.5-.4-1-.6-1-.6,0,0,.5,.1,1.1,.5,.3,.2,.6,.5,.9,.8s.6,.7,.8,1.2c.2,.4,.4,.9,.5,1.3,.1,.4,.2,.8,.3,1.2,.1,.4,.2,.9,.2,.9Z"/></g><g class="cls-9"><path class="cls-57" d="M108.17,92.91s-.2-.4-.4-1c-.1-.3-.2-.7-.3-1.1-.1-.4-.3-.8-.5-1.2s-.4-.8-.6-1.1-.5-.6-.8-.8c-.5-.4-.9-.5-.9-.5,0,0,.5,0,1,.4,.3,.2,.6,.4,.9,.8,.3,.3,.5,.7,.7,1.1,.2,.4,.3,.8,.4,1.2s.2,.8,.3,1.1c.1,.6,.2,1.1,.2,1.1Z"/></g><g class="cls-9"><path class="cls-57" d="M107.07,93.01s-.1-.4-.3-1c-.1-.3-.2-.6-.4-1-.2-.4-.3-.7-.5-1.1-.2-.4-.3-.8-.5-1.1s-.4-.6-.6-.9c-.4-.5-.8-.6-.8-.6,0,0,.4,.1,.9,.5,.2,.2,.5,.5,.7,.8s.4,.7,.5,1.1c.2,.4,.3,.8,.4,1.2s.2,.7,.3,1c.3,.6,.3,1.1,.3,1.1Z"/></g><g class="cls-9"><path class="cls-57" d="M105.77,92.41s-.1-.4-.3-1c-.1-.3-.2-.6-.4-1-.1-.4-.3-.7-.5-1.1-.2-.4-.3-.8-.5-1.1-.1-.3-.3-.7-.5-.9-.3-.5-.7-.7-.7-.7,0,0,.1,0,.3,.1,.2,.1,.4,.2,.6,.5,.2,.2,.4,.6,.6,.9,.2,.4,.3,.7,.5,1.1,.2,.4,.3,.8,.4,1.1,.1,.4,.2,.7,.3,1,.2,.7,.2,1.1,.2,1.1Z"/></g><g class="cls-9"><path class="cls-57" d="M104.27,92.51v-1c0-.3-.1-.6-.2-1s-.2-.7-.4-1.1c-.1-.4-.3-.7-.5-1s-.3-.6-.5-.9c-.3-.5-.7-.7-.7-.7,0,0,.4,.1,.8,.5,.2,.2,.4,.5,.6,.8s.4,.7,.5,1.1c.1,.4,.3,.8,.3,1.1,.1,.4,.1,.7,.1,1,.2,.9,0,1.2,0,1.2Z"/></g><g class="cls-9"><path class="cls-57" d="M108.27,88.61h.4c.2,0,.6,.1,.9,.3,.4,.2,.8,.4,1.2,.8,.4,.3,.7,.8,1,1.2,.3,.5,.5,.9,.7,1.4s.3,.9,.5,1.3c.2,.8,.3,1.3,.3,1.3,0,0-.2-.5-.5-1.2-.1-.4-.3-.8-.5-1.3-.2-.4-.5-.9-.8-1.4-.3-.4-.6-.8-1-1.2-.4-.3-.7-.6-1.1-.8-.3-.2-.7-.3-.9-.4,0,0-.2,0-.2,0Z"/></g><g class="cls-9"><path class="cls-57" d="M107.97,88.11s.4,.2,1,.7c.3,.2,.6,.5,.9,.8s.7,.7,1,1.1c.3,.4,.6,.7,.9,1.1,.3,.4,.5,.7,.7,1.1,.4,.7,.4,1.2,.4,1.2,0,0-.1-.5-.5-1.1-.2-.3-.5-.6-.8-1-.3-.3-.6-.7-.9-1.1-.3-.4-.6-.7-1-1.1-.3-.3-.6-.6-.9-.9-.5-.5-.8-.8-.8-.8Z"/></g><path class="cls-13" d="M130.55,119.65l2,4s16.42-3.54,24.12-10.74c7.7-7.2,6.88-10.26,6.88-10.26,0,0,3.58,3.84-33,17Z"/></g><path class="cls-20" d="M169.55,203.65s-25-18-34-52c-3.12-11.77-1-13-16.11-10.7-12.7,1.93-21.6,2.17-30.89,14.7s-11.53,44.54-15.62,61.47-11.26,43.37-14.34,53.95-1.02,9.3,0,7.82,25.61-7.59,31.96-1.24c2,2-16.6,119.3-16.6,119.3,0,0,70.91-1.71,107.65-5.09"/><polygon class="cls-48" points="132.55 394.65 152.55 213.65 156.55 191.65 160.55 196.65 139.49 394.58 132.55 394.65"/><path class="cls-20" d="M236.38,266.83l16.59,125.88-116.55,6.35,3.69-22.28s5.88-113.26,9.87-129.79c3.99-16.54,.83-28.02,5.08-42.89s11.5-46.45,34.5-64.45c2.23-1.74,25.45,4.1,34,10s10,7,15.66,17.38c5.96,10.93,13.21,31.32,18.34,45.62,5.13,14.3,14,41,14,41l-35.17,13.19Z"/><path class="cls-44" d="M215.55,266.76s13.03-20.6,54.78-13.52c8.27,1.4-48.88,16.63-54.78,13.52Z"/><path class="cls-52" d="M253.55,251.65l2,7-22,60-16-11,14.82-51.13-.82-.87s1.95-1.21,10-3c9-2,12-1,12-1Z"/><polygon class="cls-48" points="215.55 266.65 209.55 203.65 211.55 230.65 215.55 266.65"/><path class="cls-51" d="M157.13,196.93c.41-.28,11.41-12.28,13.41-13.28s5-4,5-4c0,0-6-14-5-15s17-7,20-7,7-15.84,3-16.42-24,22.42-24,22.42"/><path class="cls-62" d="M232.55,258.65s3-2,6-3,5-1,8-1h8l-1.11-3.25s-5.89-1-21.89,3.62c0,.62,.77,2.17,.77,2.17l-.59,2.27,.82-.82Z"/><polygon class="cls-48" points="90.55 285.65 96.82 199.48 90.55 275.65 90.55 285.65"/><g><polygon class="cls-25" points="133.27 147.35 133.53 147.77 133.53 147.78 133.27 147.35"/><polygon class="cls-25" points="134.08 148.63 134.65 149.46 134.61 149.49 134.05 148.64 134.08 148.63"/><polygon class="cls-25" points="135.25 150.27 135.89 151.06 135.83 151.11 135.21 150.31 135.25 150.27"/><polygon class="cls-25" points="136.56 151.83 137.25 152.57 137.17 152.64 136.49 151.89 136.56 151.83"/><polygon class="cls-25" points="137.98 153.28 138.72 153.96 138.64 154.06 137.89 153.37 137.98 153.28"/><polygon class="cls-25" points="139.5 154.61 140.3 155.23 140.21 155.34 139.41 154.72 139.5 154.61"/><polygon class="cls-25" points="141.13 155.81 141.98 156.36 141.9 156.49 141.04 155.94 141.13 155.81"/><polygon class="cls-25" points="142.85 156.87 143.75 157.33 143.67 157.48 142.77 157.01 142.85 156.87"/><polygon class="cls-25" points="144.66 157.76 145.6 158.15 145.54 158.31 144.6 157.92 144.66 157.76"/><polygon class="cls-25" points="146.55 158.49 147.52 158.78 147.47 158.97 146.5 158.66 146.55 158.49"/><polygon class="cls-25" points="148.5 159.04 149.5 159.26 149.46 159.46 148.46 159.23 148.5 159.04"/><polygon class="cls-25" points="150.5 159.46 151.5 159.62 151.47 159.83 150.46 159.66 150.5 159.46"/><polygon class="cls-25" points="152.51 159.76 153.51 159.88 153.49 160.1 152.48 159.98 152.51 159.76"/><polygon class="cls-25" points="154.52 159.97 155.54 160.03 155.52 160.27 154.51 160.2 154.52 159.97"/><polygon class="cls-25" points="156.55 160.07 157.57 160.09 157.56 160.34 156.54 160.31 156.55 160.07"/><polygon class="cls-25" points="158.58 160.09 159.59 160.06 159.6 160.3 158.58 160.33 158.58 160.09"/><polygon class="cls-25" points="160.61 160.01 161.62 159.94 161.64 160.17 160.62 160.25 160.61 160.01"/><polygon class="cls-25" points="162.63 159.85 163.64 159.73 163.67 159.95 162.66 160.07 162.63 159.85"/><polygon class="cls-25" points="164.65 159.59 165.65 159.43 165.69 159.63 164.68 159.8 164.65 159.59"/><polygon class="cls-25" points="166.65 159.23 167.64 159.01 167.69 159.2 166.69 159.43 166.65 159.23"/><polygon class="cls-25" points="168.49 158.52 169.36 157.99 169.46 158.14 168.59 158.68 168.49 158.52"/><polygon class="cls-25" points="170.23 157.45 171.09 156.92 171.18 157.06 170.32 157.6 170.23 157.45"/><polygon class="cls-25" points="171.96 156.38 172.82 155.85 172.91 155.98 172.04 156.52 171.96 156.38"/><polygon class="cls-25" points="173.69 155.31 174.55 154.78 174.63 154.9 173.77 155.44 173.69 155.31"/><polygon class="cls-25" points="175.42 154.24 176.28 153.71 176.36 153.82 175.49 154.36 175.42 154.24"/><polygon class="cls-25" points="177.15 153.17 178.01 152.64 178.08 152.74 177.22 153.28 177.15 153.17"/><polygon class="cls-25" points="178.88 152.11 179.75 151.58 179.8 151.66 178.94 152.2 178.88 152.11"/><polygon class="cls-25" points="180.62 151.05 181.49 150.52 181.52 150.57 180.66 151.11 180.62 151.05"/><polygon class="cls-25" points="182.36 149.99 183.22 149.46 183.24 149.48 182.38 150.02 182.36 149.99"/><polygon class="cls-25" points="184.12 148.91 184.55 148.65 184.12 148.92 184.12 148.91"/></g><path class="cls-24" d="M194.55,152.65s.59-9.85-7.28-17.32c0,0-23.55,24.11-30.13,60.72,0,0,16.77-18.86,18.59-19.63s-6.18-10.77-3.18-13.77,22-10,22-10c0,0,3.44-15.63-7.28-17.32"/><path class="cls-52" d="M211.55,321.03c-2.32,.54-4.23,3.11-4.09,5.59,.02,.81,.31,1.68-.28,2.34-.38,.48-1.74,1.08-2.27,.96-.53-.11-.93-.45-1.25-.94-3.34-5.87,1.72-12.59,3.2-13.91,.25-.25,.5-.51,.87-.79"/><polygon class="cls-43" points="134.55 145.65 134.55 140.65 132.93 140.81 134.55 145.65"/><path class="cls-58" d="M157.05,193.15s6-25,9-31,7.85-15,9.42-16.5,6.66-5.66,6.66-5.66l.17,1.64s-11.23,13.21-16.75,27.02c-4,10-8.5,21.5-8.5,24.5Z"/><polyline class="cls-49" points="155.54 197.17 156.55 189.65 158.05 191.65 156 200.7"/><g id="graphics"><g><rect class="cls-29" x="213.37" y="293.54" width="2.46" height="69.38" transform="translate(-129.61 516.12) rotate(-85.45)"/><polygon class="cls-36" points="172.06 322.42 179.99 326.73 180.51 319.45 172.06 322.42"/><polygon class="cls-56" points="172.17 322.49 175 324.01 175.21 321.31 172.17 322.49"/><polygon class="cls-54" points="172.35 322.46 175.15 321.84 175.09 321.47 172.35 322.46"/><polyline class="cls-11" points="180.45 319.66 175.09 321.47 175.15 321.84 180.39 320.43"/><rect class="cls-27" x="213.26" y="291.39" width="2.85" height="69.38" transform="translate(-127.39 514.23) rotate(-85.45)"/><rect class="cls-30" x="213.46" y="288.94" width="2.85" height="69.38" transform="translate(-124.76 512.18) rotate(-85.45)"/><rect class="cls-12" x="214.48" y="288.32" width=".8" height="68.98" transform="translate(-123.95 511.41) rotate(-85.45)"/><path class="cls-32" d="M251,332.41l.52-7.28,4.35,.4c.86,.04,1.52,.84,1.48,1.7l-.45,4.89c-.07,.44-.41,.69-.79,.66l-5.11-.37Z"/><rect class="cls-34" x="246.67" y="327.38" width="7.24" height="2.66" transform="translate(-97.23 552.15) rotate(-85.45)"/><polygon class="cls-14" points="249.22 325.05 249.18 325.91 251.83 326.08 251.92 325.26 249.22 325.05"/><path class="cls-23" d="M251.92,325.26l3.66,.23c.2,.06,.42,.21,.32,.47,0,0,.09,.56-.36,.39l-3.71-.27,.1-.83Z"/></g><g><path class="cls-21" d="M253.81,338.89h0c-.72,1.93-3.19,2.78-5.53,1.94l-58.97-22.21c-4.59-1.79-3.63-3.14-2.86-5.04h0c.72-1.93,1.3-3.55,5.53-1.94l58.97,22.21c2.33,.84,3.63,3.14,2.86,5.04Z"/><g class="cls-15"><path class="cls-37" d="M254.07,338.42h0c-.58,1.62-67.36-23.68-66.78-25.3l-.53-.05c.58-1.62,1.16-3.01,5.33-1.43l58.97,22.21c2.24,.86,3.68,2.85,3.02,4.58Z"/></g><path class="cls-22" d="M178.45,311c.32-.1,.58-.48,.52-.85,.01-.48-.27-.76-.74-1.02-.42-.21-.99-.21-1.23,.02-.21,.18-.49,.23-.85,.05-2.09-.83-4.23-1.61-6.38-2.49-.2-.06-.36-.18-.26-.43,.06-.2,.18-.36,.49-.23,1.66,.53,3.23,.5,4.86,.27,1.63-.23,3.05-.52,4.53-1.1,.39-.21,.65-.11,.99,.21,2.13,1.59,4.22,3.23,6.29,4.79,.22,.15,.34,.32,.15,.59-.64,1.58-1.27,3.17-1.94,4.81-.1,.26-.23,.32-.52,.28-2.68-.35-5.44-.6-8.19-.84-.33,0-.49-.11-.6-.42-1.32-2.73-3.2-5.12-6.14-6.96-.16-.12-.32-.23-.26-.43,0-.33,.21-.42,.52-.28,2.2,.91,4.34,1.69,6.52,2.51,.2,.06,.32,.23,.34,.32,.23,1.06,1.06,1.49,1.92,1.2Z"/><path class="cls-55" d="M188.11,310.11c.09-.02,.28-.05,.44,.07,.44,.07,.8,.24,1.24,.31q.49,.11,.32,.47c-.52,1.42-1.17,2.91-1.69,4.34-.38,.87-.7,1.79-.99,2.55-.1,.26-.23,.32-.61,.06-.42-.21-.69-.41-1.14-.57-.58-.33-.63-.37-.42-.79,.73-1.84,1.47-3.68,2.31-5.44,.1-.26,.25-.47,.3-.77-.07-.13-.03-.19,.25-.23Z"/><g class="cls-15"><path class="cls-53" d="M179.03,310.18c.01-.48-.27-.76-.74-1.02-.42-.21-.99-.21-1.23,.02-.21,.18-.49,.23-.85,.05-2.09-.83-4.23-1.61-6.38-2.49-.2-.06-.36-.18-.26-.43,.06-.2,.18-.36,.49-.23,1.66,.53,3.23,.5,4.86,.27,1.63-.23,3.05-.52,4.53-1.1,.39-.21,.65-.11,.99,.21,2.13,1.59,4.22,3.23,6.29,4.79,.22,.15,.34,.32,.15,.59-.64,1.58-.21,.75-.83,2.43"/></g></g></g><path class="cls-52" d="M235.19,313.76c-.44,5.66-2.86,11.26-6.61,15.62-1.14,1.32-2.51,2.58-4.01,3.34-1.5,.75-3.29,.98-4.71,.3-1.05,1.02-2.56,1.51-3.82,1.28s-2.38-1.26-2.81-2.56c-1.96,1.52-4.75,1.67-6.52,.26-.73-.53-1.27-1.37-1.02-2.36s1.17-1.65,1.92-2.33c1.87-1.66,3.01-4.29,3-6.73l-3.16-5.91c3.42-3.08,9.37-8.48,13.09-7.72"/><path class="cls-40" d="M217.42,323.46s-.03,5.12-4.26,8.24c-.14,.09,.19,.55,.19,.55,0,0,5.2-4.45,4.07-8.79Z"/><path class="cls-40" d="M219.79,332.98s4.43-4.48,4.84-8.33c0,0,1.1,3.1-4.18,8.55l-.65-.22Z"/><polygon class="cls-17" points="162.28 401.73 236.03 399.06 235.55 393.65 162.35 397.65 162.28 401.73"/><path class="cls-62" d="M69.55,278.65s8-2,12-1,9,3.38,9,3.38v-3.38s-3-2.66-10.5-2.83-9.78,.85-9.78,.85l-.72,2.98Z"/><polyline class="cls-5" points="199.16 397.65 201.55 434.65 231.55 433.65 231.55 404.17"/><polyline class="cls-5" points="123.94 398.12 121.55 435.12 91.55 434.12 91.55 404.65"/><path class="cls-48" d="M155.54,199.48s-7-14.83-15-18.83-10-3.62-10-3.62l4-14.38-16-8s2.32-14.54,8-15,31.99,56.67,29,59.83Z"/><path class="cls-24" d="M158.55,192.49s-26.9-47.68-26.32-55.46c-.47-.59-2.11-1.03-7.37,3.08s-6.32,13.35-6.32,13.35l15.79,8.22-2.11,13.35s12.63,4.11,24.21,23.62"/><path class="cls-58" d="M158.55,188.58s-16.99-32.71-19-36.33-5-12.27-5-12.27v5.3l12,25.41,11.5,20.95,.5-3.06Z"/><path class="cls-41" d="M62.55,327.65s2.26-1.76,5.13-1.38,3.87,.38,4.87,1.38,1,2,1,2l.69,2.24-14.1,1s2.41-2.24,2.41-5.24Z"/><path d="M140.21,36.91s-4.35-.54-3.8,2.6c-.48,.14-3.88-1.54-2.18-4.2-.36,.34-3.23,8.33-8.51,3.33-.11,0-1.9-1.53-1.9-1.53,0,0,.27,1.76,3.1,.65s3.7-1.79,2.74-2.45-5.51-2.54-6.33,.4,1.48,4.57,1.48,4.57c0,0-5.53-1.51-5.98-4.57,.58-.06-3.49-3.27-3.52-.16s1.83,3.16,1.83,3.16c0,0-4.28,.81-5.14-1.13s1.06-4.17,1.06-4.17c0,0-4.61-.87-2.74,1.18s3.03,2.52,3.03,2.52c0,0-3.95,1.46-5.14,0s-1.27-3.8-1.27-3.8c0,0,4.94,5.06,1.48,5.7s-6.05,.4-6.05,.4c0,0,2.76-.89,2.67-1.83s-8.49-1.93-6.49,3.07c1.34,3.34,4.94,1.11,4.94,1.11,0,0-.98,3.61-4.93,.75s-1.4-8.42-1.12-8.64-3,2.09-2.39,4.44-3.04-4.14-.7-5.9,.56-4.35,.56-4.35c0,0,1.78-6.41,4.88-11.41s11.36-3,18.59-6,26.49-6.24,31.84-5.12,14.29,2.41,19.11,6.27,13.86,7.3,15.02,11.58,2.27,7.13,2.27,7.13"/><path d="M173.58,37.67s2.13,4.7-3.8,4.67c0,0,4.18-3.39,2.11-5.75,0,0-5.87,1.89-5.88,4.02,0,0-1.06-3.84,1.11-5.53,0,0-5.99,8.92-9.75,6.34s-3.75-5.99-1.58-7.68,3.25-1.69,3.25-1.69c0,0-4.87,2.96-2.72,4.25s4.32-.4,4.86-1.25-6.35-3.44-8.03-3.02-4.95,7.22-3.34,8.08l2.16,.44s-7.02,.82-6.46-3.87-3.79,2.96-2.72,3.82,1.61,.86,1.61,.86c0,0-7.55-.89-5.92-3.87s4.88-4.24,2.73-5.1-5.4-.03-3.78,.83,2.34,3.8-.46,3.81-2.25-2.54-2.25-2.54c0,0,1.07,1.71,1.61,1.29s-.61-2.25-1.65-2.62-3.07,1.47-1.53,2.47,3.16,1.86,3.16,1.86c0,0-2.36,.79-3.87-.47s-2.83-2.59-1.62-4.26,.02,3.81-1.29,4.25-4.32,1.04-4.16,.52,.58,.21,1.99-1,2.09-2.02,.68-2.47-6.37,1.61-4.98,2.92,1.29,2.92,2.69,2.34l1.39-.59s.99,1.07-.86,1.6-7.11-.1-6.9-1.51,1.11-4.39-.68-4.18-3.5,.77-1.84,1.77,3.4,2.39,1.71,3.18-3.51,1.22-3.51,1.22c0,0,2.4-1.91,1.31-2.24s-6.75-1.87-6.83,.09,2.58,4.42,5,4,3.97-1.06,3.97-1.06c0,0-1.04,.57-1.97,1.06s-5.65,1.22-7,0-4.32-4.01-1.97-7,1.17-3.24,1.17-3.24l-1.2,3.24s.71,5.96-2,6.8-1.83,.46-1.83,.46c0,0,1.29-1.32,1.3-2.6s-1.47-3.61-1.26-5.22-.32-2.89,1.31-4.16-3.24,.41-2.71,2.54,2.68,3.42,1.05,5.12-1.13,.9-1.13,.9c0,0,.9-1.06-.06-2.48s-2.57-1.85-2.57-3.55,1.1-3.83,3.27-5.1c0,0-4.04-.59-4.72,.97s-.02,3.02-.02,3.02c0,0-3.91-1.9-2.81-4.88s2.18-4.68,3.81-5.09-2.71,1.69-3.24,.84-3.76-2.58-1.6-4.27l2.17-1.69s-1.63,1.27-1.09,2.13,2.69,1.29,3.23,.87-.57-.75-1.11-1.6-2.29-2.29-3-3c-1-1-.72-1.39-.72-1.39,0,0,.53,1.71,2.15,2.14s1.61,2.14,3.77,2.15,1.09-2.55-.53-2.13-.54,.85-.54,.85c0,0-2.7-.44-1.61-1.29s.56-3.41,3.79-2.11,3.25-2.54,4.87-2.96,4.87-2.11,7.03-1.67,6.5-3.38,8.65-3.37,2.71-2.12,5.94-.4,3.95,2.32,6.57,.97,4.57-2.24,6.56-1.57,8.47-.15,10.09,.71,2.69,.87,4.32,.45,2.16,.44,3.77,.87,5.4,.45,5.4,.45c0,0,.54-.85,1.61,.86s2.69,1.29,2.69,1.29c0,0-.53-1.28,1.08,.43s.53,1.71,3.23,2.15,2.16,.01,3.23,1.72,0,.85,2.15,2.14,3.24,.02,2.69,2.14,.54-.85,1.07,1.28,.53,1.71,1.06,2.99,1.07,1.71,1.06,2.99-.54,.85-.56,3.41-.56,2.98-.57,5.96-.55,2.55-.56,4.68l-.02,4.26c0,1.28,.54,0,0,1.28s-4.85-1.3-5.38-3.01-2.14-4.27-3.22-4.28Z"/><path d="M99.99,33.97c1.76,3.16,3.46,7.17,1.87,10.73,1.23-3.69-.74-7.27-2.76-10.27,0,0,.88-.47,.88-.47h0Z"/><path d="M95.5,40.48c-.62-.59-1.22-1.2-1.82-1.82-.58-.6-1.19-1.35-1.35-2.29-.3-1.81,.38-3.63,1.49-4.99,1.11-1.38,2.65-2.31,4.25-2.93,.8-.31,1.62-.55,2.45-.76,.83-.2,1.67-.39,2.52-.4-.86,0-1.69,.22-2.51,.45-.82,.24-1.62,.52-2.39,.88-1.54,.71-2.94,1.72-3.92,3.06-.98,1.32-1.53,2.98-1.33,4.57,.1,.78,.57,1.46,1.08,2.14,.51,.67,1.02,1.36,1.51,2.07Z"/><path d="M92.55,40c-1.25-1.72-1.94-3.87-1.92-6.04-.02-1.07,.25-2.24,.91-3.14,.62-.9,1.34-1.7,2.12-2.45,.78-.74,1.64-1.41,2.56-1.99,.88-.57,1.95-1.15,3.12-1.09,.57,0,1.11,.11,1.64,.23l.79,.19c.27,.08,.58,.18,.83,.43,.25,.25,.35,.55,.44,.8l.27,.76c.17,.51,.33,1.03,.44,1.56,.11,.53,.17,1.09,.14,1.65-.02,.28-.05,.56-.13,.83-.06,.25-.15,.6-.43,.82-1.01,.63-2.17,.73-3.25,.46-1.08-.27-1.99-.96-2.73-1.73-.37-.39-.71-.81-1.03-1.24-.31-.43-.64-.86-.86-1.37-.21-.52-.24-1.06-.26-1.59-.02-.53,0-1.08,.15-1.6,.15-.52,.43-1.01,.85-1.36,.42-.35,.97-.49,1.5-.53,1.07-.06,2.13,.1,3.17,.29,.52,.1,1.04,.21,1.56,.33,.26,.06,.52,.1,.77,.2,.24,.09,.44,.4,.28,.64,.16-.24-.03-.55-.28-.64-.25-.1-.51-.13-.77-.2-.52-.11-1.04-.22-1.56-.31-1.04-.18-2.11-.33-3.16-.25-.52,.05-1.05,.2-1.45,.54-.4,.34-.66,.82-.79,1.32-.13,.51-.15,1.04-.11,1.56,.04,.52,.08,1.06,.29,1.53,.21,.47,.55,.88,.86,1.3,.32,.42,.66,.82,1.04,1.19,.74,.73,1.62,1.35,2.62,1.57,.97,.24,2.1,.06,2.88-.45,.15-.11,.21-.32,.26-.58,.06-.24,.08-.49,.1-.75,.01-.5-.05-1.01-.16-1.52-.11-.5-.27-1-.45-1.49-.19-.46-.34-1.07-.6-1.33-.27-.26-.84-.33-1.34-.45-.51-.11-1.02-.2-1.52-.2-1-.04-1.9,.44-2.79,1.01-.88,.55-1.72,1.19-2.49,1.9-1.49,1.43-3.09,3.01-3.03,5.17-.11,2.08,.42,4.21,1.53,6.02Z"/><path d="M96.55,22.1c-.71-.22-1.46-.33-2.19-.32-.36,0-.73,.06-1.03,.21-.3,.15-.55,.41-.77,.69-.43,.59-.92,1.18-1.09,1.83-.17,.65-.06,1.37,.24,1.98,.31,.61,.81,1.13,1.38,1.54,.58,.4,1.24,.76,1.86,.7,.63-.05,1.25-.5,1.85-.9,.6-.42,1.17-.88,1.7-1.39,.51-.5,1.06-1.06,1.43-1.63,.35-.57,.25-1.32-.04-1.97-.29-.65-.69-1.3-1.29-1.68-.6-.38-1.36-.45-2.1-.48-.74-.02-1.51-.08-2.15,.28-.31,.18-.57,.47-.68,.81-.12,.35,0,.73,.21,1.03,.45,.59,.9,1.2,1.54,1.6,.64,.42,1.44,.37,2.17,.36-.73,0-1.53,.07-2.18-.34-.64-.4-1.11-1-1.58-1.58-.22-.3-.36-.71-.24-1.08,.11-.37,.38-.68,.7-.89,.68-.41,1.48-.37,2.22-.38,.74,0,1.54,.03,2.24,.43,.69,.41,1.14,1.08,1.48,1.77,.33,.68,.51,1.58,.09,2.34-.42,.7-.93,1.23-1.46,1.79-.54,.54-1.12,1.04-1.73,1.48-.62,.42-1.24,.93-2.13,1.04-.9,.07-1.63-.38-2.26-.81-.64-.45-1.21-1.05-1.56-1.78-.34-.73-.46-1.59-.21-2.38,.26-.8,.8-1.36,1.28-1.94,.25-.29,.56-.57,.94-.72,.38-.15,.78-.17,1.16-.14,.76,.06,1.5,.24,2.19,.54Z"/><path d="M128.4,8.09c.54-.23,1.19-.32,1.66-.45,.23-.08,.33-.18,.36-.33,.02-.16-.05-.37-.21-.52-.34-.31-.96-.46-1.51-.5-.28,0-.6-.05-.78,.18-.16,.23-.07,.57-.19,.83,.13-.27,0-.58,.14-.86,.18-.29,.54-.29,.82-.34,.59-.05,1.21-.08,1.83,.29,.3,.2,.53,.57,.49,.99-.03,.46-.48,.77-.81,.82-.67,.1-1.2,0-1.81-.11Z"/><path d="M133.38,7.91c-.32-.15-.63-.32-.89-.6-.26-.28-.4-.74-.33-1.14,.13-.82,.84-1.41,1.55-1.6,.74-.21,1.48-.06,2.12,.2,.31,.15,.65,.24,.91,.5,.21,.31,.06,.68,.19,1-.13-.31,0-.71-.23-.97-.24-.21-.61-.27-.92-.35-.65-.15-1.34-.14-1.9,.11-.56,.24-1.01,.69-1.15,1.23-.18,.52,.2,1.08,.65,1.63Z"/><path d="M141.42,6.41c-.16-.35-.3-.71-.3-1.13,0-.41,.16-.89,.58-1.17,.45-.25,.81-.24,1.2-.3,.4-.04,.88,.03,1.24,.26,.74,.45,1.09,1.27,1.15,2.02,.06,.76,.09,1.5,.18,2.24-.09-.74-.21-1.48-.37-2.2-.16-.71-.61-1.33-1.21-1.6-.3-.14-.59-.16-.93-.11-.34,.05-.75,.09-.97,.2-.23,.11-.41,.39-.49,.71-.08,.33-.08,.71-.09,1.09Z"/><path d="M148.91,6.23c.71-.07,1.31-.41,1.69-.85,.03-.04,0-.08-.03-.09,0-.01,0,0-.03-.02l-.09-.08-.19-.15c-.26-.19-.54-.34-.84-.46-.3-.11-.63-.2-.94-.21-.29-.08-.54,.19-.85,.38-.58,.39-1.15,.79-1.69,1.23,.54-.43,1.06-.9,1.57-1.38l.39-.36c.07-.06,.15-.12,.26-.17,.1-.03,.2-.04,.3-.06,.39-.05,.75,0,1.12,.09,.36,.09,.71,.25,1.03,.46,.08,.05,.16,.11,.23,.17l.11,.09,.17,.16c.23,.24,.15,.59-.09,.79-.58,.57-1.45,.73-2.12,.46Z"/><path d="M104.85,13.5c-.49,.67-1.29,1.07-2.06,1.3-.41,.12-.75,.21-1.21,.28-.24,.03-.53-.03-.73-.14-.21-.11-.37-.24-.54-.38-.65-.54-1.07-1.51-.74-2.32,.31-.79,1.04-1.3,1.81-1.48-.77,.17-1.45,.79-1.62,1.53-.18,.76,.28,1.46,.88,1.86,.31,.21,.61,.38,.89,.32,.33-.06,.76-.16,1.12-.24,.76-.17,1.5-.34,2.21-.74Z"/><path d="M104.96,12.87c-.43,.7-1.03,1.29-1.74,1.72-.17,.08-.32,.28-.75,.25-.39-.11-.46-.29-.63-.41-.3-.27-.61-.58-.83-.96-.22-.38-.35-.84-.29-1.29,.06-.47,.37-.82,.66-1.09,.59-.56,1.28-.99,2.02-1.29-.74,.3-1.39,.81-1.88,1.42-.25,.3-.45,.64-.44,.99,0,.35,.15,.69,.36,.97,.21,.29,.5,.54,.8,.79,.15,.12,.33,.28,.35,.27-.01,.03,.18-.06,.35-.15,.69-.35,1.35-.76,2.02-1.22Z"/><path d="M105.41,12.31c-.57,.68-1.15,1.26-1.87,1.88-.29,.27-.74,.14-.89-.25-.13-.31-.17-.47-.22-.72-.09-.46-.08-.94,.03-1.39,.11-.45,.28-.89,.6-1.25,.32-.36,.76-.57,1.19-.66,.89-.18,1.74,.1,2.58,.27-.83-.17-1.73-.35-2.53-.08-.39,.13-.74,.37-.96,.69-.21,.32-.32,.73-.38,1.12-.05,.4-.03,.8,.06,1.18,.03,.17,.12,.43,.15,.51,0,.03,.04,.1,.09,.06,.63-.46,1.38-.96,2.15-1.37Z"/><path d="M115.02,10.1c.59-.48,1.22-.82,1.79-1.21,.27-.2,.5-.42,.61-.67,.13-.24,.1-.58,0-.71-.05-.03-.11-.05-.16-.09l-.24-.09c-.16-.06-.33-.14-.49-.17-.33-.07-.7-.08-1.06-.08-.36,0-.73,0-1.07,.12-.33,.12-.65,.38-.71,.75,.07-.36,.36-.65,.69-.8,.34-.16,.71-.21,1.07-.26,.36-.05,.73-.11,1.12-.08,.2,0,.38,.06,.56,.1l.28,.06c.11,.04,.22,.09,.33,.15,.43,.4,.39,.93,.23,1.34-.17,.42-.51,.72-.84,.92-.67,.38-1.4,.56-2.12,.73Z"/><path d="M108.62,9.66c.78,.43,1.54-.21,2.14-.59,.23-.2,.3-.53,.26-.89-.04-.34-.16-.81-.34-.96-.17-.15-.72-.16-1.1-.24l-1.25-.19c-.41-.09-.8,.12-.98,.52-.19,.37-.21,.82-.38,1.2,.17-.39,.17-.83,.33-1.23,.08-.2,.2-.39,.39-.52,.19-.13,.43-.16,.65-.16l1.27,.02h.64c.2,.02,.47,0,.74,.18,.25,.18,.37,.43,.46,.63,.09,.21,.15,.44,.18,.68,.07,.45-.04,1.07-.49,1.41-.43,.29-.79,.41-1.26,.53-.45,.1-.99-.01-1.25-.38Z"/><path d="M110.24,10.35c-.47,.5-1.07,1-1.88,1.04-.39,.03-.84-.14-1.13-.36-.15-.11-.28-.2-.44-.37-.17-.15-.27-.52-.16-.74,.2-.41,.41-.61,.65-.9,.24-.26,.5-.51,.8-.7,.61-.4,1.32-.44,1.99-.51-.67,.07-1.38,.21-1.88,.67-.48,.42-.85,1.09-1.07,1.6-.01,.1,0,.11,.08,.2,.08,.07,.24,.18,.37,.26,.26,.18,.49,.26,.79,.28,.58,.04,1.21-.23,1.88-.46Z"/><path d="M97.91,26.64c.08-.41-.23-.72-.56-.86-.34-.14-.73-.25-1.1-.38-.73-.26-1.47-.46-2.01-.15-.57,.29-.89,.89-.79,1.47,.09,.6,.51,1.04,1.12,1.2,.62,.18,1.37,.13,2.13,.06,.75-.07,1.45-.21,2.07-.56,.63-.34,1.19-.84,1.61-1.46,.21-.31,.39-.64,.52-1,.07-.18,.13-.36,.12-.53,0-.16-.17-.35-.37-.3,.19-.1,.43,.06,.49,.28,.06,.21,.02,.43,0,.62-.06,.4-.19,.79-.36,1.16-.35,.75-.9,1.41-1.6,1.89-.7,.5-1.56,.74-2.36,.86-.79,.11-1.63,.22-2.53-.02-.44-.13-.89-.37-1.23-.75-.33-.38-.53-.86-.57-1.34-.12-1,.56-1.98,1.45-2.28,.44-.17,.95-.16,1.36-.04,.42,.12,.78,.31,1.13,.49,.35,.19,.69,.35,1.04,.58,.34,.22,.61,.69,.44,1.06Z"/><path d="M92.87,34.83c.12-.36,.63-.51,1.01-.39,.4,.11,.69,.26,1.03,.47,.32,.2,.67,.59,.77,1.04,.11,.44,.1,.79,.08,1.17-.05,.74-.37,1.61-1.08,2.09-.75,.5-1.57,.31-2.21,.11,.69-.12,1.39-.28,1.72-.7,.36-.42,.5-.96,.55-1.57,.02-.3,.04-.64,0-.88-.03-.23-.12-.42-.33-.65-.44-.4-.91-1.1-1.55-.66Z"/><path d="M163.85,11.47c.49-1.16,.4-2.55-.25-3.53-.67-.93-2.09-.89-3.3-1.12-1.24-.17-2.5-.31-3.75-.44l-1.89-.19c-.64-.06-1.23-.14-1.75-.05-.49,.08-.98,.38-1.5,.74l-1.54,1.08c-1.01,.72-2.13,1.39-3,2.21-.89,.8-1.4,1.92-1.63,3.13-.22,1.22-.2,2.49-.17,3.76-.2-1.25-.38-2.52-.28-3.82,.09-1.28,.57-2.65,1.52-3.62,.92-.98,1.97-1.66,2.99-2.45l1.54-1.14c.51-.36,1.12-.77,1.88-.91,.74-.12,1.42,0,2.04,.06l1.89,.24c1.26,.17,2.52,.37,3.77,.64,.63,.14,1.24,.27,1.88,.45,.62,.18,1.32,.55,1.67,1.18,.64,1.23,.5,2.67-.13,3.77Z"/><path d="M162.92,8.27c-1.03-1.42-2.2-2.74-3.48-3.91-.64-.58-1.32-1.11-2.06-1.5-.74-.39-1.55-.63-2.38-.75-3.39-.46-6.76,.67-10.03,1.83-1.64,.58-3.27,1.2-4.8,1.97-1.53,.77-2.97,1.73-4.3,2.84-2.68,2.2-4.97,4.88-7.27,7.53,2.03-2.86,4.12-5.71,6.76-8.12,1.31-1.2,2.78-2.26,4.36-3.11,1.58-.85,3.24-1.5,4.9-2.09,1.66-.58,3.35-1.15,5.11-1.49,1.76-.34,3.6-.47,5.39-.12,.89,.18,1.78,.49,2.56,.97,.78,.48,1.46,1.08,2.07,1.73,1.22,1.29,2.27,2.72,3.16,4.23Z"/><path d="M140.44,6.38c.63-.66,1.25-1.34,1.94-1.97,.68-.61,1.57-1.19,2.61-1.23,.5-.04,.98,.01,1.45,.07l.42,.06c.21,.04,.4,.14,.51,.32,.12,.17,.13,.4,.14,.6,0,.14,0,.28-.02,.42-.14,1.11-.91,1.98-1.71,2.53-.82,.55-1.63,.97-2.55,1.3-.46,.16-.94,.28-1.44,.32-.25,.02-.49,.03-.76,0-.14-.01-.3-.04-.47-.12-.17-.08-.32-.22-.4-.34-1.02-1.83-.84-3.74-.69-5.54,.09,.91,.17,1.82,.36,2.7,.18,.86,.5,1.75,.95,2.37,.1,.1,.12,.09,.32,.11,.18,0,.4-.02,.6-.05,.41-.06,.81-.19,1.21-.35,.78-.32,1.6-.77,2.29-1.24,.68-.47,1.22-1.1,1.35-1.83,.02-.09,.02-.18,.03-.26,0-.03,0-.03,0-.04,0-.01-.01-.02-.02-.03h0s-.08-.02-.08-.02l-.16-.03c-.44-.09-.86-.16-1.28-.17-.82-.04-1.61,.32-2.36,.82-.74,.51-1.46,1.08-2.21,1.61Z"/><path d="M150,8.53c0-.86-.46-1.62-1.13-2.05-.33-.24-.71-.44-1.06-.74-.17-.15-.34-.33-.47-.55-.11-.21-.26-.47-.18-.86,.09-.32,.29-.48,.42-.61,.14-.13,.28-.26,.43-.38,.3-.24,.61-.45,.94-.64,.66-.37,1.37-.64,2.11-.82,.75-.17,1.43-.29,2.28-.24,.42,.03,.96,.22,1.28,.65,.16,.21,.29,.49,.28,.8,0,.3-.12,.57-.25,.76-.27,.39-.51,.6-.81,.88-.29,.26-.65,.52-1.11,.63-.47,.11-.96-.02-1.31-.22-.37-.21-.65-.47-.91-.74-.26-.27-.49-.56-.7-.85-.2-.29-.45-.57-.6-.96-.07-.19-.1-.43,0-.64,.09-.21,.27-.34,.44-.42,.35-.15,.71-.17,1.01-.38-.26,.26-.64,.36-.92,.54-.3,.18-.36,.48-.2,.75,.14,.27,.41,.51,.65,.77,.25,.25,.49,.5,.75,.72,.51,.44,1.12,.77,1.57,.6,.23-.07,.47-.25,.69-.48,.21-.22,.49-.52,.61-.72,.12-.23,.1-.27,0-.42-.12-.14-.31-.23-.59-.25-.57-.03-1.32,.07-1.96,.2-.66,.14-1.3,.35-1.91,.64-.3,.15-.59,.31-.87,.5-.25,.17-.62,.46-.64,.52-.03,.03,0,.2,.06,.35,.07,.15,.17,.3,.3,.44,.26,.29,.6,.54,.92,.84,.68,.59,1.03,1.54,.87,2.37Z"/><path d="M117.8,8.04c.84-.45,1.59-1.04,2.25-1.7,.32-.34,.67-.68,.87-1.06,.21-.36,.16-.85-.12-1.01-.28-.17-.81-.09-1.27-.09-.46,.02-.92,.07-1.34,.19-.85,.24-1.6,.77-2.3,1.37-.7,.61-1.37,1.25-1.82,2-.23,.37-.41,.78-.38,1.06,.01,.14,.05,.21,.17,.32,.11,.11,.31,.24,.5,.37,.38,.26,.74,.47,1.09,.54,.33,.07,.69-.01,1.08-.19,.79-.37,1.57-.89,2.25-1.47,.69-.59,1.3-1.27,1.81-2.01,.51-.75,.95-1.55,.96-2.33,.04-.74-.52-1.52-1.18-1.5-.34,0-.77,.17-1.21,.34-.43,.17-.86,.35-1.28,.56-1.67,.8-3.19,1.93-4.18,3.51-.49,.78-.89,1.65-1.08,2.55-.19,.89-.05,1.93,.66,2.59-.77-.6-1.02-1.68-.9-2.63,.12-.97,.46-1.89,.93-2.75,.92-1.73,2.51-3.06,4.21-3.97,.43-.23,.87-.44,1.31-.64,.44-.18,.89-.42,1.51-.45,.63-.03,1.25,.32,1.6,.78,.36,.45,.57,1.04,.56,1.61,0,1.15-.56,2.08-1.09,2.9-.55,.83-1.22,1.58-1.98,2.23-.76,.65-1.58,1.19-2.51,1.62-.47,.21-1.08,.37-1.69,.23-.59-.13-1.04-.44-1.44-.72-.19-.14-.4-.27-.62-.5-.22-.21-.42-.59-.42-.94,0-.69,.3-1.16,.56-1.58,.57-.86,1.33-1.52,2.08-2.12,.76-.6,1.63-1.16,2.64-1.38,.5-.11,1-.13,1.48-.12l.73,.03c.25,.02,.54,.05,.8,.23,.55,.41,.46,1.14,.18,1.56-.29,.44-.66,.74-1.01,1.06-.73,.63-1.54,1.16-2.41,1.53Z"/><path d="M124,9.21c1.26-.73,2.59-1.53,3.32-2.82,.36-.63,.55-1.37,.44-2.07-.06-.35-.24-.65-.53-.82-.29-.18-.65-.25-1.01-.34-.71-.17-1.44-.32-2.13-.23-.7,.09-1.34,.45-1.98,.8-1.28,.71-2.54,1.49-3.42,2.62-.22,.28-.4,.57-.4,.84,0,.24,.13,.3,.52,.31,.72,.04,1.45,.03,2.16-.04,1.43-.15,2.85-.52,4.16-1.11,1.32-.58,2.54-1.38,3.61-2.33l.39-.37,.19-.19,.07-.07s.09-.09,.11-.13c-.04-.02-.08-.04-.12-.06,.01,0-.23-.09-.37-.12-.16-.04-.33-.08-.49-.11-.34-.05-.68-.07-1.03-.06-1.4,.04-2.79,.5-4.18,.96-1.39,.47-2.78,1.01-4.25,1.37-.37,.09-.74,.17-1.12,.23l-.57,.08-.13,.02h-.01s-.01,0-.01,.01c0,0,0,0,0,.03,0,.07-.02,.15-.02,.22,0,.15,0,.3,.04,.45,.05,.3,.17,.59,.34,.84,.65,1.08,2.15,1.13,3.61,1.2,2.9,.13,5.82-.15,8.66-.81,1.4-.35,2.85-.71,4.09-1.33,.62-.31,1.17-.71,1.62-1.2,.22-.25,.41-.51,.56-.8,.07-.14,.14-.29,.19-.44l.03-.08h0s0,0,0,0l-.36-.11c-.26-.08-.52-.15-.78-.2-.53-.12-1.06-.2-1.59-.24-1.07-.07-2.14,.03-3.13,.38-1,.34-1.91,.91-2.6,1.67-.35,.38-.63,.81-.8,1.27-.08,.23-.14,.46-.16,.69,0,.11,0,.24,0,.34,0,.01,0,.03,.01,.04,.01,0,.02,0,.04,0l.3,.02,.63,.04c.42,.02,.84,.04,1.27,.05,.84,.01,1.69,0,2.53-.07,1.68-.12,3.35-.41,4.97-.87,1.61-.48,3.18-1.13,4.62-1.99,.36-.21,.72-.44,1.06-.68l.38-.27,.21-.15s-.14-.07-.21-.1l-.12-.04-.28-.09c-.4-.12-.81-.23-1.22-.32-1.65-.36-3.35-.5-5.06-.59-1.69-.09-3.41-.04-5,.55-1.59,.58-3,1.6-4.15,2.84-.29,.31-.57,.64-.82,.98-.13,.17-.25,.34-.38,.52-.13,.16-.21,.36-.1,.55l1.32,2.2-1.4-2.16c-.14-.2-.05-.47,.09-.64,.12-.18,.24-.36,.37-.53,.25-.35,.52-.68,.8-1.01,1.13-1.29,2.54-2.38,4.16-3.03,1.63-.66,3.41-.75,5.13-.7,1.72,.06,3.44,.15,5.15,.49,.43,.08,.85,.18,1.27,.3l.34,.1,.48,.16,.48,.17,.24,.09,.12,.04,.06,.02s-.03,.03-.04,.04l-.78,.64-.39,.3-.26,.19c-.35,.26-.72,.5-1.09,.73-1.48,.92-3.09,1.63-4.75,2.15-1.67,.51-3.39,.83-5.12,.98-.87,.07-1.74,.11-2.61,.11-.43,0-.87-.01-1.3-.03l-.65-.04-.34-.02c-.2,0-.4-.05-.55-.17-.2-.16-.29-.41-.31-.68-.02-.18-.02-.34-.02-.51,.02-.33,.09-.65,.2-.95,.22-.6,.56-1.13,.97-1.58,.81-.91,1.86-1.57,2.99-1.96,1.13-.4,2.34-.53,3.52-.45,.59,.04,1.17,.12,1.74,.25,.29,.06,.57,.14,.85,.22l.44,.14c.28,.08,.51,.19,.63,.42,.07,.15,.11,.31,.06,.49-.03,.17-.09,.38-.12,.45-.07,.2-.15,.39-.25,.58-.19,.37-.43,.71-.7,1.01-.54,.61-1.21,1.08-1.91,1.44-1.41,.7-2.86,1.06-4.32,1.42-2.92,.68-5.94,.96-8.94,.81-.75-.05-1.49-.06-2.29-.26-.79-.17-1.63-.67-2.09-1.42-.23-.37-.4-.77-.47-1.2-.04-.21-.06-.43-.05-.65,0-.11,.02-.22,.03-.33,.02-.16,.07-.35,.18-.49,.1-.14,.25-.25,.42-.3,.08-.03,.17-.05,.26-.06l.15-.02,.53-.07c.35-.06,.7-.13,1.05-.21,1.4-.33,2.78-.84,4.19-1.3,1.41-.45,2.87-.91,4.44-.95,.39,0,.79,.02,1.18,.09,.2,.03,.39,.08,.59,.14,.21,.07,.32,.09,.66,.26,.28,.14,.56,.3,.83,.46-.1,.21-.38,.45-.55,.67l-.3,.33-.21,.2-.42,.39c-1.15,.99-2.45,1.81-3.84,2.39-1.39,.6-2.88,.95-4.38,1.08-.75,.06-1.51,.05-2.26,0-.18-.02-.41-.02-.66-.17-.24-.15-.36-.46-.34-.71,.03-.48,.31-.84,.54-1.13,.98-1.2,2.32-1.97,3.62-2.65,.65-.34,1.34-.71,2.13-.79,.78-.08,1.53,.1,2.24,.29,.35,.1,.73,.18,1.07,.39,.35,.21,.56,.61,.61,.99,.1,.77-.14,1.53-.52,2.17-.79,1.31-2.16,2.05-3.44,2.75Z"/><path d="M128.37,7.03c.92-.12,1.81-.35,2.65-.68,.4-.17,.89-.34,1.13-.58,.1-.09,.15-.35,.24-.54,.03-.06,.06-.13,.1-.2l.09-.13s.05-.06,.08-.08c.11-.02-.02-.07-.07-.1l-.31-.12c-.37-.13-.75-.19-1.15-.18-.79,.02-1.67,.25-2.58,.32-1.79,.17-3.55,.09-5.2,.41-.82,.15-1.64,.41-2.45,.71l-1.15,.43s-.05,.03-.06,.06c-.02,.03-.04,.16-.06,.26l-.13,.64c-.33,1.71-.54,3.45-.61,5.22-.2-1.75-.21-3.54-.04-5.31l.07-.66c.02-.11,.02-.21,.07-.38,.05-.18,.16-.35,.32-.45,.18-.12,.26-.14,.37-.19l.3-.14,.61-.27c.82-.35,1.67-.68,2.58-.87,1.81-.39,3.61-.32,5.32-.43,1.63-.03,3.65-.91,5.53,1.22-.35,.11-.7,.19-.86,.29-.1,.07-.11,.11-.14,.13-.03,.03-.05,.06-.07,.1-.13,.21-.16,.44-.42,.67-.48,.35-.92,.4-1.38,.55-.91,.23-1.84,.34-2.77,.32Z"/><path d="M125.5,8c.52-.7,1.24-1.24,2-1.68,.76-.44,1.53-.83,2.35-1.17,.82-.33,1.72-.56,2.62-.63,.9-.07,1.78-.04,2.64,.04,1.73,.12,3.45,.31,5.15,.56,.42,.06,.88,.11,1.34,.29,.48,.18,.84,.56,1.09,.91,.51,.7,1,1.41,1.49,2.13l-1.83-1.83c-.3-.3-.6-.53-.95-.61-.36-.09-.77-.09-1.21-.11-1.73-.08-3.44-.18-5.14-.3-1.73-.15-3.35-.21-4.95,.29-.8,.23-1.61,.53-2.4,.84-.78,.32-1.55,.7-2.2,1.28Z"/><path d="M168.98,18.7c1.5-.75,3.3-.82,4.67-1.13,.69-.14,1.31-.35,1.76-.61,.45-.26,.81-.62,.98-.94,.17-.31,.22-.57,.15-1.02-.08-.43-.35-.95-.74-1.39-.78-.91-2.28-1.58-3.77-2.28,1.59-.29,3.34-.54,5.15,.41,.87,.49,1.64,1.24,2.09,2.29,.47,1.02,.45,2.48-.19,3.53-.61,1.05-1.55,1.72-2.53,2.07-1,.35-1.97,.37-2.84,.27-1.77-.22-3.11-.91-4.73-1.19Z"/><path d="M166.07,13.93c1.3-.87,2.35-1.85,3.21-2.88,.22-.26,.36-.48,.39-.62,.03-.13,.01-.24-.01-.38-.04-.28-.23-.67-.48-.96-.47-.57-1.65-1.08-3.03-1.53-1.38-.47-2.73-1-4.24-1.42,1.45-.62,3.06-.86,4.6-.88,.77,0,1.59,.03,2.47,.27,.87,.25,1.78,.67,2.54,1.53,.7,.83,1.15,1.89,1.04,3.1-.05,.6-.28,1.23-.66,1.72-.38,.48-.8,.76-1.16,.97-1.44,.84-3.1,1.21-4.66,1.08Z"/><path d="M163.86,10.12c.16-.47,.67-.78,1.13-.95,.49-.17,.95-.27,1.43-.37,.96-.19,1.93-.31,2.92-.34,.98-.03,1.99,.02,3.02,.25,1.02,.23,2.07,.65,2.95,1.39,.89,.74,1.51,1.77,1.81,2.82,.31,1.05,.35,2.14,.2,3.17-.32,2.07-1.32,3.79-2.39,5.37,.45-1.87,.91-3.73,.85-5.47-.06-1.72-.65-3.37-1.8-4.31-1.16-.98-2.91-1.4-4.73-1.67-.91-.14-1.83-.24-2.77-.31-.47-.03-.95-.07-1.39-.06-.44,.02-.91,.1-1.23,.47Z"/><path d="M175.81,18.88c.58-.6,1.28-1.11,2.07-1.49,.39-.19,.8-.35,1.23-.48,.42-.12,.87-.24,1.41-.22,.52,0,1.25,.24,1.67,.77,.4,.49,.54,.88,.72,1.06,.35,.45,1.01,.88,1.69,1.63,.33,.37,.66,.9,.8,1.43,.15,.51,.18,.95,.24,1.31,.06,.37,.1,.6,.23,.84,.07,.14,.2,.33,.33,.58,.13,.25,.25,.61,.24,.93,0,.67-.27,1.14-.51,1.52-.25,.38-.5,.67-.7,1-.42,.65-.76,1.39-.98,2.2-.12-.83-.08-1.7,.15-2.55,.11-.43,.29-.84,.4-1.19,.12-.35,.16-.67,.1-.83-.04-.14-.17-.24-.5-.65-.35-.44-.55-1.01-.65-1.44-.11-.45-.18-.82-.28-1.09-.09-.26-.21-.44-.42-.68-.4-.48-1.13-.99-1.72-1.89-.3-.49-.42-.9-.52-1.06-.07-.14-.15-.24-.45-.32-.27-.08-.64-.09-1.03-.08-.38,0-.77,.04-1.16,.1-.78,.11-1.56,.32-2.34,.63Z"/><path d="M147.53,6.12c1.77-.76,3.53-1.46,5.38-2.03,.93-.28,1.9-.5,2.92-.59,1.02-.1,2.05-.05,3.04,.11,.99,.16,1.95,.41,2.87,.71,.46,.15,.91,.32,1.36,.49,.46,.18,.86,.32,1.38,.57,.51,.22,1.1,.75,1.32,1.29,.24,.53,.34,.98,.46,1.46,.22,.96,.31,1.94,.28,2.9-.31-.91-.69-1.78-1.13-2.59-.22-.4-.46-.84-.69-1.13-.25-.3-.44-.38-.82-.49l-2.68-.63c-.9-.21-1.79-.4-2.67-.54-1.76-.3-3.47-.26-5.33-.04-1.85,.21-3.77,.43-5.69,.52Z"/><path d="M136.26,5.77c1.08-.85,1.89-1.8,2.53-2.84,.34-.58,.43-.7,.03-1.19-.33-.4-1.16-.85-1.2-1.6,.4,.59,1.04,.58,1.7,1.01,.31,.2,.68,.56,.73,1.11,.04,.54-.21,.93-.38,1.22-.75,1.23-2.05,2.09-3.41,2.3Z"/><g><path d="M115.18,31.51s-4.9-2.8-9.4,3.3c-2.8,3.8-.6,8.3-.6,8.3,0,0-3.3-4.5-1.3-8.5,2.1-4,5.5-5.8,5.5-5.8,0,0-13.5-5.7-12.9,3.5,.5,9.2,2.9,13.2,2.9,13.2,0,0-9.4-6.5-7.5-16.6,2-10,9.1-17.9,19.7-18.2,10.5-.4,18.4-2,26.3,2.4,11.6,6.4,9.4,15.7,9.4,15.7l-32.1,2.7Z"/><path d="M102.78,15.21s-10.2-.4-12.2,7.9c-2,8.4-1.2,10.1,1.3,10.9,2.5,.8,5.7,2.7,8.5,1.3s3.4-3.4,3.4-3.4c0,0-2.1,3.7-6.6,2.3s-6.4-2.5-5.7-5.8,3.4-9.6,7.8-9.7c4.4-.1,6.6,1.1,6.6,1.1"/><path d="M93.78,49.71s-.7-1.7-1.4-4.3c-.3-1.3-.7-2.8-1-4.5s-.5-3.5-.6-5.3,0-3.6,.2-5.3c.1-.8,.3-1.7,.5-2.4,.1-.4,.2-.7,.4-1.1,.1-.3,.3-.7,.4-1,.3-.6,.6-1.2,.9-1.6,.3-.5,.6-.8,.9-1.1,.2-.3,.5-.5,.7-.6s.2-.2,.2-.2l-.2,.2c-.1,.2-.4,.4-.6,.7-.2,.3-.5,.7-.7,1.2-.1,.2-.3,.5-.4,.8-.1,.3-.3,.6-.4,.9-.9,2.5-1.3,6-1.1,9.6,.1,1.8,.3,3.5,.5,5.2s.5,3.2,.7,4.5c.3,1.3,.5,2.4,.6,3.2,.3,.7,.4,1.1,.4,1.1Z"/><path d="M101.58,43.01s-.3,.2-.9,.5c-.3,.2-.7,.3-1.1,.5-.4,.2-1,.3-1.5,.5-.6,.1-1.2,.2-1.9,.2-.7-.1-1.4-.2-2.1-.6l-.5-.3-.4-.4c-.3-.2-.5-.6-.8-.9-.5-.6-.8-1.4-1.1-2.1-.3-.7-.6-1.5-.8-2.2s-.4-1.5-.5-2.2c-.3-1.5-.3-2.8-.2-4,0-.6,.1-1.1,.2-1.6,.1-.5,.2-.9,.3-1.2,.2-.7,.4-1,.4-1h.1s-.1,.4-.2,1c-.1,.7-.2,1.6-.2,2.7,0,.6,0,1.2,.1,1.8s.1,1.3,.3,2c.2,1.4,.6,2.9,1.1,4.3,.3,.7,.5,1.4,.9,2,.2,.3,.4,.6,.7,.8l.4,.4,.4,.3c.6,.4,1.2,.5,1.9,.6,.6,0,1.3,0,1.8-.1,.6-.1,1.1-.2,1.5-.4,.4-.1,.8-.3,1.1-.4,.6-.1,.9-.2,1-.2h0Z"/><path d="M86.68,35.31s.2,0,.5-.1,.7-.3,1-.7c.2-.2,.3-.4,.4-.7,.1-.3,.2-.6,.3-.9,.2-.6,.3-1.3,.5-2,.3-1.5,.7-2.9,1.1-3.9,.4-1.1,.7-1.7,.7-1.7,0,0-.1,.7-.2,1.8-.2,1.1-.4,2.5-.7,4-.1,.4-.2,.7-.3,1.1-.1,.4-.2,.7-.4,1.1-.1,.3-.3,.6-.5,.9-.2,.3-.4,.5-.6,.7-.5,.4-1,.5-1.3,.5-.3,0-.5-.1-.5-.1Z"/><path d="M101.88,43.01s-.4-.5-.9-1.4-1.2-2.3-1.4-4.2c-.1-.9,0-2,.3-3,.4-1,1-2,1.8-2.9s1.6-1.8,2.5-2.6,2-1.5,3.3-2c1.2-.4,2.5-.7,3.7-.8s2.4-.1,3.6-.1c2.3,0,4.4,.1,6.3,0,1.8-.1,3.3-.3,4.4-.6,.5-.1,.9-.3,1.2-.4,.3-.1,.4-.2,.4-.2,0,0-.1,.1-.4,.2-.3,.1-.7,.2-1.2,.4-1,.3-2.5,.7-4.4,.9-1.8,.2-4,.3-6.3,.4-1.1,.1-2.3,.2-3.5,.3s-2.3,.4-3.4,.8c-1.1,.4-2.1,1-3,1.8-.9,.7-1.7,1.6-2.5,2.4-.8,.8-1.4,1.7-1.8,2.6-.4,.9-.5,1.9-.5,2.8,.1,1.8,.7,3.3,1.1,4.2,.3,.9,.7,1.4,.7,1.4Z"/><path d="M103.58,42.21s-.3-.3-.8-1c-.5-.6-1-1.6-1.4-3-.3-1.3-.4-3.1,.3-4.7,.3-.8,.8-1.6,1.4-2.4,.6-.7,1.2-1.4,2-2,.7-.6,1.5-1.1,2.3-1.6s1.5-.9,2.3-1.3c1.5-.8,2.8-1.6,3.9-2.4,1.1-.8,2.1-1.3,2.8-1.7,.7-.3,1.1-.5,1.1-.5,0,0-.4,.1-1.1,.5s-1.6,1-2.6,1.9-2.3,1.9-3.7,2.8c-.7,.5-1.4,.9-2.2,1.4-.7,.5-1.5,1-2.1,1.6-.7,.5-1.3,1.1-1.9,1.8-.6,.6-1,1.3-1.4,2.1-.7,1.4-.9,3-.7,4.3s.6,2.4,1.1,3c.2,.3,.4,.6,.5,.7,.1,.5,.2,.5,.2,.5Z"/><path d="M100.48,42.91s0-.1-.1-.3-.2-.5-.4-.9c-.3-.7-.7-1.8-1-3.2s-.4-3-.2-4.8c.1-.9,.3-1.8,.6-2.7s.7-1.8,1.2-2.6,1.1-1.6,1.8-2.2c.7-.7,1.4-1.2,2.2-1.7,1.5-.9,3.1-1.5,4.5-1.7,1.4-.2,2.6-.2,3.4-.1,.4,0,.7,.1,.9,.1h0c-.2,0-.5-.1-.9-.1-.8,0-2,0-3.3,.4s-2.8,1.1-4.1,2c-.7,.5-1.3,1.1-1.9,1.7s-1.1,1.3-1.6,2.1-.9,1.6-1.2,2.4c-.3,.8-.6,1.7-.7,2.5-.3,1.7-.4,3.3-.3,4.6,.1,1.4,.4,2.5,.7,3.3,.1,.4,.3,.7,.3,.9,.1,.2,.1,.3,.1,.3Z"/><path d="M89.28,42.21s-.1-.6-.4-1.6c-.2-1-.6-2.5-.7-4.3-.1-1.8,0-4,.8-6.1,.4-1.1,.9-2.1,1.5-3.2,.6-1,1.4-2,2.2-2.9,.9-.9,1.9-1.6,2.9-2.2,1.1-.6,2.1-1,3.2-1.4,2.1-.7,4.1-1.2,5.8-1.8,1.7-.5,3-1.2,3.9-1.7,.5-.3,.8-.5,1-.7s.3-.3,.3-.3c0,0-.1,.1-.3,.3-.2,.2-.5,.4-1,.7-.9,.6-2.2,1.3-3.8,2s-3.6,1.4-5.6,2.2c-1,.4-2,.9-3,1.5s-1.9,1.3-2.7,2.1-1.5,1.7-2.1,2.7-1.2,1.9-1.6,2.9c-.9,2-1.2,4-1.2,5.8s.2,3.2,.4,4.3c.2,1.2,.4,1.7,.4,1.7Z"/><path d="M85.58,32.11s.5-.1,1.3-.4c.8-.3,2-.8,3.3-1.7s2.6-2.1,3.8-3.5c.6-.7,1.2-1.5,1.8-2.3s1.1-1.7,1.7-2.5c.5-.9,1-1.7,1.5-2.6,.5-.9,.9-1.8,1.3-2.6,.8-1.7,1.5-3.4,2.1-4.8,.7-1.4,1.3-2.5,1.7-3.3,.5-.8,.8-1.2,.8-1.2,0,0-.3,.4-.7,1.2-.4,.8-.9,2-1.5,3.4-.5,1.4-1,3.2-1.7,5-.3,.9-.7,1.8-1.2,2.8-.4,.9-.9,1.8-1.5,2.7-.5,.9-1.1,1.7-1.8,2.6-.6,.8-1.3,1.6-2,2.3-1.3,1.4-2.8,2.5-4.2,3.3s-2.6,1.2-3.4,1.4c-.8,.1-1.3,.2-1.3,.2Z"/><g class="cls-8"><path class="cls-26" d="M105.08,42.81s-.1-.1-.2-.3c-.1-.2-.3-.4-.4-.8-.3-.7-.4-1.8-.3-3.2,.1-1.3,.1-2.9,1.1-4.4,.9-1.4,2.4-2.5,3.7-3.6,.7-.5,1.4-1,2.3-1.4,.8-.3,1.7-.5,2.5-.5,1.7-.1,3.2,0,4.5,.3s2.3,.8,2.9,1.2,1,.7,1,.7c0,0-.3-.3-1-.7s-1.7-.8-2.9-1.1c-1.3-.3-2.8-.4-4.4-.2-.8,.1-1.6,.2-2.4,.5s-1.5,.8-2.2,1.3c-1.4,1.1-2.8,2.1-3.7,3.5s-1,2.9-1.1,4.2-.1,2.4,.2,3.1c.1,.4,.3,.6,.4,.8-.1,.5,0,.6,0,.6Z"/></g><g class="cls-8"><path class="cls-26" d="M103.68,39.51s0-.1-.1-.3c0-.2-.1-.5,0-.9,.1-.8,.4-2,1.1-3.2,.7-1.2,1.7-2.5,3-3.7,1.3-1.2,2.8-2.3,4.6-3,1.8-.7,3.7-.8,5.4-.7,1.7,.1,3.4,.4,4.7,.8,1.4,.4,2.4,.8,3.2,1.1,.8,.3,1.2,.5,1.2,.5,0,0-.4-.2-1.2-.5-.8-.3-1.9-.7-3.2-1-1.3-.3-3-.6-4.7-.7-1.7-.1-3.6,0-5.3,.7-1.7,.6-3.3,1.7-4.5,2.9-1.3,1.2-2.3,2.5-3,3.6-.7,1.2-1.1,2.3-1.2,3.1-.1,.4,0,.7,0,.9,0,.3,0,.4,0,.4Z"/></g><g class="cls-8"><path class="cls-26" d="M143.28,29.61s-.1-.3-.2-.7c-.2-.5-.4-1.2-.8-2-.8-1.7-2.4-3.8-4.5-6.1-1.1-1.1-2.4-2.3-3.9-3.2s-3.3-1.7-5.2-2.2c-3.8-1.1-8-1.8-12.2-1.6-4.2,.1-8.4,1.1-11.9,2.8s-6.4,4.3-7.6,7.3c-1.2,2.9-1.2,5.7-1.2,7.5s.1,2.9,.1,2.9c0,0-.1-1.1-.2-2.9,0-1.8-.1-4.6,1.1-7.5,1.2-3,4.1-5.7,7.7-7.4,3.6-1.8,7.8-2.7,12-2.9,4.2-.1,8.5,.5,12.3,1.7,1.9,.6,3.7,1.3,5.2,2.3,1.6,1,2.9,2.1,3.9,3.3,2.1,2.3,3.7,4.5,4.5,6.2,.4,.8,.6,1.5,.8,2,.1,.2,.1,.5,.1,.5Z"/></g><g class="cls-8"><path class="cls-26" d="M140.68,28.11s0-.2-.1-.7c-.1-.4-.3-1.1-.7-1.8-.8-1.4-2.3-3.2-4.5-5.1-2.1-1.8-5-3.5-8.4-4.4-3.4-.8-7.2-.7-10.9-.7-3.7,.1-7.4,1-10.5,2.7-3.1,1.6-5.6,3.7-7.4,5.9-1.8,2.1-3,4.2-3.7,5.7-.4,.7-.6,1.3-.7,1.8-.2,.4-.2,.6-.2,.6,0,0,.1-.2,.2-.6,.1-.4,.3-1,.7-1.8,.6-1.5,1.7-3.6,3.6-5.8,1.8-2.2,4.3-4.4,7.5-6.1,3.1-1.7,6.9-2.7,10.7-2.8,1.9-.1,3.8,0,5.6,0,1.8,.1,3.7,.3,5.4,.7,3.5,.9,6.3,2.7,8.4,4.6,2.1,1.9,3.6,3.8,4.4,5.2,.4,.7,.6,1.4,.6,1.8,.1,.6,0,.8,0,.8Z"/></g><g class="cls-8"><path class="cls-26" d="M97.48,43.71s-.1-.2-.4-.6c-.3-.4-.7-1-1.1-1.7-.5-.8-1-1.7-1.4-2.9s-.5-2.6-.4-4.1c.2-1.5,.3-3.2,1-4.8s2-3.1,3.4-4.3c3-2.4,6.8-4.1,10.8-4.9,4-.8,8.1-.7,11.9-.1,3.8,.6,7.2,1.6,10,2.7,2.8,1.1,5,2.5,6.2,3.8,.6,.6,1.1,1.1,1.4,1.5s.4,.6,.4,.6c0,0-.2-.2-.4-.6-.3-.4-.8-.9-1.4-1.5-1.3-1.2-3.4-2.6-6.3-3.6-2.8-1.1-6.2-2-10-2.6-3.7-.6-7.8-.7-11.7,.1-3.9,.8-7.7,2.4-10.6,4.8-1.5,1.2-2.7,2.5-3.4,4.1s-.9,3.2-1.1,4.7c-.2,1.5-.1,2.9,.3,4.1,.3,1.2,.8,2.1,1.3,2.9,.4,.8,.8,1.3,1.1,1.7,.2,.5,.4,.7,.4,.7Z"/></g><g class="cls-8"><path class="cls-26" d="M97.98,43.81s-.2-.8-.9-2.1c-.4-.6-.9-1.3-1.4-2.2s-.9-2-1-3.3c-.1-1.2-.1-2.6,.3-4,.4-1.4,.9-2.9,2-4,1.2-1.2,2.8-1.7,4.4-2,1.6-.4,3.3-.5,4.9-.7,3.3-.3,6.6-.5,9.7-.3s6,.8,8.4,1.5c2.4,.8,4.2,1.7,5.5,2.4,1.2,.7,1.9,1.2,1.9,1.2,0,0-.7-.5-1.9-1.2-1.3-.7-3.1-1.6-5.5-2.3s-5.2-1.2-8.3-1.4c-3.1-.2-6.4,0-9.7,.3-1.6,.2-3.3,.3-4.9,.7-1.6,.3-3.1,.8-4.2,1.9-1,1.1-1.6,2.5-2,3.9s-.5,2.7-.4,3.9,.5,2.3,.9,3.2,.9,1.6,1.3,2.3c.4,.6,.6,1.2,.7,1.5,.1,.5,.2,.7,.2,.7Z"/></g><g class="cls-8"><path class="cls-26" d="M95.98,41.31s-.3-.1-.8-.5c-.5-.3-1.1-.9-1.6-1.9-.5-.9-.8-2.2-.9-3.7-.1-1.5-.1-3.2,.1-5,.2-1.8,.5-3.8,1.3-5.8s2.1-3.9,3.8-5.4c1.7-1.6,3.8-2.9,6-3.8,2.2-.9,4.6-1.5,7.1-1.9,2.4-.4,4.9-.5,7.3-.6s4.8-.2,7.1,.2c2.3,.4,4.4,1.3,6.3,2.2,1.9,1,3.6,1.9,5.2,2.8,3.2,1.9,5.6,3.8,6.8,5.7,.6,.9,.9,1.7,1.1,2.2,.1,.3,.1,.5,.1,.6v0c0-.1-.1-.4-.2-.6-.2-.5-.5-1.3-1.1-2.2-1.2-1.8-3.7-3.7-6.8-5.5-1.6-.9-3.4-1.8-5.2-2.7-1.9-.9-3.9-1.8-6.2-2.1-2.2-.4-4.6-.3-7-.2s-4.8,.3-7.2,.6c-2.4,.4-4.8,1-7,1.9s-4.2,2.2-5.9,3.7-3,3.3-3.8,5.3c-.8,1.9-1.1,3.9-1.3,5.7-.3,3.6-.3,6.8,.7,8.7,.5,1,1.1,1.6,1.5,1.9,.3,.2,.6,.4,.6,.4Z"/></g><g class="cls-8"><path class="cls-26" d="M91.38,39.71s.1-.1,.1-.3,0-.5-.1-1c-.1-.8-.7-1.9-.7-3.4,0-.7,.1-1.5,.2-2.3,.1-.8,.2-1.7,.3-2.6,.1-.9,.2-1.8,.3-2.7s.2-1.9,.6-2.8c.4-.9,1-1.7,1.7-2.4,.6-.7,1.3-1.3,2-1.9,1.3-1.2,2.7-2.2,4-2.9s2.4-1.1,3.2-1.4c.4-.1,.7-.2,.9-.3s.3-.1,.3-.1c0,0-.1,0-.3,.1s-.5,.2-.9,.3c-.8,.3-1.9,.8-3.1,1.5-1.2,.7-2.5,1.7-3.8,3-.7,.6-1.3,1.3-1.9,1.9-.6,.7-1.2,1.4-1.6,2.3-.4,.8-.5,1.8-.6,2.7s-.2,1.8-.4,2.7c-.2,1.8-.5,3.4-.6,4.8,0,1.4,.5,2.5,.6,3.4,0,.4,.1,.7,0,1-.1,.2-.2,.4-.2,.4Z"/></g><g class="cls-8"><path class="cls-26" d="M96.98,42.31s-.1-.1-.3-.2c-.2-.2-.5-.4-.9-.8-.7-.7-1.6-2-2-3.8-.3-1.7-.5-3.8-.2-6s1-4.5,2.2-6.6,2.8-3.9,4.7-5.1c1.8-1.3,3.9-1.9,5.5-2.6,1.6-.6,2.9-1.4,3.7-2,.4-.3,.7-.6,.9-.8,.2-.2,.3-.3,.3-.3,0,0-.1,.1-.3,.3-.2,.2-.4,.5-.8,.9-.8,.7-2,1.5-3.6,2.2s-3.6,1.4-5.3,2.7c-1.8,1.3-3.4,3-4.5,5-1.2,2-1.9,4.3-2.2,6.4-.3,2.2-.2,4.2,.1,5.9s1.1,3,1.8,3.7c.3,.4,.6,.6,.9,.8-.1,.2,0,.3,0,.3Z"/></g><g class="cls-8"><path class="cls-26" d="M101.48,37.61s0-.5,.1-1.5c.1-.9,.4-2.3,1.1-3.8,.7-1.5,1.9-3.1,3.7-4.2,1.8-1.2,4.1-1.5,6.2-1.6,2.2-.1,4.4,0,6.4,.2s3.9,.6,5.5,1,2.9,.7,3.8,.9,1.4,.4,1.4,.4c0,0-.5-.1-1.5-.3-.9-.2-2.3-.5-3.9-.8s-3.5-.6-5.5-.9c-2-.2-4.2-.3-6.4-.2-2.2,.1-4.3,.4-6.1,1.5-1.7,1-3,2.6-3.7,4-.8,1.4-1.1,2.8-1.3,3.7,.2,1.1,.2,1.6,.2,1.6Z"/></g><g class="cls-8"><path class="cls-26" d="M88.78,34.81v-2.3c.1-.3,.2-.6,.2-.8,.1-.3,.2-.5,.2-.7,.2-.4,.3-.7,.3-.7,0,0-.1,.3-.2,.7-.1,.2-.1,.5-.2,.7-.1,.3-.2,.5-.2,.8-.1,.3-.1,.6-.1,.8v1.5Z"/></g><g class="cls-8"><path class="cls-26" d="M90.78,34.71s-.1-.2-.2-.5c-.1-.3-.2-.8-.3-1.4-.1-.6-.1-1.3-.1-2,.1-.7,.2-1.5,.4-2.3s.3-1.6,.6-2.3,.6-1.3,.9-1.8c.6-1,1.1-1.6,1.1-1.6,0,0-.5,.7-1,1.7-.3,.5-.6,1.1-.8,1.8-.3,.7-.4,1.5-.6,2.2-.2,.8-.3,1.5-.4,2.3-.1,.7-.1,1.4,0,2s.2,1.1,.3,1.4c.1,.3,.1,.5,.1,.5Z"/></g><g class="cls-8"><path class="cls-26" d="M92.38,36.21s-.1-.3-.3-.8c-.1-.5-.2-1.3-.3-2.2,0-.9-.1-2,0-3.1s.5-2.3,1.1-3.4c.6-1.1,1.1-2.2,1.6-3.2s1.1-1.9,1.7-2.6c.6-.7,1.2-1.2,1.6-1.5,.4-.3,.7-.4,.7-.4,0,0-.3,.1-.7,.4-.4,.3-1,.8-1.6,1.5s-1.1,1.6-1.7,2.6c-.5,1-1,2.1-1.6,3.2-.5,1.1-1,2.2-1.1,3.3s-.1,2.2-.1,3.1,.1,1.7,.2,2.2c.4,.6,.5,.9,.5,.9Z"/></g><g class="cls-8"><path class="cls-26" d="M90.18,33.41s-.1-.3-.2-.8c-.1-.5-.3-1.3-.3-2.2s.1-2,.3-3.2c.3-1.1,.5-2.3,1-3.5s1.3-2.2,2.1-3,1.5-1.6,2.3-2.2c.8-.5,1.5-.8,2-.9,.5-.1,.8-.2,.8-.2,0,0-.3,.1-.8,.3s-1.2,.5-1.9,1.1c-.7,.5-1.4,1.4-2.1,2.2-.7,.9-1.5,1.8-1.9,2.9-.5,1.1-.8,2.3-1.1,3.4-.3,1.1-.5,2.1-.5,3s0,1.7,.1,2.2c.2,.6,.2,.9,.2,.9Z"/></g></g></g></svg>