<?xml version="1.0" encoding="utf-8"?>
<!-- Generator: Adobe Illustrator 21.0.0, SVG Export Plug-In . SVG Version: 6.00 Build 0)  -->
<svg version="1.1" id="background" xmlns="http://www.w3.org/2000/svg" xmlns:xlink="http://www.w3.org/1999/xlink" x="0px" y="0px"
	 viewBox="0 0 360 8.4" style="enable-background:new 0 0 360 8.4;" xml:space="preserve">
<style type="text/css">
	.st0{fill:#EEEAEA;}
	.st1{fill:none;stroke:#C2BFBF;stroke-width:0.161;stroke-miterlimit:10;}
</style>
<g>
	<rect class="st0" width="360" height="8.4"/>
	<line class="st1" x1="19.9" y1="0" x2="19.9" y2="8.4"/>
	<line class="st1" x1="5.2" y1="0" x2="5.2" y2="8.4"/>
	<line class="st1" x1="49.3" y1="0" x2="49.3" y2="8.4"/>
	<line class="st1" x1="34.6" y1="0" x2="34.6" y2="8.4"/>
	<line class="st1" x1="78.8" y1="0" x2="78.8" y2="8.4"/>
	<line class="st1" x1="64" y1="0" x2="64" y2="8.4"/>
	<line class="st1" x1="108.2" y1="0" x2="108.2" y2="8.4"/>
	<line class="st1" x1="93.5" y1="0" x2="93.5" y2="8.4"/>
	<line class="st1" x1="137.6" y1="0" x2="137.6" y2="8.4"/>
	<line class="st1" x1="122.9" y1="0" x2="122.9" y2="8.4"/>
	<line class="st1" x1="167.1" y1="0" x2="167.1" y2="8.4"/>
	<line class="st1" x1="152.3" y1="0" x2="152.3" y2="8.4"/>
	<line class="st1" x1="196.5" y1="0" x2="196.5" y2="8.4"/>
	<line class="st1" x1="181.8" y1="0" x2="181.8" y2="8.4"/>
	<line class="st1" x1="225.9" y1="0" x2="225.9" y2="8.4"/>
	<line class="st1" x1="211.2" y1="0" x2="211.2" y2="8.4"/>
	<line class="st1" x1="240.8" y1="0" x2="240.8" y2="8.4"/>
	<line class="st1" x1="270.2" y1="0" x2="270.2" y2="8.4"/>
	<line class="st1" x1="255.5" y1="0" x2="255.5" y2="8.4"/>
	<line class="st1" x1="299.6" y1="0" x2="299.6" y2="8.4"/>
	<line class="st1" x1="284.9" y1="0" x2="284.9" y2="8.4"/>
	<line class="st1" x1="329.1" y1="0" x2="329.1" y2="8.4"/>
	<line class="st1" x1="314.3" y1="0" x2="314.3" y2="8.4"/>
	<line class="st1" x1="358.5" y1="0" x2="358.5" y2="8.4"/>
	<line class="st1" x1="343.8" y1="0" x2="343.8" y2="8.4"/>
</g>
</svg>
