<?xml version="1.0" encoding="utf-8"?>
<!-- Generator: Adobe Illustrator 21.0.0, SVG Export Plug-In . SVG Version: 6.00 Build 0)  -->
<svg version="1.1" id="Layer_1" xmlns="http://www.w3.org/2000/svg" xmlns:xlink="http://www.w3.org/1999/xlink" x="0px" y="0px"
	 viewBox="0 0 352 516.8" style="enable-background:new 0 0 352 516.8;" xml:space="preserve">
<style type="text/css">
	.st0{fill:#D2FBFF;}
	.st1{fill:#E6FEFF;}
	.st2{fill:#A9F3FF;}
	.st3{display:none;}
	.st4{display:inline;fill:#C1C1C1;}
	.st5{display:none;fill:#E6FEFF;}
	.st6{display:none;opacity:0.7;fill:#57D9F7;enable-background:new    ;}
	.st7{opacity:0.7;fill:#57D9F7;enable-background:new    ;}
	.st8{display:none;fill:#C1C1C1;}
	.st9{display:none;opacity:0.3;fill:#FFFFFF;enable-background:new    ;}
	.st10{display:none;opacity:0.3;fill:#C6C6C6;enable-background:new    ;}
	.st11{fill:none;}
	.st12{display:none;fill:#D2FBFF;}
	.st13{display:none;opacity:0.75;fill:#A9F3FF;enable-background:new    ;}
	.st14{display:none;fill:none;}
	.st15{display:inline;}
	.st16{opacity:0.5;}
</style>
<path class="st0" d="M352,44.4C352,19.9,273.2,0,176,0S0,19.9,0,44.4c0,0.3,0,0.7,0.1,1H0L44,483h0.1c0,0.3-0.1,0.7-0.1,1
	c0,18.1,59.1,32.8,132,32.8s132-14.7,132-32.8c0-0.3,0-0.7-0.1-1h0.1l44-437.6h-0.1C351.9,45.1,352,44.7,352,44.4z"/>
<ellipse class="st1" cx="176" cy="44.4" rx="176" ry="44.4"/>
<ellipse class="st2" cx="176" cy="484" rx="132" ry="32.8"/>
<g class="st3">
	<path class="st4" d="M-619.4-807.5c-4.3,0-12.7-2.3-19.8-9c-5.4-5.1-11.8-14.4-11.6-30c0.4-34,24-37.7,31.2-38h0.1l59.1-0.8
		l0.1,9.4l-59,0.8c-8.2,0.4-21.8,4.6-22.1,28.7c-0.1,9.8,2.8,17.5,8.6,23c5.5,5.2,11.8,6.5,13.4,6.4l0.7,9.4
		C-618.9-807.5-619.2-807.5-619.4-807.5z"/>
</g>
<path class="st5" d="M-390-171.1h-221.2c-6.4,0-11.7-5.3-11.7-11.7v-625.7c0-30.2,24.7-55,55-55h134.6c30.2,0,55,24.7,55,55v625.7
	C-378.3-176.4-383.5-171.1-390-171.1z"/>
<path class="st6" d="M-378.1-707.9v-65.6c-15.1,13.5-38.1,8.4-47.3-12.6c-0.3-0.7-0.4-1.9-1.4-1.9c-0.8,0-1,1.1-1.3,1.8
	c-6,11.1-14.6,17.3-25.9,17.7c-12.3,0.5-21.7-5.8-28.3-17.9c-1.1-2-1.1-2-2.1-0.1c-3,5.8-7,10.3-12.2,13.5
	c-14.9,9.1-32.9,3.4-41.8-13.3c-1.3-2.5-1.5-2.5-2.8-0.1c-0.2,0.3-0.4,0.7-0.6,1c-6.1,9.6-14.2,14.8-24.4,15.2
	c-11.8,0.5-21-5.3-27.7-16.6c-1.3-2.1-2-2.1-3.3,0c-1.8,3.1-3.8,5.9-6.3,8.3c-5.6,5.5-12.5,8.3-19.4,8.5v104.4c0.1,0,0.3,0,0.4,0
	v475.5c0,10.9,7.7,19.8,17.1,19.8H-395c9.4,0,17.1-8.9,17.1-19.8v-515.1C-378-706.1-378.1-707-378.1-707.9z"/>
<path class="st7" d="M275.2,141.2c-0.4-0.4-0.6-1.1-1.8-1.1c-1.1,0-1.3,0.6-1.7,1c-7.9,6.1-19,9.5-33.8,9.7
	c-16.1,0.2-28.3-3.2-36.9-9.8c-1.4-1.1-1.5-1.1-2.8-0.1c-3.9,3.2-9.2,5.7-15.9,7.4c-19.4,5-42.8,1.8-54.4-7.3
	c-1.7-1.3-1.9-1.3-3.7-0.1c-0.3,0.2-0.5,0.4-0.8,0.6c-7.9,5.2-18.5,8.1-31.8,8.3c-15.4,0.3-27.4-2.9-36.1-9.1
	c-1.7-1.2-2.6-1.2-4.3,0c-2.3,1.7-5,3.2-8.2,4.6c-7.3,3-16.2,4.5-25.2,4.7l31,328l0,0l0,0c0,17.4,56.9,31.6,127.1,31.6
	S303,495.5,303,478c2.4-37.8,33.6-330,33.6-330C317.1,155.5,287.2,152.7,275.2,141.2z"/>
<path class="st8" d="M-435.8-863h-132.1v-37.3c0-3.3,2.7-6,6-6h120.1c3.3,0,6,2.7,6,6V-863z"/>
<rect x="-612.2" y="-743.2" class="st9" width="30.1" height="3.7"/>
<rect x="-612.2" y="-726.8" class="st9" width="18.4" height="1.9"/>
<rect x="-612.2" y="-712.2" class="st9" width="18.4" height="1.9"/>
<rect x="-612.2" y="-697.5" class="st9" width="18.4" height="1.9"/>
<rect x="-612.2" y="-682.9" class="st9" width="18.4" height="1.9"/>
<rect x="-612.2" y="-668.2" class="st9" width="30.1" height="3.7"/>
<rect x="-612.2" y="-651.8" class="st9" width="18.4" height="1.9"/>
<rect x="-612.2" y="-637.2" class="st9" width="18.4" height="1.9"/>
<rect x="-612.2" y="-622.5" class="st9" width="18.4" height="1.9"/>
<rect x="-612.2" y="-607.9" class="st9" width="18.4" height="1.9"/>
<rect x="-612.2" y="-593.2" class="st9" width="30.1" height="3.7"/>
<rect x="-612.2" y="-576.8" class="st9" width="18.4" height="1.9"/>
<rect x="-612.2" y="-562.2" class="st9" width="18.4" height="1.9"/>
<rect x="-612.2" y="-547.5" class="st9" width="18.4" height="1.9"/>
<rect x="-612.2" y="-532.9" class="st9" width="18.4" height="1.9"/>
<rect x="-612.2" y="-518.3" class="st9" width="30.1" height="3.7"/>
<rect x="-612.2" y="-501.8" class="st9" width="18.4" height="1.9"/>
<rect x="-612.2" y="-487.2" class="st9" width="18.4" height="1.9"/>
<rect x="-612.2" y="-472.6" class="st9" width="18.4" height="1.9"/>
<rect x="-612.2" y="-457.9" class="st9" width="18.4" height="1.9"/>
<rect x="-612.2" y="-443.3" class="st9" width="30.1" height="3.7"/>
<rect x="-612.2" y="-426.9" class="st9" width="18.4" height="1.9"/>
<rect x="-612.2" y="-412.2" class="st9" width="18.4" height="1.9"/>
<rect x="-612.2" y="-397.6" class="st9" width="18.4" height="1.9"/>
<rect x="-612.2" y="-382.9" class="st9" width="18.4" height="1.9"/>
<rect x="-612.2" y="-368.3" class="st9" width="30.1" height="3.7"/>
<rect x="-612.2" y="-351.9" class="st9" width="18.4" height="1.9"/>
<rect x="-612.2" y="-337.2" class="st9" width="18.4" height="1.9"/>
<rect x="-612.2" y="-322.6" class="st9" width="18.4" height="1.9"/>
<rect x="-612.2" y="-307.9" class="st9" width="18.4" height="1.9"/>
<g class="st3">
	<path class="st4" d="M-606.7,23.6c-4.3,0-12.7-2.3-19.8-9c-5.4-5.1-11.8-14.4-11.6-30c0.4-34,24-37.7,31.2-38h0.1l59.1-0.8l0.1,9.4
		l-59,0.8c-8.2,0.4-21.8,4.6-22.1,28.7c-0.1,9.8,2.8,17.5,8.6,23c5.5,5.2,11.8,6.5,13.4,6.4l0.7,9.4
		C-606.1,23.6-606.4,23.6-606.7,23.6z"/>
</g>
<path class="st5" d="M-377.2,660h-221.2c-6.4,0-11.7-5.3-11.7-11.7V22.6c0-30.2,24.7-55,55-55h134.6c30.2,0,55,24.7,55,55v625.7
	C-365.5,654.7-370.8,660-377.2,660z"/>
<path class="st8" d="M-423-31.9h-132.1v-37.3c0-3.3,2.7-6,6-6H-429c3.3,0,6,2.7,6,6V-31.9z"/>
<rect x="-599.4" y="87.9" class="st10" width="30.1" height="3.7"/>
<rect x="-599.4" y="104.3" class="st10" width="18.4" height="1.9"/>
<rect x="-599.4" y="118.9" class="st10" width="18.4" height="1.9"/>
<rect x="-599.4" y="133.6" class="st10" width="18.4" height="1.9"/>
<rect x="-599.4" y="148.2" class="st10" width="18.4" height="1.9"/>
<rect x="-599.4" y="162.9" class="st10" width="30.1" height="3.7"/>
<rect x="-599.4" y="179.3" class="st10" width="18.4" height="1.9"/>
<rect x="-599.4" y="193.9" class="st10" width="18.4" height="1.9"/>
<rect x="-599.4" y="208.6" class="st10" width="18.4" height="1.9"/>
<rect x="-599.4" y="223.2" class="st10" width="18.4" height="1.9"/>
<rect x="-599.4" y="237.9" class="st10" width="30.1" height="3.7"/>
<rect x="-599.4" y="254.3" class="st10" width="18.4" height="1.9"/>
<rect x="-599.4" y="268.9" class="st10" width="18.4" height="1.9"/>
<rect x="-599.4" y="283.6" class="st10" width="18.4" height="1.9"/>
<rect x="-599.4" y="298.2" class="st10" width="18.4" height="1.9"/>
<rect x="-599.4" y="312.8" class="st10" width="30.1" height="3.7"/>
<rect x="-599.4" y="329.3" class="st10" width="18.4" height="1.9"/>
<rect x="-599.4" y="343.9" class="st10" width="18.4" height="1.9"/>
<rect x="-599.4" y="358.5" class="st10" width="18.4" height="1.9"/>
<rect x="-599.4" y="373.2" class="st10" width="18.4" height="1.9"/>
<rect x="-599.4" y="387.8" class="st10" width="30.1" height="3.7"/>
<rect x="-599.4" y="404.2" class="st10" width="18.4" height="1.9"/>
<rect x="-599.4" y="418.9" class="st10" width="18.4" height="1.9"/>
<rect x="-599.4" y="433.5" class="st10" width="18.4" height="1.9"/>
<rect x="-599.4" y="448.2" class="st10" width="18.4" height="1.9"/>
<rect x="-599.4" y="462.8" class="st10" width="30.1" height="3.7"/>
<rect x="-599.4" y="479.2" class="st10" width="18.4" height="1.9"/>
<rect x="-599.4" y="493.9" class="st10" width="18.4" height="1.9"/>
<rect x="-599.4" y="508.5" class="st10" width="18.4" height="1.9"/>
<rect x="-599.4" y="523.2" class="st10" width="18.4" height="1.9"/>
<line class="st11" x1="0" y1="44.4" x2="44" y2="484"/>
<line class="st11" x1="308" y1="-264" x2="352" y2="-703.6"/>
<path class="st12" d="M352,138.6c0-24.5-78.8-44.4-176-44.4S0,114.1,0,138.6c0,0.3,0,0.7,0.1,1H0l44,437.6h0.1c0,0.3-0.1,0.7-0.1,1
	c0,18.1,59.1,32.8,132,32.8s132-14.7,132-32.8c0-0.3,0-0.7-0.1-1h0.1l44-437.6h-0.1C351.9,139.3,352,139,352,138.6z"/>
<ellipse class="st5" cx="176" cy="138.6" rx="176" ry="44.4"/>
<ellipse class="st13" cx="176" cy="578.2" rx="132" ry="32.8"/>
<line class="st14" x1="0" y1="138.6" x2="44" y2="578.2"/>
<line class="st14" x1="308" y1="578.2" x2="352" y2="138.6"/>
<g class="st3">
	<g class="st15">
		<path class="st1" d="M12.1,190.4c3.3,31.9,6.6,63.9,9.9,95.8c5.3,50.9,10.5,101.8,15.8,152.7c1.2,11.7,2.4,23.3,3.6,35
			c0.3,3.2,5.3,3.2,5,0c-3.3-31.9-6.6-63.9-9.9-95.8C31.2,327.2,26,276.3,20.7,225.4c-1.2-11.7-2.4-23.3-3.6-35
			C16.8,187.3,11.8,187.2,12.1,190.4L12.1,190.4z"/>
	</g>
</g>
<g class="st16">
	<g>
		<path class="st1" d="M17.3,129.4c3.3,31.1,6.6,62.3,9.9,93.4c5.3,49.7,10.5,99.4,15.8,149c1.2,11.4,2.4,22.9,3.6,34.3
			c0.4,3.4,5.7,3.4,5.3,0c-3.3-31.1-6.6-62.3-9.9-93.4c-5.3-49.7-10.5-99.4-15.8-149c-1.2-11.4-2.4-22.9-3.6-34.3
			C22.3,126,16.9,126,17.3,129.4L17.3,129.4z"/>
	</g>
</g>
</svg>
