<?xml version="1.0" encoding="utf-8"?>
<!-- Generator: Adobe Illustrator 21.0.0, SVG Export Plug-In . SVG Version: 6.00 Build 0)  -->
<svg version="1.1" xmlns="http://www.w3.org/2000/svg" xmlns:xlink="http://www.w3.org/1999/xlink" x="0px" y="0px"
	 viewBox="0 0 360 360" style="enable-background:new 0 0 360 360;" xml:space="preserve">
<style type="text/css">
	.st0{fill:#010101;}
	.st1{fill:#FFFFFF;}
</style>
<g id="Layer_1">
</g>
<g id="graphics">
	<g>
		<path class="st0" d="M301.2,203.4H90.4c-0.2,0-0.5-0.2-0.5-0.5v-47.3c0-0.2,0.2-0.5,0.5-0.5h210.8c0.2,0,0.5,0.2,0.5,0.5V203
			C301.7,203.2,301.5,203.4,301.2,203.4z"/>
		<path class="st0" d="M100.9,187.9H34.8c-0.2,0-0.5-0.2-0.5-0.5v-47.3c0-0.2,0.2-0.5,0.5-0.5h66.1c0.2,0,0.5,0.2,0.5,0.5v47.3
			C101.4,187.7,101.2,187.9,100.9,187.9z"/>
		<path class="st0" d="M299.4,304H35.3c-0.5,0-0.9-0.4-0.9-0.9v-136c0-0.5,0.4-0.9,0.9-0.9h264.2c0.5,0,0.9,0.4,0.9,0.9v136
			C300.3,303.6,299.9,304,299.4,304z"/>
		<path class="st1" d="M310.4,294.5H46.2c-0.5,0-0.9-0.4-0.9-0.9V163c0-0.5,0.4-0.9,0.9-0.9h264.2c0.5,0,0.9,0.4,0.9,0.9v130.6
			C311.2,294.1,310.8,294.5,310.4,294.5z"/>
		<g>
			
				<rect x="128.4" y="110.9" transform="matrix(0.9703 -0.2419 0.2419 0.9703 -43.3372 42.6365)" class="st0" width="47" height="173.9"/>
			
				<rect x="137.6" y="113.4" transform="matrix(0.9703 -0.2419 0.2419 0.9703 -44.2603 40.2316)" class="st0" width="8.2" height="173.9"/>
			<polygon class="st0" points="119.5,67.7 106.6,112.9 152.2,101.6 			"/>
			<polygon class="st0" points="119.5,67.7 106.6,112.9 152.2,101.6 			"/>
		</g>
		<g>
			<path class="st0" d="M223.1,295.8l-40.3-12.6c-0.3-0.1-0.4-0.4-0.3-0.6L253.4,55c0.1-0.3,0.4-0.4,0.6-0.3l40.3,12.6
				c0.3,0.1,0.4,0.4,0.3,0.6l-70.9,227.6C223.7,295.8,223.4,295.9,223.1,295.8z"/>
			<g>
				<path class="st1" d="M289.5,87.1l-21-6.5c-0.1,0-0.1,0-0.1,0.1l-1.7,5.4c0,0.1,0,0.1,0.1,0.1l21,6.5c0.1,0,0.1,0,0.1-0.1
					l1.7-5.4C289.6,87.2,289.5,87.1,289.5,87.1z"/>
			</g>
			<g>
				<path class="st1" d="M284.1,104.2l-21-6.5c-0.1,0-0.1,0-0.1,0.1l-1.7,5.4c0,0.1,0,0.1,0.1,0.1l21,6.5c0.1,0,0.1,0,0.1-0.1
					l1.7-5.4C284.2,104.3,284.2,104.2,284.1,104.2z"/>
			</g>
			<g>
				<path class="st1" d="M278.8,121.3l-21-6.5c-0.1,0-0.1,0-0.1,0.1l-1.7,5.4c0,0.1,0,0.1,0.1,0.1l21,6.5c0.1,0,0.1,0,0.1-0.1
					l1.7-5.4C278.9,121.3,278.9,121.3,278.8,121.3z"/>
			</g>
			<g>
				<path class="st1" d="M273.5,138.4l-21-6.5c-0.1,0-0.1,0-0.1,0.1l-1.7,5.4c0,0.1,0,0.1,0.1,0.1l21,6.5c0.1,0,0.1,0,0.1-0.1
					l1.7-5.4C273.6,138.5,273.6,138.4,273.5,138.4z"/>
			</g>
			<g>
				<path class="st1" d="M268.2,155.5l-21-6.5c-0.1,0-0.1,0-0.1,0.1l-1.7,5.4c0,0.1,0,0.1,0.1,0.1l21,6.5c0.1,0,0.1,0,0.1-0.1
					l1.7-5.4C268.3,155.6,268.2,155.5,268.2,155.5z"/>
			</g>
			<g>
				<path class="st1" d="M262.8,172.6l-21-6.5c-0.1,0-0.1,0-0.1,0.1l-1.7,5.4c0,0.1,0,0.1,0.1,0.1l21,6.5c0.1,0,0.1,0,0.1-0.1
					l1.7-5.4C262.9,172.7,262.9,172.7,262.8,172.6z"/>
			</g>
			<g>
				<path class="st1" d="M257.5,189.7l-21-6.5c-0.1,0-0.1,0-0.1,0.1l-1.7,5.4c0,0.1,0,0.1,0.1,0.1l21,6.5c0.1,0,0.1,0,0.1-0.1
					l1.7-5.4C257.6,189.8,257.6,189.7,257.5,189.7z"/>
			</g>
			<g>
				<path class="st1" d="M252.2,206.8l-21-6.5c-0.1,0-0.1,0-0.1,0.1l-1.7,5.4c0,0.1,0,0.1,0.1,0.1l21,6.5c0.1,0,0.1,0,0.1-0.1
					l1.7-5.4C252.3,206.9,252.2,206.8,252.2,206.8z"/>
			</g>
			<g>
				<path class="st1" d="M246.8,224l-21-6.5c-0.1,0-0.1,0-0.1,0.1l-1.7,5.4c0,0.1,0,0.1,0.1,0.1l21,6.5c0.1,0,0.1,0,0.1-0.1l1.7-5.4
					C246.9,224,246.9,224,246.8,224z"/>
			</g>
			<g>
				<path class="st1" d="M241.5,241.1l-21-6.5c-0.1,0-0.1,0-0.1,0.1l-1.7,5.4c0,0.1,0,0.1,0.1,0.1l21,6.5c0.1,0,0.1,0,0.1-0.1
					l1.7-5.4C241.6,241.2,241.6,241.1,241.5,241.1z"/>
			</g>
			<g>
				<path class="st1" d="M236.2,258.1l-21-6.5c-0.1,0-0.1,0-0.1,0.1l-1.7,5.4c0,0.1,0,0.1,0.1,0.1l21,6.5c0.1,0,0.1,0,0.1-0.1
					l1.7-5.4C236.3,258.2,236.3,258.1,236.2,258.1z"/>
			</g>
			<g>
				<path class="st1" d="M230.9,275.3l-21-6.5c-0.1,0-0.1,0-0.1,0.1l-1.7,5.4c0,0.1,0,0.1,0.1,0.1l21,6.5c0.1,0,0.1,0,0.1-0.1
					l1.7-5.4C230.9,275.3,230.9,275.3,230.9,275.3z"/>
			</g>
		</g>
		<path class="st0" d="M291.2,304H60c-7.7,0-12.8-6.4-11.5-14.3l18.7-109.1c1.4-7.9,8.7-14.3,16.4-14.3h231.2
			c7.7,0,12.8,6.4,11.5,14.3l-18.7,109.1C306.2,297.6,298.8,304,291.2,304z"/>
	</g>
</g>
</svg>
