<?xml version="1.0" encoding="utf-8"?>
<!-- Generator: Adobe Illustrator 21.0.0, SVG Export Plug-In . SVG Version: 6.00 Build 0)  -->
<svg version="1.1" xmlns="http://www.w3.org/2000/svg" xmlns:xlink="http://www.w3.org/1999/xlink" x="0px" y="0px"
	 viewBox="0 0 360 360" style="enable-background:new 0 0 360 360;" xml:space="preserve">
<style type="text/css">
	.st0{fill:#272626;}
</style>
<g id="Layer_1">
</g>
<g id="text">
</g>
<g id="graphics">
	<g>
		<g>
			<path class="st0" d="M142.4,179c0,27.5-0.4,55.1,0.1,82.6c0.3,13.9-9.4,24.7-24.5,24.4c-26.9-0.6-53.8-0.2-80.7-0.2
				c-14,0-22.7-8.1-23.6-22.1c-0.1-1-0.1-2-0.1-3.1c0-54.3,0-108.6,0-162.9c0-17.1,8.8-25.8,26-25.8c26.5,0,53,0,79.5,0
				c11.8,0,20.6,6.8,22.8,17.6c0.4,2.2,0.4,4.6,0.4,6.8C142.4,123.9,142.4,151.5,142.4,179z M125.8,179.1c0-18.9,0-37.7,0-56.6
				c0-5.4-1.4-6.9-6.8-6.9c-27.1,0-54.3,0-81.4,0c-5.7,0-7,1.3-7,7c0,37.6,0,75.1,0,112.7c0,5.8,1.3,7.1,7.3,7.1
				c26.7,0,53.5,0,80.2,0c6.2,0,7.7-1.4,7.7-7.6C125.8,216.3,125.8,197.7,125.8,179.1z M78.2,277c7.4,0,12.7-5.3,12.7-12.7
				c0-7.3-5.4-12.9-12.6-13c-6.9-0.1-13,5.8-13.1,12.7C65.1,271.4,70.8,277,78.2,277z M77.9,98.7c4.1,0,8.1,0,12.2,0
				c1.5,0,3.4,0,3.4-2.1c0-2.1-1.8-2.2-3.3-2.2c-7.9,0-15.8,0-23.7,0c-1.6,0-3.7-0.1-3.6,2.3c0.1,2.1,2,2,3.5,2
				C70.3,98.7,74.1,98.7,77.9,98.7z"/>
		</g>
	</g>
	<path class="st0" d="M277.3,182.8c16.2-7.7,27.5-24.2,27.5-43.3c0-26.5-21.5-48-48-48c-26.5,0-48,21.5-48,48
		c0,19.2,11.2,35.6,27.5,43.3c-40.9,9.3-71.4,45.9-71.4,89.6h183.9C348.7,228.7,318.2,192.2,277.3,182.8z"/>
</g>
</svg>
